<?xml version="1.0" encoding="UTF-8"?><svg id="a" xmlns="http://www.w3.org/2000/svg" viewBox="0 0 200 200"><defs><style>.b{fill:#0071c7;}.c{stroke-linecap:round;}.c,.d{fill:none;stroke:#0071c7;stroke-miterlimit:10;stroke-width:7px;}</style></defs><g><path class="b" d="M106.78,131.82h-13.35c-2.19,0-3.97-1.78-3.97-3.97v-4.11c-3.15-1.53-7.36-3.79-10.52-6.73l-3.2,1.76c-.94,.52-2.08,.63-3.11,.31-1.03-.32-1.89-1.06-2.37-2.03l-4.89-9.9c-.97-1.96-.16-4.35,1.8-5.32l3.91-1.93c-.18-1.31-.27-2.6-.27-3.84,0-1.35,.07-2.61,.22-3.82l-4.01-1.96c-1.96-.95-2.78-3.33-1.84-5.29l4.75-9.91c.46-.97,1.31-1.71,2.32-2.05,1.02-.34,2.14-.25,3.09,.24l3.57,1.86c3.16-2.95,7.39-5.23,10.55-6.76v-4.29c0-2.19,1.78-3.97,3.97-3.97h13.35c2.19,0,3.97,1.78,3.97,3.97v4.09c4.02,1.55,7.92,4.04,10.89,6.94l3.51-1.84c.96-.5,2.05-.59,3.07-.26,1.03,.33,1.85,1.05,2.33,2.02l4.9,9.93c.47,.95,.54,2.03,.2,3.03-.34,1.01-1.05,1.82-2,2.29l-3.92,1.93c.17,1.28,.25,2.57,.25,3.84,0,1.36-.07,2.62-.22,3.83l3.98,1.95c1.96,.96,2.78,3.34,1.83,5.3l-4.82,9.93c-.47,.97-1.29,1.69-2.31,2.03-1.02,.35-2.11,.27-3.07-.22l-3.73-1.89c-2.97,2.91-6.88,5.4-10.91,6.96v3.91c0,2.19-1.78,3.97-3.97,3.97Zm-12.34-4.98h11.33v-3.61c0-1.67,1.06-3.17,2.64-3.74,3.8-1.37,7.51-3.73,10.18-6.49,1.23-1.27,3.1-1.59,4.66-.8l3.47,1.77,3.93-8.1-3.73-1.83c-1.55-.76-2.43-2.44-2.18-4.17,.17-1.18,.26-2.42,.26-3.81,0-1.25-.1-2.52-.3-3.78-.27-1.74,.6-3.43,2.16-4.2l3.68-1.81-3.99-8.1-3.27,1.71c-1.57,.82-3.46,.51-4.7-.78-2.67-2.75-6.37-5.11-10.17-6.48-1.58-.57-2.64-2.07-2.64-3.74v-3.79h-11.33v3.91c0,1.52-.88,2.93-2.25,3.58-3.04,1.46-7.41,3.72-10.27,6.56-1.25,1.25-3.13,1.54-4.67,.74l-3.29-1.71-3.86,8.06,3.77,1.84c1.56,.76,2.44,2.44,2.18,4.18-.17,1.18-.26,2.43-.26,3.8,0,1.21,.1,2.45,.31,3.77,.28,1.74-.59,3.44-2.16,4.21l-3.67,1.81,3.98,8.05,2.93-1.61c1.55-.85,3.46-.57,4.73,.69,2.86,2.84,7.23,5.1,10.26,6.55,1.39,.67,2.25,2.04,2.25,3.58v3.73Zm37.12-20.54h0Z"/><path class="b" d="M100.27,111.82c-8.77,0-15.91-7.14-15.91-15.91s7.14-15.91,15.91-15.91,15.91,7.14,15.91,15.91-7.14,15.91-15.91,15.91Zm0-26.84c-6.03,0-10.93,4.9-10.93,10.93s4.9,10.93,10.93,10.93,10.93-4.9,10.93-10.93-4.9-10.93-10.93-10.93Z"/></g><rect class="d" x="24.56" y="48.1" width="151.65" height="95.62" rx="4.47" ry="4.47"/><line class="c" x1="70.12" y1="166.53" x2="130.65" y2="166.53"/><line class="d" x1="89.75" y1="143.25" x2="89.75" y2="166.53"/><line class="d" x1="111.77" y1="143.71" x2="111.77" y2="166.53"/></svg>