<?xml version="1.0" encoding="UTF-8"?><svg id="a" xmlns="http://www.w3.org/2000/svg" viewBox="0 0 200 200"><defs><style>.b{fill:#0071c7;}</style></defs><path class="b" d="M142.93,121.77c-1.04-.79-2.43-.93-3.61-.35-1.17,.58-1.91,1.77-1.91,3.08v11.41h-19.47c-1.89,0-3.43,1.53-3.43,3.43s1.54,3.43,3.43,3.43h22.9c1.9,0,3.43-1.53,3.43-3.43v-7.9l27.43,20.96-27.43,20.96v-7.91c0-1.9-1.54-3.43-3.43-3.43H71.21c-1.9,0-3.43,1.53-3.43,3.43s1.54,3.43,3.43,3.43h66.2v11.42c0,1.31,.74,2.5,1.91,3.08,.48,.24,1,.36,1.52,.36,.74,0,1.47-.24,2.08-.7l36.51-27.9c.85-.65,1.35-1.66,1.35-2.73s-.5-2.08-1.35-2.73l-36.51-27.9Z"/><path class="b" d="M85.48,137.41c0-1.9-1.54-3.43-3.43-3.43h-22.89c-1.89,0-3.43,1.53-3.43,3.43v7.9l-27.43-20.96,27.43-20.96v7.89c0,1.9,1.54,3.43,3.43,3.43h69.62c1.9,0,3.43-1.53,3.43-3.43s-1.54-3.43-3.43-3.43H62.59v-11.4c0-1.31-.74-2.5-1.91-3.08-1.17-.58-2.57-.45-3.61,.35l-36.51,27.9c-.85,.65-1.35,1.66-1.35,2.73s.5,2.08,1.35,2.73l36.51,27.9c.61,.47,1.34,.7,2.08,.7,.52,0,1.04-.12,1.52-.36,1.17-.58,1.91-1.77,1.91-3.08v-11.41h19.46c1.89,0,3.43-1.53,3.43-3.43Z"/><path class="b" d="M114.51,66.1c0,1.9,1.54,3.43,3.43,3.43h22.9c1.9,0,3.43-1.53,3.43-3.43v-7.9l27.43,20.96-27.43,20.96v-7.91c0-1.9-1.54-3.43-3.43-3.43H71.21c-1.9,0-3.43,1.53-3.43,3.43s1.54,3.43,3.43,3.43h66.2v11.42c0,1.31,.74,2.5,1.91,3.08,.48,.24,1,.36,1.52,.36,.74,0,1.47-.24,2.08-.7l36.51-27.9c.85-.65,1.35-1.66,1.35-2.73s-.5-2.08-1.35-2.73l-36.51-27.9c-1.04-.79-2.43-.93-3.61-.35-1.17,.58-1.91,1.77-1.91,3.08v11.41h-19.47c-1.89,0-3.43,1.53-3.43,3.43Z"/><path class="b" d="M57.07,81.76c.61,.47,1.34,.7,2.08,.7,.52,0,1.04-.12,1.52-.36,1.17-.58,1.91-1.77,1.91-3.08v-11.41h19.47c1.89,0,3.43-1.53,3.43-3.43s-1.54-3.43-3.43-3.43h-22.9c-1.89,0-3.43,1.53-3.43,3.43v7.9l-27.42-20.96,27.42-20.96v7.89c0,1.9,1.54,3.43,3.43,3.43h69.63c1.9,0,3.43-1.53,3.43-3.43s-1.54-3.43-3.43-3.43H62.59v-11.4c0-1.31-.74-2.5-1.91-3.08-1.17-.58-2.57-.45-3.61,.35L20.56,48.41c-.85,.65-1.35,1.66-1.35,2.73s.5,2.08,1.35,2.73l36.51,27.9Z"/></svg>