<?xml version="1.0" encoding="UTF-8"?><svg id="a" xmlns="http://www.w3.org/2000/svg" viewBox="0 0 200 200"><defs><style>.b{fill:#0071c7;}</style></defs><path class="b" d="M136.48,138.82c-2.44,0-4.42-1.98-4.42-4.42v-3.91c-8.81-1.67-15.24-8.21-15.24-16.18,0-2.44,1.98-4.42,4.42-4.42s4.42,1.98,4.42,4.42c0,4.21,4.95,7.77,10.82,7.77s10.82-3.56,10.82-7.77c0-3.5-3.6-6.75-8.37-7.56-.08-.01-.15-.03-.23-.04l-6-1.36c-8.41-1.48-14.5-7.85-14.5-15.17s5.82-13.39,13.85-15.04v-3.94c0-2.44,1.98-4.42,4.42-4.42s4.42,1.98,4.42,4.42v3.94c8.03,1.65,13.85,7.7,13.85,15.04,0,2.44-1.98,4.42-4.42,4.42s-4.42-1.98-4.42-4.42c0-3.61-4.32-6.66-9.43-6.66s-9.43,3.05-9.43,6.66c0,2.98,3.13,5.77,7.28,6.48,.07,.01,.15,.03,.22,.04l6,1.37c9.04,1.59,15.59,8.41,15.59,16.25s-6.54,14.45-15.24,16.17v3.92c0,2.44-1.98,4.42-4.42,4.42Z"/><path class="b" d="M99.32,71.76H52.52c-2.32,0-4.2-1.88-4.2-4.2s1.88-4.2,4.2-4.2h46.8c2.32,0,4.2,1.88,4.2,4.2s-1.88,4.2-4.2,4.2Z"/><path class="b" d="M92.34,89.74H32.88c-2.32,0-4.2-1.88-4.2-4.2s1.88-4.2,4.2-4.2h59.46c2.32,0,4.2,1.88,4.2,4.2s-1.88,4.2-4.2,4.2Z"/><path class="b" d="M85.18,107.71H9.76c-2.32,0-4.2-1.88-4.2-4.2s1.88-4.2,4.2-4.2H85.18c2.32,0,4.2,1.88,4.2,4.2s-1.88,4.2-4.2,4.2Z"/><path class="b" d="M92.34,125.69H32.88c-2.32,0-4.2-1.88-4.2-4.2s1.88-4.2,4.2-4.2h59.46c2.32,0,4.2,1.88,4.2,4.2s-1.88,4.2-4.2,4.2Z"/><path class="b" d="M99.32,143.66H52.52c-2.32,0-4.2-1.88-4.2-4.2s1.88-4.2,4.2-4.2h46.8c2.32,0,4.2,1.88,4.2,4.2s-1.88,4.2-4.2,4.2Z"/><path class="b" d="M136.48,46.24c-13.47,0-25.84,4.71-35.6,12.56h15.99c6-2.67,12.63-4.16,19.61-4.16,26.73,0,48.48,21.75,48.48,48.48s-21.75,48.48-48.48,48.48c-6.98,0-13.61-1.49-19.61-4.16h-15.99c9.75,7.85,22.13,12.56,35.6,12.56,31.36,0,56.88-25.52,56.88-56.88s-25.52-56.88-56.88-56.88Z"/></svg>