<?xml version="1.0" encoding="utf-8"?>
<!-- Generator: Adobe Illustrator 26.0.3, SVG Export Plug-In . SVG Version: 6.00 Build 0)  -->
<svg version="1.1" id="Layer_1" xmlns="http://www.w3.org/2000/svg" xmlns:xlink="http://www.w3.org/1999/xlink" x="0px" y="0px"
	 viewBox="0 0 160 160" style="enable-background:new 0 0 160 160;" xml:space="preserve">
<style type="text/css">
	.st0{fill:none;stroke:#0071C7;stroke-width:6;stroke-linecap:round;stroke-linejoin:round;}
</style>
<g>
	<path class="st0" d="M39.2,80h76.5 M39.2,137.7H45c23.9,0,43.2-19.4,43.2-43.2V80h31.9 M39.2,22.3H45c23.9,0,43.2,19.4,43.2,43.2
		V80 M24.2,123.3c8,0,14.4,6.5,14.4,14.4c0,8-6.5,14.4-14.4,14.4s-14.4-6.5-14.4-14.4C9.8,129.7,16.2,123.3,24.2,123.3z M24.2,65.6
		c8,0,14.4,6.5,14.4,14.4c0,8-6.5,14.4-14.4,14.4S9.8,88,9.8,80C9.8,72,16.2,65.6,24.2,65.6z M24.2,7.9c8,0,14.4,6.5,14.4,14.4
		c0,8-6.5,14.4-14.4,14.4S9.8,30.3,9.8,22.3C9.8,14.4,16.2,7.9,24.2,7.9z"/>
	<rect x="120.2" y="65" class="st0" width="30" height="30"/>
</g>
</svg>
