<svg xmlns="http://www.w3.org/2000/svg" width="317" height="68" viewBox="0 0 317 68">
  <g id="Vector_Smart_Object" data-name="Vector Smart Object" transform="translate(-1020.713 -696.955)">
    <g id="Group_1" data-name="Group 1">
      <path id="Path_1" data-name="Path 1" d="M1165.755,764.735a.894.894,0,0,1-.89-.9V698.074a.89.89,0,1,1,1.779,0v65.765a.894.894,0,0,1-.89.9" fill="#fff"/>
      <path id="Path_2" data-name="Path 2" d="M1165.755,697.4a.671.671,0,0,0-.669.674v65.765a.669.669,0,1,0,1.338,0V698.074a.671.671,0,0,0-.669-.674m0,67.555a1.114,1.114,0,0,1-1.109-1.117V698.074a1.109,1.109,0,1,1,2.217,0v65.765a1.114,1.114,0,0,1-1.109,1.117" fill="#fff"/>
      <path id="Path_3" data-name="Path 3" d="M1188.14,717.536l-1.56,4.551h3.123Zm4.069,7.645H1190.8l-.731-1.94h-3.87l-.714,1.94h-1.412l3.2-8.7H1189Z" fill="#fff"/>
      <path id="Path_4" data-name="Path 4" d="M1199.349,723.943h1.944c1.312,0,1.742-.451,1.742-1.5v-3.212c0-1.054-.43-1.5-1.742-1.5h-1.944Zm2.042-7.46c2.444,0,3.056,1.138,3.056,2.744v3.212c0,1.605-.612,2.743-3.056,2.743h-3.453v-8.7Z" fill="#fff"/>
      <rect id="Rectangle_1" data-name="Rectangle 1" width="1.412" height="8.699" transform="translate(1207.051 716.482)" fill="#fff"/>
      <path id="Path_5" data-name="Path 5" d="M1215.394,725.181h-1.824l-3.023-8.7h1.394l2.542,7.494,2.542-7.494h1.394Z" fill="#fff"/>
      <rect id="Rectangle_2" data-name="Rectangle 2" width="1.412" height="8.699" transform="translate(1220.514 716.482)" fill="#fff"/>
      <path id="Path_6" data-name="Path 6" d="M1227.426,725.347a9.089,9.089,0,0,1-2.974-.518l.2-1.123a10.362,10.362,0,0,0,2.792.419c1.443,0,1.727-.25,1.727-1.17,0-1,0-1.054-1.979-1.574-2.522-.67-2.64-1.1-2.64-2.743,0-1.755.8-2.324,3.189-2.324a12.35,12.35,0,0,1,2.642.317l-.115,1.172a14.854,14.854,0,0,0-2.511-.27c-1.576,0-1.793.152-1.793,1.156,0,.969.018,1.02,1.944,1.554,2.54.687,2.673,1.02,2.673,2.676,0,1.623-.481,2.426-3.154,2.426" fill="#fff"/>
      <rect id="Rectangle_3" data-name="Rectangle 3" width="1.412" height="8.699" transform="translate(1233.081 716.482)" fill="#fff"/>
      <path id="Path_7" data-name="Path 7" d="M1240.644,717.568c-1.543,0-2.125.538-2.125,1.574v3.38c0,1.038.583,1.572,2.125,1.572s2.127-.534,2.127-1.572v-3.38c0-1.036-.6-1.574-2.127-1.574m3.537,5c0,1.489-.862,2.777-3.537,2.777s-3.537-1.288-3.537-2.777v-3.48c0-1.487.862-2.775,3.537-2.775s3.537,1.288,3.537,2.775Z" fill="#fff"/>
      <path id="Path_8" data-name="Path 8" d="M1248.115,718.206v6.976h-1.347v-8.7h1.777l4.054,6.976v-6.976h1.343v8.7h-1.776Z" fill="#fff"/>
      <path id="Path_9" data-name="Path 9" d="M1263.757,717.568c-1.545,0-2.127.538-2.127,1.574v3.38c0,1.038.583,1.572,2.127,1.572,1.527,0,2.126-.534,2.126-1.572v-3.38c0-1.036-.6-1.574-2.126-1.574m3.537,5c0,1.489-.864,2.777-3.537,2.777s-3.537-1.288-3.537-2.777v-3.48c0-1.487.864-2.775,3.537-2.775s3.537,1.288,3.537,2.775Z" fill="#fff"/>
      <path id="Path_10" data-name="Path 10" d="M1269.88,725.181v-8.7h5.8v1.239h-4.386v2.659h4.071v1.239h-4.071v3.563Z" fill="#fff"/>
      <path id="Path_11" data-name="Path 11" d="M1189.439,744.882a25.4,25.4,0,0,0,3.889-.347l.186,1.893a19.486,19.486,0,0,1-4.1.425c-3.917,0-5.344-1.385-5.344-4.209v-5.967c0-2.824,1.427-4.209,5.344-4.209a19.354,19.354,0,0,1,4.1.425l-.186,1.891a25.385,25.385,0,0,0-3.889-.345c-2.249,0-3.119.532-3.119,2.4v5.648c0,1.865.87,2.4,3.119,2.4" fill="#fff"/>
      <rect id="Rectangle_4" data-name="Rectangle 4" width="2.274" height="3.063" transform="translate(1197.198 743.523)" fill="#fff"/>
      <path id="Path_12" data-name="Path 12" d="M1212.44,746.586v-6.074h-6.453v6.074h-2.247V732.734h2.247v5.806h6.453v-5.806h2.245v13.851Z" fill="#fff"/>
      <rect id="Rectangle_5" data-name="Rectangle 5" width="2.276" height="3.063" transform="translate(1218.975 743.523)" fill="#fff"/>
      <path id="Path_13" data-name="Path 13" d="M1233.812,740.087h4.048c1.56,0,1.93-.534,1.93-1.786v-1.81c0-1.253-.37-1.784-1.93-1.784h-4.048ZM1237.6,742h-3.786v4.583h-2.245V732.735h6.161c3.332,0,4.31,1.359,4.31,3.543v2.184c0,1.6-.53,2.743-2.09,3.25l3.256,4.874h-2.54Z" fill="#fff"/>
      <path id="Path_14" data-name="Path 14" d="M1251.614,734.464c-2.458,0-3.383.855-3.383,2.505v5.381c0,1.652.925,2.5,3.383,2.5,2.436,0,3.387-.851,3.387-2.5v-5.381c0-1.65-.95-2.505-3.387-2.505m5.633,7.966c0,2.371-1.375,4.421-5.633,4.421s-5.632-2.05-5.632-4.421v-5.542c0-2.369,1.377-4.421,5.632-4.421s5.633,2.052,5.633,4.421Z" fill="#fff"/>
      <path id="Path_15" data-name="Path 15" d="M1269.4,741.952c0-1.04-.553-1.518-1.85-1.518h-3.942v4.341h4.022c1.349,0,1.77-.613,1.77-1.491Zm-.5-6.153c0-.906-.5-1.253-1.508-1.253h-3.784v4.075h3.625c1.267,0,1.666-.559,1.666-1.465Zm-7.538,10.787V732.735h6.269c2.487,0,3.49,1.012,3.49,2.9v1.6a2.11,2.11,0,0,1-1.508,2.188,2.4,2.4,0,0,1,2.012,2.58v1.44c0,1.971-1.218,3.143-3.756,3.143Z" fill="#fff"/>
      <rect id="Rectangle_6" data-name="Rectangle 6" width="2.247" height="13.851" transform="translate(1275.354 732.735)" fill="#fff"/>
      <path id="Path_16" data-name="Path 16" d="M1284.181,735.478v11.108h-2.143V732.735h2.829l6.457,11.108V732.735h2.141v13.851h-2.831Z" fill="#fff"/>
      <path id="Path_17" data-name="Path 17" d="M1302.182,746.852a14.411,14.411,0,0,1-4.734-.825l.315-1.786a16.606,16.606,0,0,0,4.447.666c2.3,0,2.749-.4,2.749-1.863,0-1.6,0-1.678-3.148-2.5-4.02-1.067-4.206-1.761-4.206-4.37,0-2.795,1.269-3.7,5.078-3.7a19.614,19.614,0,0,1,4.208.508l-.186,1.863a23.679,23.679,0,0,0-3.995-.427c-2.513,0-2.859.24-2.859,1.839,0,1.544.029,1.623,3.1,2.478,4.046,1.093,4.257,1.625,4.257,4.262,0,2.582-.769,3.862-5.023,3.862" fill="#fff"/>
      <path id="Path_18" data-name="Path 18" d="M1316.535,734.464c-2.458,0-3.383.855-3.383,2.505v5.381c0,1.652.925,2.5,3.383,2.5,2.434,0,3.387-.851,3.387-2.5v-5.381c0-1.65-.952-2.505-3.387-2.505m5.635,7.966c0,2.371-1.377,4.421-5.635,4.421s-5.63-2.05-5.63-4.421v-5.542c0-2.369,1.375-4.421,5.63-4.421s5.635,2.052,5.635,4.421Z" fill="#fff"/>
      <path id="Path_19" data-name="Path 19" d="M1328.431,735.478v11.108h-2.145V732.735h2.831l6.453,11.108V732.735h2.143v13.851h-2.833Z" fill="#fff"/>
      <path id="Path_20" data-name="Path 20" d="M1044.975,715.213v39.6h-11.062v-39.6h-13.2V705.33h37.465v9.883Z" fill="#fff"/>
      <path id="Path_21" data-name="Path 21" d="M1070.33,727.32l-.739,27.49h-10.7l2.069-49.481h11.064l11.8,31.5,11.8-31.5h11.062l2.069,49.481h-10.694l-.739-27.49-8.555,21.1h-9.885Z" fill="#fff"/>
      <path id="Path_22" data-name="Path 22" d="M1122.512,738.614c0,4.307,1.4,6.834,6.862,6.834a80.593,80.593,0,0,0,12.685-1.19l1.551,9.729a65.694,65.694,0,0,1-14.235,1.564c-12.391,0-17.923-6.164-17.923-15.157V719.74c0-8.987,5.532-15.151,17.923-15.151a65.934,65.934,0,0,1,14.235,1.558l-1.551,9.729a81.245,81.245,0,0,0-12.685-1.184c-5.458,0-6.862,2.525-6.862,6.832Z" fill="#fff"/>
    </g>
  </g>
</svg>
