<?xml version="1.0" encoding="utf-8"?>
<!-- Generator: Adobe Illustrator 27.5.0, SVG Export Plug-In . SVG Version: 6.00 Build 0)  -->
<svg version="1.1" id="Layer_1" xmlns="http://www.w3.org/2000/svg" xmlns:xlink="http://www.w3.org/1999/xlink" x="0px" y="0px"
	 viewBox="0 0 160 160" style="enable-background:new 0 0 160 160;" xml:space="preserve">
<style type="text/css">
	.st0{fill:#2671B9;}
</style>
<path class="st0" d="M50,127.7c-5.2,0-9.5-4.3-9.5-9.5c0-5.3,4.3-9.5,9.5-9.5s9.5,4.3,9.5,9.5C59.5,123.4,55.3,127.7,50,127.7z
	 M50,114.4c-2.1,0-3.8,1.7-3.8,3.8c0,2.1,1.7,3.8,3.8,3.8s3.8-1.7,3.8-3.8S52.1,114.4,50,114.4z"/>
<path class="st0" d="M130.4,84.5c2.2-2,3.6-4.8,3.6-8c0-6-5.1-11-11.3-11H92.9c4.5-9.5,5.5-17.5,2.8-23.7
	c-3.3-7.7-10.9-9.7-11.2-9.8L84,32l-0.5,0c-2.8,0.3-5.1,1.5-6.6,3.6c-2.9,3.9-2.1,9.6-1.8,11.2c-0.4,9.6-5.1,12-5.3,12l-0.4,0.2
	c-7.1,4.5-12.6,12.5-16.2,19.2v-7H26v56.2h5.7V77h15.7v27.5h5.7V91.7l0.2,0c0.1-0.2,7.2-20.1,19-27.7c1.5-0.8,8.1-4.9,8.5-17.3v-0.4
	L80.8,46c-0.3-1.5-0.6-5.2,0.8-7c0.3-0.4,0.8-1,2-1.2c1.3,0.5,5.1,2.1,6.8,6.3c2.3,5.3,0.7,13-4.4,22.4c-4,1.7-6.8,5.5-6.8,10
	c0,3.2,1.4,6,3.6,8c-2.2,1.8-3.6,4.4-3.6,7.2c0,2.6,1.2,5.1,3.2,6.8c-1.9,1.7-3.2,4.1-3.2,6.8c0,2.5,1.1,4.8,2.8,6.5
	c-1.7,1.7-2.8,4.1-2.8,6.7c0,1.3,0.3,2.6,0.8,3.8H63.1v5.7h37.6l13.8,0c5.3,0,9.6-4.3,9.6-9.5c0-1.7-0.5-3.3-1.3-4.7
	c3.4-1.5,5.8-4.7,5.8-8.5c0-1.7-0.5-3.2-1.3-4.6c4-1.5,6.8-5,6.8-9.1C134,88.8,132.6,86.2,130.4,84.5L130.4,84.5z M90.5,71.3h32.2
	c3,0,5.5,2.3,5.5,5.2s-2.5,5.2-5.5,5.2H90.5c-3,0-5.5-2.3-5.5-5.2C85,73.6,87.4,71.3,90.5,71.3z M114.5,122.3H88.8
	c-2.1,0-3.8-1.7-3.8-3.8c0-2.1,1.7-3.8,3.8-3.8h0.4c0.1,0,0.2,0,0.3,0h25.2c2,0.2,3.5,1.7,3.5,3.7
	C118.3,120.6,116.6,122.3,114.5,122.3z M118.2,109.1h-3.4c0,0-0.2,0-0.3,0H89.2c-2.4-0.2-4.2-1.7-4.2-3.7c0-2.1,2.1-3.8,4.6-3.8h0.8
	c0,0,0.1,0,0.2,0h27.9c2.5,0.1,4.4,1.7,4.4,3.7S120.7,109.1,118.2,109.1L118.2,109.1z M122.7,95.9h-4.4c0,0-0.1,0-0.1,0H90.4
	c-2.9-0.1-5.4-1.9-5.4-4.1s2.5-4.1,5.5-4.1h32.2c3,0,5.5,1.9,5.5,4.1S125.8,95.9,122.7,95.9L122.7,95.9z"/>
</svg>
