<svg id="Layer_1" data-name="Layer 1" xmlns="http://www.w3.org/2000/svg" viewBox="0 0 160 160"><defs><style>.cls-1{fill:none;stroke:#0071c7;stroke-linecap:round;stroke-linejoin:round;stroke-width:5px;}</style></defs><path class="cls-1" d="M125.5,115.27V97.53a6.9,6.9,0,0,0-6.9-6.91h-1.81V25.83a1.73,1.73,0,0,0-.77-1.44l-4.38-2.89A1.73,1.73,0,0,0,109,22.94v20.8l-1.31-3.52a12.07,12.07,0,0,0-11.33-7.88H63.65a12.09,12.09,0,0,0-11.36,8L51,43.74V22.94a1.73,1.73,0,0,0-2.68-1.44L44,24.39a1.73,1.73,0,0,0-.77,1.44V90.62H41.4a6.9,6.9,0,0,0-6.9,6.91v17.74H31.56A1.73,1.73,0,0,0,29.83,117v9.54a1.73,1.73,0,0,0,1.73,1.73H39v7.07a3.45,3.45,0,0,0,3.45,3.45H51.6a3.44,3.44,0,0,0,3.45-3.45v-7.07H105v7.07a3.44,3.44,0,0,0,3.45,3.45h9.15a3.45,3.45,0,0,0,3.45-3.45v-7.07h7.44a1.73,1.73,0,0,0,1.73-1.73V117a1.73,1.73,0,0,0-1.73-1.73Z"/><line class="cls-1" x1="92.49" y1="94.07" x2="67.51" y2="94.07"/><line class="cls-1" x1="34.5" y1="115.27" x2="125.5" y2="115.27"/><line class="cls-1" x1="39" y1="128.27" x2="121" y2="128.27"/><path class="cls-1" d="M116.79,90.62H101.91l-1-2.62a9,9,0,0,0-8.45-5.88h-25A9,9,0,0,0,59,88.05l-.93,2.57H43.21"/><line class="cls-1" x1="92.49" y1="103.06" x2="67.51" y2="103.06"/><rect class="cls-1" x="51.04" y="53.36" width="57.92" height="17.01"/><circle class="cls-1" cx="111.56" cy="103.14" r="4.96"/><circle class="cls-1" cx="48.44" cy="103.14" r="4.96"/></svg>