<?xml version="1.0" encoding="utf-8"?>
<!-- Generator: Adobe Illustrator 25.2.0, SVG Export Plug-In . SVG Version: 6.00 Build 0)  -->
<svg version="1.1" id="Layer_1" xmlns="http://www.w3.org/2000/svg" xmlns:xlink="http://www.w3.org/1999/xlink" x="0px" y="0px"
	 viewBox="0 0 160 160" style="enable-background:new 0 0 160 160;" xml:space="preserve">
<style type="text/css">
	.st0{fill:none;stroke:#0071C7;stroke-width:6;stroke-linecap:round;stroke-linejoin:round;}
</style>
<g>
	<path class="st0" d="M153.5,70.5l-11.6,11.7l-14.3-11.5 M141.9,81.4c0-35.2-28.5-63.7-63.7-63.7c-25.9,0-48.1,15.4-58.1,37.6
		 M6.5,89.5l11.6-11.7l14.3,11.5 M18.1,78.6c0,35.2,28.5,63.7,63.7,63.7c25.9,0,48.1-15.4,58.1-37.6 M79.8,43.2v73.9 M113.4,93.6
		H46.2 M115,68.4H46.2 M59.7,80c0,20.5,9.1,37.2,20.3,37.2c11.2,0,20.3-16.7,20.3-37.2S91.2,42.8,80,42.8
		C68.8,42.8,59.7,59.5,59.7,80z M42.8,80c0,20.5,16.7,37.2,37.2,37.2c20.5,0,37.2-16.7,37.2-37.2S100.5,42.8,80,42.8
		C59.5,42.8,42.8,59.5,42.8,80z"/>
</g>
</svg>
