<?xml version="1.0" encoding="utf-8"?>
<!-- Generator: Adobe Illustrator 25.2.0, SVG Export Plug-In . SVG Version: 6.00 Build 0)  -->
<svg version="1.1" id="Layer_1" xmlns="http://www.w3.org/2000/svg" xmlns:xlink="http://www.w3.org/1999/xlink" x="0px" y="0px"
	 viewBox="0 0 160 160" style="enable-background:new 0 0 160 160;" xml:space="preserve">
<style type="text/css">
	.st0{fill:none;stroke:#0071C7;stroke-width:6;stroke-linecap:round;stroke-linejoin:round;}
</style>
<g>
	<path class="st0" d="M36.8,96.6H157 M17.4,65.1V32.2c-0.1-3.5,2.5-6.4,6-6.6c0,0,0,0,0,0h127.5c3.5,0.1,6.2,3,6.1,6.5c0,0,0,0,0,0
		v76c0.1,3.5-2.5,6.4-6,6.6c0,0,0,0,0,0H36.8 M19.9,126.2c0.8,0,1.5,0.7,1.5,1.5c0,0.8-0.7,1.5-1.5,1.5c-0.8,0-1.5-0.7-1.5-1.5
		C18.4,126.9,19.1,126.2,19.9,126.2z M3.5,121.6h30.8 M6,77.6h28.3 M4.1,68.8h31.5c0.6,0,1.1,0.5,1.1,1.1v63c0,0.6-0.5,1.1-1.1,1.1
		H4.1c-0.6,0-1.1-0.5-1.1-1.1v-63C3,69.3,3.5,68.8,4.1,68.8z M55.7,134.3h62.9 M74.5,114.9h25.3v19.5H74.5V114.9z"/>
</g>
</svg>
