<?xml version="1.0" encoding="utf-8"?>
<!-- Generator: Adobe Illustrator 25.4.1, SVG Export Plug-In . SVG Version: 6.00 Build 0)  -->
<svg version="1.1" id="Layer_1" xmlns="http://www.w3.org/2000/svg" xmlns:xlink="http://www.w3.org/1999/xlink" x="0px" y="0px"
	 viewBox="0 0 160 160" style="enable-background:new 0 0 160 160;" xml:space="preserve">
<style type="text/css">
	.st0{fill:none;stroke:#0071C7;stroke-width:5;stroke-linecap:round;stroke-linejoin:round;}
</style>
<g>
	<path class="st0" d="M106.8,106.8c-2.4,2.4-5.7,5.2-8,6.5l24.1,24.1c3.8,3.8,10.4,3.5,14.2-0.4c3.8-3.8,4.2-10.4,0.4-14.2
		l-24.1-24.1C112,101,109.2,104.4,106.8,106.8z M97.2,51c12.8,12.8,12.8,33.4,0,46.2S63.7,110,51,97.2S38.2,63.8,51,51
		S84.4,38.3,97.2,51z M106.8,41.4c18,18,18,47.3,0,65.3s-47.3,18-65.3,0s-18-47.3,0-65.3C59.5,23.4,88.7,23.4,106.8,41.4z"/>
</g>
</svg>
