<svg id="Layer_1" data-name="Layer 1" xmlns="http://www.w3.org/2000/svg" width="160" height="160" viewBox="0 0 160 160"><defs><style>.cls-1{fill:none;stroke:#0071c7;stroke-linecap:round;stroke-linejoin:round;stroke-width:6px;}</style></defs><path class="cls-1" d="M90.9,84.54A6,6,0,0,0,80.28,88.4v42.09h12V94.19M90.9,84.54a6,6,0,0,1,1.43,3.86v5.79M90.9,84.54l47.51-27.42A4.54,4.54,0,0,1,143,65L92.33,94.19M15,130.49H145M57,82H34.22V79.55a11.41,11.41,0,0,1,22.81,0ZM20.56,29.51H70.7l4.81,10H15.75Zm13.66,88.7H57M34.22,106.43H57M34.22,94.65H57M69.69,82H21.57V39.46H69.69Zm0,48.49H21.57V82.37H69.69Z"/></svg>