<svg id="Layer_1" data-name="Layer 1" xmlns="http://www.w3.org/2000/svg" viewBox="0 0 64 64"><defs><style>.cls-1{fill:#0071c7;}</style></defs><path class="cls-1" d="M32,42.91H13.81a1,1,0,0,1,0-2H32a1,1,0,0,1,0,2Z"/><path class="cls-1" d="M21.86,46.88h-7a1,1,0,0,1-1-1v-4a1,1,0,0,1,1-1h7a1,1,0,0,1,1,1v4A1,1,0,0,1,21.86,46.88Zm-6-2h5v-2h-5Z"/><path class="cls-1" d="M13.81,42.91a1,1,0,0,1-1-1V34.19c0-.46-.18-2.62,1-3.85,1-1,3-2.83,3.12-2.91a1.06,1.06,0,0,1,.67-.26H32a1,1,0,0,1,0,2H18c-.6.55-2,1.84-2.76,2.59A3.4,3.4,0,0,0,14.8,34a.45.45,0,0,1,0,.11v7.78A1,1,0,0,1,13.81,42.91Z"/><path class="cls-1" d="M24.08,38.9H13.81a1,1,0,0,1-1-1V34.13a1,1,0,0,1,1-1H24.08a1,1,0,0,1,1,1V37.9A1,1,0,0,1,24.08,38.9Zm-9.27-2h8.27V35.13H14.81Z"/><path class="cls-1" d="M17.65,29.17H13a1.9,1.9,0,0,1-1.77-1.85v-.1a3.32,3.32,0,0,1,3.31-3.32h.82a3.32,3.32,0,0,1,3.32,3.32v1A1,1,0,0,1,17.65,29.17Zm-4.44-2h3.43a1.31,1.31,0,0,0-1.31-1.27h-.82a1.31,1.31,0,0,0-1.31,1.25Z"/><path class="cls-1" d="M17.65,29.17a.86.86,0,0,1-.32-.05,1,1,0,0,1-.63-1.26c.07-.22,1.78-5.33,2.7-7.69C20.24,18,24,17.12,32,17.12a1,1,0,0,1,0,2c-9.55,0-10.62,1.48-10.74,1.78-.9,2.31-2.65,7.54-2.67,7.59A1,1,0,0,1,17.65,29.17Z"/><path class="cls-1" d="M50.19,42.91H32a1,1,0,0,1,0-2H50.19a1,1,0,0,1,0,2Z"/><path class="cls-1" d="M49.12,46.88h-7a1,1,0,0,1-1-1v-4a1,1,0,0,1,1-1h7a1,1,0,0,1,1,1v4A1,1,0,0,1,49.12,46.88Zm-6-2h5v-2h-5Z"/><path class="cls-1" d="M50.19,42.91a1,1,0,0,1-1-1V34.13a.45.45,0,0,1,0-.11,3.34,3.34,0,0,0-.47-2.26c-.75-.75-2.16-2-2.76-2.59H32a1,1,0,0,1,0-2H46.36a1.06,1.06,0,0,1,.67.26c.08.08,2.11,1.91,3.11,2.91,1.23,1.23,1.1,3.39,1,3.85v7.72A1,1,0,0,1,50.19,42.91Z"/><path class="cls-1" d="M50.19,38.9H39.91a1,1,0,0,1-1-1V34.13a1,1,0,0,1,1-1H50.19a1,1,0,0,1,1,1V37.9A1,1,0,0,1,50.19,38.9Zm-9.28-2h8.28V35.13H40.91Z"/><path class="cls-1" d="M51,29.17H46.36a1,1,0,0,1-1-1v-1a3.32,3.32,0,0,1,3.31-3.32h.82a3.32,3.32,0,0,1,3.31,3.32v.1A1.9,1.9,0,0,1,51,29.17Zm-3.67-2h3.43v0a1.32,1.32,0,0,0-1.31-1.25h-.82A1.31,1.31,0,0,0,47.36,27.17Z"/><path class="cls-1" d="M46.36,29.17a1,1,0,0,1-1-.68s-1.77-5.28-2.67-7.59c-.12-.3-1.18-1.78-10.74-1.78a1,1,0,0,1,0-2c8,0,11.76.91,12.6,3.05.92,2.36,2.63,7.47,2.7,7.69a1,1,0,0,1-.63,1.26A.84.84,0,0,1,46.36,29.17Z"/></svg>