<svg id="Layer_1" data-name="Layer 1" xmlns="http://www.w3.org/2000/svg" viewBox="0 0 64 64"><defs><style>.cls-1{fill:#0071c7;}</style></defs><path class="cls-1" d="M40.1,19.05H23.9a1,1,0,0,1-1-1v-6.3a1,1,0,0,1,1-1H40.1a1,1,0,0,1,1,1v6.3A1,1,0,0,1,40.1,19.05Zm-15.2-2H39.1v-4.3H24.9Z"/><path class="cls-1" d="M45.42,53.25H18.24a2.58,2.58,0,0,1-2.54-2.82V14.92a2.22,2.22,0,0,1,2.54-2.37H23.9a1,1,0,0,1,0,2H18.24a1.21,1.21,0,0,0-.51.07,1.16,1.16,0,0,0,0,.3V50.43c0,.82.41.82.54.82H45.42a.85.85,0,0,0,.88-.82V14.92c0-.1,0-.37-.88-.37H40.1a1,1,0,0,1,0-2h5.32c2.12,0,2.88,1.23,2.88,2.37V50.43A2.86,2.86,0,0,1,45.42,53.25Z"/><path class="cls-1" d="M43.7,49.65H20.3a1,1,0,0,1-1-1V16.25a1,1,0,0,1,1-1h3.6a1,1,0,0,1,1,1v.8H39.1v-.8a1,1,0,0,1,1-1h3.6a1,1,0,0,1,1,1v32.4A1,1,0,0,1,43.7,49.65Zm-22.4-2H42.7V17.25H41.1v.8a1,1,0,0,1-1,1H23.9a1,1,0,0,1-1-1v-.8H21.3Z"/><path class="cls-1" d="M30.7,39.64a1,1,0,0,1-.91-.57l-2.32-4.84H20.3a1,1,0,0,1,0-2h7.8a1,1,0,0,1,.9.56l1.28,2.67,2-10.86a1,1,0,0,1,1-.82,1,1,0,0,1,1,.8l1.57,7.65h7.85a1,1,0,0,1,0,2H35a1,1,0,0,1-1-.8L33.34,30l-1.66,8.86a1,1,0,0,1-.85.8Z"/></svg>