<svg id="Layer_1" data-name="Layer 1" xmlns="http://www.w3.org/2000/svg" viewBox="0 0 64 64"><defs><style>.cls-1{fill:#0071c7;}</style></defs><path class="cls-1" d="M19.34,32.05H14.82a1,1,0,0,1-1-1V25a1,1,0,0,1,1-1h5.09a1,1,0,0,1,.74.33,1,1,0,0,1,.26.77l-.57,6A1,1,0,0,1,19.34,32.05Zm-3.52-2h2.61l.38-4h-3Z"/><path class="cls-1" d="M49.18,32.05H44.66a1,1,0,0,1-1-.9l-.57-6a1,1,0,0,1,.26-.77,1,1,0,0,1,.74-.33h5.09a1,1,0,0,1,1,1v6A1,1,0,0,1,49.18,32.05Zm-3.61-2h2.61V26h-3Z"/><path class="cls-1" d="M23.51,43.29h-7.2a1,1,0,1,1,0-2h6.2V38.9h-6.2a1,1,0,1,1,0-2h7.2a1,1,0,0,1,1,1v4.39A1,1,0,0,1,23.51,43.29Z"/><path class="cls-1" d="M44.66,32.05H19.34a1,1,0,0,1-.75-.33,1.06,1.06,0,0,1-.24-.78l1.19-10.28a1,1,0,0,1,1-.88H43.47a1,1,0,0,1,1,.88l1.19,10.28a1.06,1.06,0,0,1-.24.78A1,1,0,0,1,44.66,32.05Zm-24.2-2H43.54l-1-8.27H21.42Z"/><path class="cls-1" d="M47.69,49.18H16.31a1,1,0,0,1-1-1V37.9a1.06,1.06,0,0,1,.08-.4l3-6.85a1,1,0,1,1,1.83.81l-3,6.65v9.07H46.69V38.11l-2.95-6.65a1,1,0,0,1,.51-1.32,1,1,0,0,1,1.32.51l3,6.85a1.06,1.06,0,0,1,.08.4V48.18A1,1,0,0,1,47.69,49.18Z"/><path class="cls-1" d="M40.49,44.3h-17a1,1,0,0,1-1-1V37.9a1,1,0,0,1,1-1h17a1,1,0,0,1,1,1v5.4A1,1,0,0,1,40.49,44.3Zm-16-2h15V38.9h-15Z"/><path class="cls-1" d="M47.69,43.29h-7.2a1,1,0,0,1-1-1V37.9a1,1,0,0,1,1-1h7.2a1,1,0,0,1,0,2h-6.2v2.39h6.2a1,1,0,0,1,0,2Z"/><path class="cls-1" d="M46.8,54.56h-5a1,1,0,0,1-1-1V48.18a1,1,0,0,1,1-1h5a1,1,0,0,1,1,1v5.38A1,1,0,0,1,46.8,54.56Zm-4-2h3V49.18h-3Z"/><path class="cls-1" d="M22.17,54.56h-5a1,1,0,0,1-1-1V48.18a1,1,0,0,1,1-1h5a1,1,0,0,1,1,1v5.38A1,1,0,0,1,22.17,54.56Zm-4-2h3V49.18h-3Z"/><path class="cls-1" d="M16.31,38.9h-1a1,1,0,0,1-1-1V31.44a1,1,0,0,1,2,0l0,5.46a1,1,0,0,1,0,2Z"/><path class="cls-1" d="M48.74,26a1,1,0,0,1-1-1V11.44H16.26V25a1,1,0,0,1-2,0V10.44a1,1,0,0,1,1-1H48.74a1,1,0,0,1,1,1V25A1,1,0,0,1,48.74,26Z"/><path class="cls-1" d="M48.74,38.9H47.69a1,1,0,0,1,0-2h.05V31.05a1,1,0,0,1,2,0V37.9A1,1,0,0,1,48.74,38.9Z"/></svg>