<svg id="Layer_1" data-name="Layer 1" xmlns="http://www.w3.org/2000/svg" viewBox="0 0 64 64"><defs><style>.cls-1{fill:#0071c7;}</style></defs><path class="cls-1" d="M48.63,21H34.77a1,1,0,0,1-.8-1.6l2.13-2.84c-1.62-1.4-3.25-4.31-3.25-5.8a1,1,0,0,1,1.17-1l15.71,2.78a1,1,0,0,1,.77,1.3l-.87,2.61V20A1,1,0,0,1,48.63,21ZM36.77,19H47.63v-2.7a1.06,1.06,0,0,1,0-.31l.56-1.68L35.24,12c.64,1.36,1.93,3.09,2.63,3.34a1,1,0,0,1,.47,1.54Z"/><path class="cls-1" d="M48.63,17.29H37.54a1,1,0,0,1,0-2H48.63a1,1,0,0,1,0,2Z"/><path class="cls-1" d="M42.63,29.3a6.88,6.88,0,0,1-7-6.75V20a1,1,0,0,1,2,0v2.56a5,5,0,0,0,10,0V20a1,1,0,0,1,2,0v2.56A6.88,6.88,0,0,1,42.63,29.3Z"/><path class="cls-1" d="M34.77,53.33a1,1,0,0,1-1-1V42.86L33,44.16l-.06.09a4,4,0,0,1-3.66,1.69H20.91A1.93,1.93,0,0,1,19,44V42.89a2.85,2.85,0,0,1,2.53-2.83l6.2-.68,3.9-6.11A5.67,5.67,0,0,1,36.12,31H47.71a6.55,6.55,0,0,1,6.54,6.54V50.48a1,1,0,0,1-2,0V37.54A4.55,4.55,0,0,0,47.71,33H36.12a3.66,3.66,0,0,0-2.87,1.41l-4.1,6.44a1,1,0,0,1-.74.46l-6.67.74a.84.84,0,0,0-.75.84v1h8.24a2.09,2.09,0,0,0,2.06-.89l2.63-4.19a1,1,0,0,1,1.13-.43,1,1,0,0,1,.72,1V52.33A1,1,0,0,1,34.77,53.33Z"/><path class="cls-1" d="M48.63,53.33a1,1,0,0,1-1-1V39.39a1,1,0,0,1,2,0V52.33A1,1,0,0,1,48.63,53.33Z"/><path class="cls-1" d="M48.63,48.71H35.7a1,1,0,0,1-.82-1.58L46,31.42a1,1,0,0,1,1.39-.24,1,1,0,0,1,.24,1.4l-10,14.13h11a1,1,0,0,1,0,2Z"/><path class="cls-1" d="M28.08,54.25H18.37a4,4,0,0,1-4-4V48.63a1,1,0,0,1,1-1H31.08a1,1,0,0,1,1,1v1.62A4,4,0,0,1,28.08,54.25ZM16.37,49.63v.62a2,2,0,0,0,2,2h9.71a2,2,0,0,0,2-2v-.62Z"/><path class="cls-1" d="M15.37,49.63H13.52a3.77,3.77,0,0,1-3.77-3.77V35.7a3.78,3.78,0,0,1,3.77-3.78h1.85a1,1,0,0,1,1,1V48.63A1,1,0,0,1,15.37,49.63ZM13.52,33.92a1.78,1.78,0,0,0-1.77,1.78V45.86a1.77,1.77,0,0,0,1.77,1.77h.85V33.92Z"/></svg>