<svg id="Layer_1" data-name="Layer 1" xmlns="http://www.w3.org/2000/svg" viewBox="0 0 64 64"><defs><style>.cls-1{fill:#0071c7;}</style></defs><path class="cls-1" d="M58.93,47.58H44.85a1,1,0,0,1-1-.85L39.28,15.48a1,1,0,1,1,2-.29l4.46,30.39H58.93a1,1,0,0,1,0,2Z"/><path class="cls-1" d="M43.3,41.15h-5a1,1,0,0,1,0-2h5a1,1,0,0,1,0,2Z"/><path class="cls-1" d="M30.47,52.71a6.27,6.27,0,1,1,6.23-6.27A6.25,6.25,0,0,1,30.47,52.71Zm0-10.54a4.27,4.27,0,1,0,4.23,4.27A4.25,4.25,0,0,0,30.47,42.17Z"/><path class="cls-1" d="M13.21,52.71a6.27,6.27,0,1,1,6.23-6.27A6.25,6.25,0,0,1,13.21,52.71Zm0-10.54a4.27,4.27,0,1,0,4.23,4.27A4.25,4.25,0,0,0,13.21,42.17Z"/><path class="cls-1" d="M39.48,47.59H36.54a1,1,0,1,1,0-2h1.73L36.75,37.5H26.52a1,1,0,1,1,0-2H37.58a1,1,0,0,1,1,.81l1.9,10.1a1,1,0,0,1-.21.82A1,1,0,0,1,39.48,47.59Z"/><path class="cls-1" d="M24.73,47.44H19.24a1,1,0,1,1,0-2h5.49a1,1,0,1,1,0,2Z"/><path class="cls-1" d="M8.06,47h-3a1,1,0,0,1-1-1V34.76a1,1,0,0,1,1-1h4V12.29a1,1,0,0,1,1-1H24.29a1,1,0,0,1,.94.68l8.16,24.21a1,1,0,0,1-1,1.32H22.07a1,1,0,0,1-1-.77l-1.32-5.38H11.05v3.41a1,1,0,0,1-1,1h-4V45h2a1,1,0,1,1,0,2ZM22.85,35.5h8.2L23.57,13.29H11.05V29.35h9.52a1,1,0,0,1,1,.77Z"/></svg>