<svg id="Layer_1" data-name="Layer 1" xmlns="http://www.w3.org/2000/svg" viewBox="0 0 64 64"><defs><style>.cls-1{fill:#0071c7;}</style></defs><path class="cls-1" d="M49.78,24.29h-12a1,1,0,0,1,0-2h12a1,1,0,0,1,0,2Z"/><path class="cls-1" d="M35.79,14.49h-15a1,1,0,0,1,0-2h15a1,1,0,0,1,0,2Z"/><path class="cls-1" d="M37.79,37.49h-18a1,1,0,0,1,0-2h18a1,1,0,0,1,0,2Z"/><path class="cls-1" d="M48.06,31.66H39.19a1,1,0,0,1-1-1V23.29a1,1,0,0,1,1-1h8.87a1,1,0,0,1,1,1v7.37A1,1,0,0,1,48.06,31.66Zm-7.87-2h6.87V24.29H40.19Z"/><path class="cls-1" d="M43.62,51.51a5.39,5.39,0,0,1-2.54-.65A1,1,0,0,1,42,49.09a3.36,3.36,0,0,0,1.6.42,3.44,3.44,0,0,0,3.44-3.43V31.66H40.19V39.1a1,1,0,0,1-2,0V30.66a1,1,0,0,1,1-1h8.87a1,1,0,0,1,1,1V46.08A5.44,5.44,0,0,1,43.62,51.51Z"/><path class="cls-1" d="M39.83,51.51H17.25a4,4,0,0,1-3.43-1.85,3.84,3.84,0,0,1-.24-3.7l8.91-19V13.49a1,1,0,0,1,1-1h10.1a1,1,0,0,1,1,1V26.91l5.5,11.77a1,1,0,0,1,.1.42v7a3.42,3.42,0,0,0,1.83,3,1,1,0,0,1,.09,1.72A4.08,4.08,0,0,1,39.83,51.51Zm-15.34-37V27.13a1,1,0,0,1-.09.42l-9,19.26a1.81,1.81,0,0,0,.12,1.77,2,2,0,0,0,1.74.93H39.43a5.37,5.37,0,0,1-1.24-3.43V39.32L32.68,27.55a1,1,0,0,1-.09-.42V14.49Z"/><path class="cls-1" d="M41.55,51a1,1,0,0,1-.47-.12,5.4,5.4,0,0,1-2.89-4.78v-7a1,1,0,1,1,2,0v7a3.42,3.42,0,0,0,1.83,3,1,1,0,0,1,.41,1.36A1,1,0,0,1,41.55,51Z"/></svg>