<svg id="Layer_1" data-name="Layer 1" xmlns="http://www.w3.org/2000/svg" viewBox="0 0 64 64"><defs><style>.cls-1{fill:#0071c7;}</style></defs><path class="cls-1" d="M32,50c-5.11,0-9.27-5.46-9.27-12.17S26.89,25.67,32,25.67s9.26,5.46,9.26,12.18S37.1,50,32,50Zm0-22.35c-4,0-7.27,4.56-7.27,10.18S28,48,32,48s7.26-4.56,7.26-10.17S36,27.67,32,27.67Z"/><path class="cls-1" d="M22.9,40.67H2.1a1,1,0,0,1,0-2H22.9a1,1,0,0,1,0,2Z"/><path class="cls-1" d="M13.6,46.78a3.67,3.67,0,1,1,3.67-3.67A3.67,3.67,0,0,1,13.6,46.78Zm0-5.33a1.67,1.67,0,1,0,1.67,1.66A1.66,1.66,0,0,0,13.6,41.45Z"/><path class="cls-1" d="M61.9,40.67H41.1a1,1,0,0,1,0-2H61.9a1,1,0,0,1,0,2Z"/><path class="cls-1" d="M50.39,46.78a3.67,3.67,0,1,1,3.67-3.67A3.67,3.67,0,0,1,50.39,46.78Zm0-5.33a1.67,1.67,0,1,0,1.67,1.66A1.66,1.66,0,0,0,50.39,41.45Z"/><path class="cls-1" d="M34.6,35.47H29.4a1,1,0,0,1,0-2h5.2a1,1,0,0,1,0,2Z"/><path class="cls-1" d="M25.5,30.27H16.4a1,1,0,1,1,0-2h9.1a1,1,0,0,1,0,2Z"/><path class="cls-1" d="M47.6,30.27H38.5a1,1,0,0,1,0-2h9.1a1,1,0,0,1,0,2Z"/><path class="cls-1" d="M32,26.38a1,1,0,0,1-1-1V15a1,1,0,0,1,2,0v10.4A1,1,0,0,1,32,26.38Z"/></svg>