<svg id="Layer_1" data-name="Layer 1" xmlns="http://www.w3.org/2000/svg" viewBox="0 0 64 64"><defs><style>.cls-1{fill:#0071c7;}</style></defs><path class="cls-1" d="M42,46.23H22a1.05,1.05,0,0,1-.71-.29L16.82,41.5a1,1,0,0,1-.29-.71V22.9c0-3.17,2.79-5.13,5.56-5.44a1,1,0,0,1,1.1.89,1,1,0,0,1-.89,1.1c-1.83.2-3.77,1.48-3.77,3.45V40.38l3.85,3.85H41.61l3.85-3.85V22.9c0-2-2-3.25-3.78-3.45a1,1,0,0,1-.88-1.1,1,1,0,0,1,1.1-.89c2.76.31,5.56,2.27,5.56,5.44V40.79a1,1,0,0,1-.29.71l-4.44,4.44A1,1,0,0,1,42,46.23Z"/><path class="cls-1" d="M47.66,54.46A1,1,0,0,1,46.8,54l-4.95-8.34a1,1,0,0,1,1.72-1l5,8.34a1,1,0,0,1-.35,1.37A.94.94,0,0,1,47.66,54.46Z"/><path class="cls-1" d="M16.34,54.46a.94.94,0,0,1-.51-.14A1,1,0,0,1,15.48,53l4.95-8.34a1,1,0,1,1,1.72,1L17.2,54A1,1,0,0,1,16.34,54.46Z"/><path class="cls-1" d="M45.19,50.29H18.82a1,1,0,0,1,0-2H45.19a1,1,0,0,1,0,2Z"/><path class="cls-1" d="M32,30.51a4.44,4.44,0,1,1,4.44-4.43A4.44,4.44,0,0,1,32,30.51Zm0-6.87a2.44,2.44,0,1,0,2.44,2.44A2.44,2.44,0,0,0,32,23.64Z"/><path class="cls-1" d="M36.85,42.17a1.64,1.64,0,1,1,1.64-1.64A1.65,1.65,0,0,1,36.85,42.17Zm0-2a.36.36,0,1,0,.36.36A.36.36,0,0,0,36.85,40.17Z"/><path class="cls-1" d="M27.14,42.17a1.64,1.64,0,1,1,1.64-1.64A1.65,1.65,0,0,1,27.14,42.17Zm0-2a.36.36,0,1,0,.36.36A.36.36,0,0,0,27.14,40.17Z"/><path class="cls-1" d="M41.79,19.46h-.15L31.84,18A1,1,0,0,1,31,17V10.54a1,1,0,0,1,1.15-1L41.94,11a1,1,0,0,1,.85,1v6.44a1,1,0,0,1-.34.76A1.07,1.07,0,0,1,41.79,19.46ZM33,16.12l7.8,1.18V12.88L33,11.7Z"/><path class="cls-1" d="M22.24,19.46a1,1,0,0,1-.65-.24,1,1,0,0,1-.35-.76V12a1,1,0,0,1,.85-1l9.8-1.48a1,1,0,0,1,1.14.84,1,1,0,0,1-.84,1.14l-8.95,1.35V17.3L31.89,16a1,1,0,1,1,.3,2l-9.8,1.48Z"/><path class="cls-1" d="M42,46.23a1,1,0,0,1-1-1V35.64a1,1,0,0,1,.24-.66l4.44-5.06a1,1,0,1,1,1.5,1.31L43,36v9.21A1,1,0,0,1,42,46.23Z"/><path class="cls-1" d="M22,46.23a1,1,0,0,1-1-1V36l-4.19-4.79a1,1,0,0,1,1.51-1.31L22.72,35a1,1,0,0,1,.24.66v9.59A1,1,0,0,1,22,46.23Z"/></svg>