<svg id="Layer_1" data-name="Layer 1" xmlns="http://www.w3.org/2000/svg" viewBox="0 0 64 64"><defs><style>.cls-1{fill:#0071c7;}</style></defs><path class="cls-1" d="M45.36,43a3.2,3.2,0,0,1-2.28-.94l-1.52-1.52a1,1,0,0,1,0-1.41,1,1,0,0,1,1.42,0l1.52,1.52A1.22,1.22,0,0,0,46.22,39L44,36.77a1,1,0,0,1,0-1.42,1,1,0,0,1,1.41,0l2.18,2.18a3.21,3.21,0,0,1,0,4.55A3.18,3.18,0,0,1,45.36,43Z"/><path class="cls-1" d="M43.54,47.48a3.24,3.24,0,0,1-2.27-.94L37.77,43a1,1,0,0,1,0-1.42,1,1,0,0,1,1.41,0l3.5,3.5A1.22,1.22,0,0,0,44.4,43.4l-3.5-3.5a1,1,0,0,1,0-1.41,1,1,0,0,1,1.42,0l3.5,3.5a3.22,3.22,0,0,1-2.28,5.49Z"/><path class="cls-1" d="M39.75,50A3.2,3.2,0,0,1,37.47,49l-3.72-3.72a1,1,0,0,1,0-1.41,1,1,0,0,1,1.42,0l3.72,3.72a1.22,1.22,0,0,0,1.72-1.72l-3.72-3.72a1,1,0,0,1,0-1.42,1,1,0,0,1,1.41,0L42,44.46A3.21,3.21,0,0,1,42,49,3.18,3.18,0,0,1,39.75,50Z"/><path class="cls-1" d="M33.9,50.72a3.17,3.17,0,0,1-2.24-.92L30.1,48.23a1,1,0,1,1,1.41-1.41l1.57,1.57A1.34,1.34,0,0,0,35,46.5l-2.09-2.09a1,1,0,0,1,0-1.41,1,1,0,0,1,1.42,0l2.09,2.09a3.28,3.28,0,0,1-.08,4.63A3.43,3.43,0,0,1,33.9,50.72Z"/><path class="cls-1" d="M44.75,37.06a1,1,0,0,1-.69-.27L32.83,26.22a1,1,0,0,1,0-1.42,1,1,0,0,1,1.41,0L45.43,35.33a1,1,0,0,1,0,1.41A1,1,0,0,1,44.75,37.06Z"/><path class="cls-1" d="M32.2,21.37a1,1,0,0,1-.28,0,18.63,18.63,0,0,0-8.7-.14,1,1,0,0,1-1-.26l-4.47-4.47a1,1,0,0,1,0-1.42,1,1,0,0,1,1.41,0l4.09,4.09a20.25,20.25,0,0,1,9.2.28,1,1,0,0,1-.29,2Z"/><path class="cls-1" d="M18,35.73a1,1,0,0,1-.71-.29L8,26.12A1,1,0,1,1,9.4,24.71L18.71,34a1,1,0,0,1-.7,1.71Z"/><path class="cls-1" d="M28.32,50.12a3.11,3.11,0,0,1-2.21-.91L26,49.08a3.14,3.14,0,0,1,0-4.42l2-1.95a3.13,3.13,0,0,1,4.42,0l.13.12a3.15,3.15,0,0,1,0,4.43l-2,2A3.11,3.11,0,0,1,28.32,50.12Zm1.83-6.33a1.13,1.13,0,0,0-.8.33l-2,2a1.12,1.12,0,0,0,0,1.59l.12.13a1.13,1.13,0,0,0,1.6,0l1.95-2a1.12,1.12,0,0,0,0-1.59L31,44.12A1.13,1.13,0,0,0,30.15,43.79Z"/><path class="cls-1" d="M24.69,47a3.1,3.1,0,0,1-2.21-.92l-.13-.13a3.13,3.13,0,0,1,0-4.42l2.8-2.79a3.13,3.13,0,0,1,4.42,0l.12.12a3.13,3.13,0,0,1,0,4.43L26.9,46.06A3.12,3.12,0,0,1,24.69,47Zm2.67-7.18a1.13,1.13,0,0,0-.8.33l-2.8,2.8a1.12,1.12,0,0,0,0,1.59l.13.13a1.16,1.16,0,0,0,1.59,0l2.8-2.8a1.14,1.14,0,0,0,.33-.8,1.11,1.11,0,0,0-.33-.79l-.13-.13A1.11,1.11,0,0,0,27.36,39.8Z"/><path class="cls-1" d="M18.42,40.71a3.1,3.1,0,0,1-2.21-.92l-.13-.13a3.11,3.11,0,0,1,0-4.42l2.8-2.79a3.13,3.13,0,0,1,4.42,0h0l.13.12a3.14,3.14,0,0,1,0,4.43l-2.79,2.79A3.12,3.12,0,0,1,18.42,40.71Zm2.67-7.18a1.13,1.13,0,0,0-.8.33l-2.8,2.8a1.11,1.11,0,0,0-.33.79,1.14,1.14,0,0,0,.33.8l.13.13a1.16,1.16,0,0,0,1.59,0l2.8-2.8a1.14,1.14,0,0,0,.33-.8A1.11,1.11,0,0,0,22,34l-.13-.13A1.11,1.11,0,0,0,21.09,33.53Z"/><path class="cls-1" d="M21,44.42a3.1,3.1,0,0,1-2.21-.92l-.13-.13a3.13,3.13,0,0,1,0-4.42L22.59,35A3.14,3.14,0,0,1,27,35h0l.13.12a3.14,3.14,0,0,1,0,4.42l-3.95,4A3.12,3.12,0,0,1,21,44.42Zm3.82-8.33a1.13,1.13,0,0,0-.8.33l-3.95,3.95a1.12,1.12,0,0,0,0,1.59l.13.13a1.16,1.16,0,0,0,1.59,0l3.95-4a1.12,1.12,0,0,0,0-1.59l-.13-.13A1.09,1.09,0,0,0,24.8,36.09Z"/><path class="cls-1" d="M27.13,29.51A3.47,3.47,0,0,1,26,29.32,3.52,3.52,0,0,1,25.31,23a38.66,38.66,0,0,0,3.89-2.64c2.82-2.19,7.05-.13,8.74.86l7.41-7.62A1,1,0,1,1,46.78,15l-8,8.19a1,1,0,0,1-1.29.13c-1.31-.9-5.14-2.9-7.09-1.38a41.37,41.37,0,0,1-4.09,2.77,1.52,1.52,0,0,0-.6,1.93,1.52,1.52,0,0,0,2.09.72l5.22-2.74A1,1,0,0,1,34,26.38l-5.22,2.73A3.48,3.48,0,0,1,27.13,29.51Z"/><path class="cls-1" d="M44.09,35.74A1,1,0,0,1,43.38,34L54.6,22.81a1,1,0,0,1,1.41,0,1,1,0,0,1,0,1.42L44.79,35.45A1,1,0,0,1,44.09,35.74Z"/><path class="cls-1" d="M51,28.8a1,1,0,0,1-.7-.29l-9.24-9.24a1,1,0,0,1,0-1.42,1,1,0,0,1,1.41,0l9.24,9.24A1,1,0,0,1,51,28.8Z"/><path class="cls-1" d="M13.19,30.91a1,1,0,0,1-.71-.3,1,1,0,0,1,0-1.41l9.8-9.67A1,1,0,0,1,23.69,21l-9.8,9.67A1,1,0,0,1,13.19,30.91Z"/><path class="cls-1" d="M12.19,25.91a1,1,0,0,1-.72-.31,1,1,0,0,1,0-1.41l1.05-1a1,1,0,1,1,1.39,1.45l-1.06,1A1,1,0,0,1,12.19,25.91Z"/></svg>