<svg id="Layer_1" data-name="Layer 1" xmlns="http://www.w3.org/2000/svg" viewBox="0 0 64 64"><defs><style>.cls-1{fill:#0071c7;}</style></defs><path class="cls-1" d="M47.32,38.33H23.63a1,1,0,0,1-.95-.71l-5.23-17.1a1,1,0,0,1,.15-.88,1,1,0,0,1,.8-.41H52a1.89,1.89,0,0,1,1.53.77,1.92,1.92,0,0,1,.29,1.69L49.14,37A1.9,1.9,0,0,1,47.32,38.33Zm-22.95-2H47.25l4.61-15.1H19.75ZM52,21.23h0Z"/><path class="cls-1" d="M44.49,44.63H25.41a1,1,0,0,1-1-.72L15.81,14.38H11.1a1,1,0,0,1,0-2h5.46a1,1,0,0,1,1,.72l8.64,29.53H44.49a1,1,0,0,1,0,2Z"/><path class="cls-1" d="M26.81,51.62a4.5,4.5,0,1,1,4.49-4.5A4.5,4.5,0,0,1,26.81,51.62Zm0-7a2.5,2.5,0,1,0,2.49,2.49A2.49,2.49,0,0,0,26.81,44.63Z"/><path class="cls-1" d="M44.49,51.62A4.5,4.5,0,1,1,49,47.12,4.51,4.51,0,0,1,44.49,51.62Zm0-7A2.5,2.5,0,1,0,47,47.12,2.5,2.5,0,0,0,44.49,44.63Z"/></svg>