<svg id="Layer_1" data-name="Layer 1" xmlns="http://www.w3.org/2000/svg" viewBox="0 0 64 64"><defs><style>.cls-1{fill:#0071c7;}</style></defs><path class="cls-1" d="M55.92,39.46a1,1,0,0,1-1-.86A6,6,0,0,0,49,33.46a5.82,5.82,0,0,0-.93.07,1,1,0,0,1-1.14-.8,4,4,0,0,0-7.87,0,1,1,0,0,1-1.14.8,6,6,0,0,0-6.85,5.07,1,1,0,0,1-2-.28,8,8,0,0,1,8.25-6.85,6,6,0,0,1,11.31,0H49a8,8,0,0,1,7.91,6.86,1,1,0,0,1-.85,1.13Z"/><path class="cls-1" d="M48.08,49.46H15.92A9.93,9.93,0,0,1,6,39.54a2.07,2.07,0,0,1,2-2.08H56a2,2,0,0,1,2,2A10,10,0,0,1,48.08,49.46ZM8,39.46s0,0,0,.08a7.93,7.93,0,0,0,7.92,7.92H48.08a8,8,0,0,0,7.92-8Z"/><path class="cls-1" d="M19.76,39.45a1,1,0,0,1-1-1v-4.9a1,1,0,0,1,2,0v4.9A1,1,0,0,1,19.76,39.45Z"/><path class="cls-1" d="M19.28,34.4a.94.94,0,0,1-.47-.12A7.61,7.61,0,0,1,14,31.92C9.1,27,9.25,16,9.26,15.52a1,1,0,0,1,1-1H28.63a1,1,0,0,1,1,1c0,.47.16,11.53-4.7,16.48A7.67,7.67,0,0,1,19.28,34.4Zm-8-17.86c.08,2.73.62,10.43,4.11,14a5.71,5.71,0,0,0,4.24,1.79,1,1,0,0,1,.3,0,5.72,5.72,0,0,0,3.58-1.76c3.5-3.58,4-11.33,4.12-14.07Z"/><path class="cls-1" d="M27,25.45H11.38a1,1,0,1,1,0-2H27a1,1,0,0,1,0,2Z"/></svg>