<svg id="Layer_1" data-name="Layer 1" xmlns="http://www.w3.org/2000/svg" viewBox="0 0 64 64"><defs><style>.cls-1{fill:#0071c7;}</style></defs><path class="cls-1" d="M31.8,53.06H20.74a1,1,0,0,1-.9-.57L12.23,36.44a1,1,0,0,1,.39-1.29L31.28,23.83a1,1,0,0,1,1.52.86V52.06A1,1,0,0,1,31.8,53.06Zm-10.43-2H30.8V26.46L14.43,36.39Z"/><path class="cls-1" d="M43.67,53.06H31.8a1,1,0,0,1-1-1V24.69a1,1,0,0,1,1.51-.86L51.38,35.15a1,1,0,0,1,.4,1.27l-7.2,16A1,1,0,0,1,43.67,53.06Zm-10.87-2H43l6.57-14.65-16.79-10Z"/><path class="cls-1" d="M47.8,53.06h-33a1,1,0,1,1,0-2h33a1,1,0,0,1,0,2Z"/><path class="cls-1" d="M45.83,33.67a1,1,0,0,1-1-1v-12a.15.15,0,0,0-.15-.14h-25a.14.14,0,0,0-.14.14v12a1,1,0,0,1-2,0v-12a2.14,2.14,0,0,1,2.14-2.14h25a2.14,2.14,0,0,1,2.15,2.14v12A1,1,0,0,1,45.83,33.67Z"/><path class="cls-1" d="M40.23,20.14a1,1,0,0,1-1-1v-6.2h-14v6.2a1,1,0,0,1-2,0V12.62a1.68,1.68,0,0,1,1.67-1.68h14.7a1.68,1.68,0,0,1,1.68,1.68v6.52A1,1,0,0,1,40.23,20.14Z"/></svg>