<svg id="Layer_1" data-name="Layer 1" xmlns="http://www.w3.org/2000/svg" viewBox="0 0 64 64"><defs><style>.cls-1{fill:#0071c7;}</style></defs><path class="cls-1" d="M47,56.52H43.36A2.39,2.39,0,0,1,41,54.14V52.31H23v1.83a2.39,2.39,0,0,1-2.38,2.38H17a2.39,2.39,0,0,1-2.38-2.38V52.31h-2a1.69,1.69,0,0,1-1.69-1.69V46.8a1.69,1.69,0,0,1,1.69-1.69h.18V39a3.76,3.76,0,0,1,3.48-3.75V10.33A1.71,1.71,0,0,1,17,8.92l1.75-1.16a1.7,1.7,0,0,1,1.74-.07,1.67,1.67,0,0,1,.89,1.48v4.4a5.83,5.83,0,0,1,4-1.63H38.53a5.82,5.82,0,0,1,4,1.64V9.17a1.67,1.67,0,0,1,.89-1.48,1.7,1.7,0,0,1,1.74.07L47,8.92a1.71,1.71,0,0,1,.76,1.41V35.26A3.76,3.76,0,0,1,51.2,39v6.1h.18a1.69,1.69,0,0,1,1.69,1.69v3.82a1.69,1.69,0,0,1-1.69,1.69h-2v1.83A2.39,2.39,0,0,1,47,56.52ZM22,50.31H42a1,1,0,0,1,1,1v2.83a.38.38,0,0,0,.38.38H47a.38.38,0,0,0,.38-.38V51.31a1,1,0,0,1,1-1h2.67v-3.2H50.2a1,1,0,0,1-1-1V39a1.76,1.76,0,0,0-1.76-1.76h-.72a1,1,0,0,1-1-1V10.5l-1.14-.75V17.5a1,1,0,0,1-1.93.35l-.53-1.41a3.84,3.84,0,0,0-3.59-2.5H25.46a3.83,3.83,0,0,0-3.6,2.52l-.5,1.38a1,1,0,0,1-1.94-.34V9.75l-1.14.75V36.25a1,1,0,0,1-1,1h-.72A1.76,1.76,0,0,0,14.8,39v7.1a1,1,0,0,1-1,1h-.87v3.2H15.6a1,1,0,0,1,1,1v2.83a.38.38,0,0,0,.38.38h3.66a.38.38,0,0,0,.38-.38V51.31A1,1,0,0,1,22,50.31Zm29.36-3.2h0Z"/><path class="cls-1" d="M37,38.63H27a1,1,0,1,1,0-2H37a1,1,0,0,1,0,2Z"/><path class="cls-1" d="M50.2,47.11H13.8a1,1,0,1,1,0-2H50.2a1,1,0,0,1,0,2Z"/><path class="cls-1" d="M48.4,52.31H15.6a1,1,0,1,1,0-2H48.4a1,1,0,1,1,0,2Z"/><path class="cls-1" d="M46.72,37.25h-6a1,1,0,0,1-.93-.65l-.39-1.05A2.61,2.61,0,0,0,37,33.85H27a2.62,2.62,0,0,0-2.45,1.71l-.37,1a1,1,0,0,1-.94.66h-6a1,1,0,0,1,0-2h5.26l.13-.37a4.63,4.63,0,0,1,4.33-3H37a4.61,4.61,0,0,1,4.31,3l.15.4h5.26a1,1,0,0,1,0,2Z"/><path class="cls-1" d="M37,42.22H27a1,1,0,0,1,0-2H37a1,1,0,1,1,0,2Z"/><path class="cls-1" d="M43.58,29.15H20.42a1,1,0,0,1-1-1V21.34a1,1,0,0,1,1-1H43.58a1,1,0,0,1,1,1v6.81A1,1,0,0,1,43.58,29.15Zm-22.16-2H42.58V22.34H21.42Z"/><path class="cls-1" d="M44.62,44.24a3,3,0,1,1,3-3A3,3,0,0,1,44.62,44.24Zm0-4a1,1,0,1,0,1,1A1,1,0,0,0,44.62,40.27Z"/><path class="cls-1" d="M19.38,44.24a3,3,0,1,1,3-3A3,3,0,0,1,19.38,44.24Zm0-4a1,1,0,1,0,1,1A1,1,0,0,0,19.38,40.27Z"/></svg>