<svg id="Layer_1" data-name="Layer 1" xmlns="http://www.w3.org/2000/svg" width="160" height="160" viewBox="0 0 160 160"><defs><style>.cls-1{fill:none;stroke:#0071c7;stroke-linecap:round;stroke-linejoin:round;stroke-width:6px;}</style></defs><path class="cls-1" d="M87.41,42.72l-5.1-5.44m-5.09,5.44,5.09-5.44m.06,2.2V53.94M69.92,27.53h43.41a1.59,1.59,0,0,1,1.59,1.59v43.4a1.59,1.59,0,0,1-1.59,1.59H69.92a1.59,1.59,0,0,1-1.58-1.59V29.12A1.59,1.59,0,0,1,69.92,27.53ZM21.58,120.69H138.41a1.59,1.59,0,0,1,1.59,1.59v8.6a1.59,1.59,0,0,1-1.59,1.59H21.58A1.59,1.59,0,0,1,20,130.88v-8.6A1.59,1.59,0,0,1,21.58,120.69ZM99.06,89.3,94,83.88M88.87,89.3,94,83.88m0,2.18v14.48M81.58,74.11H125a1.59,1.59,0,0,1,1.58,1.59v43.4a1.59,1.59,0,0,1-1.58,1.59H81.58A1.59,1.59,0,0,1,80,119.1V75.7A1.59,1.59,0,0,1,81.58,74.11ZM52.48,89.3l-5.1-5.42M42.29,89.3l5.09-5.42m.06,2.18v14.48M35,74.11H78.41A1.59,1.59,0,0,1,80,75.7v43.4a1.59,1.59,0,0,1-1.58,1.59H35a1.59,1.59,0,0,1-1.59-1.59V75.7A1.59,1.59,0,0,1,35,74.11Z"/></svg>