<?xml version="1.0" encoding="utf-8"?>
<!-- Generator: Adobe Illustrator 26.0.2, SVG Export Plug-In . SVG Version: 6.00 Build 0)  -->
<svg version="1.1" id="Layer_1" xmlns="http://www.w3.org/2000/svg" xmlns:xlink="http://www.w3.org/1999/xlink" x="0px" y="0px"
	 viewBox="0 0 160 160" style="enable-background:new 0 0 160 160;" xml:space="preserve">
<style type="text/css">
	.st0{fill:none;stroke:#0071C7;stroke-width:5;stroke-linecap:round;stroke-linejoin:round;}
</style>
<g>
	<path class="st0" d="M71.9,27.5v19.2l8.1-8.1l8.1,8.1V27.5 M55.5,27.5h48.9c1,0,1.8,0.8,1.8,1.8v48.9c0,1-0.8,1.8-1.8,1.8H55.5
		c-1,0-1.8-0.8-1.8-1.8V29.3C53.8,28.3,54.6,27.5,55.5,27.5z M81.8,80h48.9c1,0,1.8,0.8,1.8,1.8v48.9c0,1-0.8,1.8-1.8,1.8H81.8
		c-1,0-1.8-0.8-1.8-1.8V81.8C80,80.8,80.8,80,81.8,80z M98.1,80v19.2l8.1-8.1l8.1,8.1V80 M45.6,80v19.2l8.1-8.1l8.1,8.1V80 M29.3,80
		h48.9c1,0,1.8,0.8,1.8,1.8v48.9c0,1-0.8,1.8-1.8,1.8H29.3c-1,0-1.8-0.8-1.8-1.8V81.8C27.5,80.8,28.3,80,29.3,80z"/>
</g>
</svg>
