<svg id="Layer_1" data-name="Layer 1" xmlns="http://www.w3.org/2000/svg" width="160" height="160" viewBox="0 0 160 160"><defs><style>.cls-1{fill:none;stroke:#0071c7;stroke-linecap:round;stroke-linejoin:round;stroke-width:6px;}.cls-2{fill:#0070c7;}</style></defs><path class="cls-1" d="M80,50.18a10.36,10.36,0,0,0,2.34-.26,10,10,0,0,0,7.4-7.4,10.17,10.17,0,0,0-1-7.29,10,10,0,0,0-5.36-4.51A4.8,4.8,0,0,1,80,26.25V20.16a0,0,0,0,0,0,0v6.09a4.85,4.85,0,0,0,3.38,4.52,10,10,0,0,1,5.33,4.49,10.11,10.11,0,0,1,1,7.25A10,10,0,0,1,70,40.16a0,0,0,0,0,0,0,10,10,0,0,0,10,10Zm55,20-55-20-55,20Zm-20,52.53s0,0,0,0v-35a0,0,0,1,1,0,0v35S115,122.69,115,122.69Zm-17.5,0s0,0,0,0v-35a0,0,0,1,1,0,0v35S97.51,122.69,97.5,122.69Zm-17.5,0s0,0,0,0v-35a0,0,0,1,1,0,0v35S80,122.69,80,122.69Zm-17.5,0s0,0,0,0v-35a0,0,0,1,1,0,0v35S62.51,122.69,62.5,122.69Zm-17.5,0a0,0,0,0,1,0,0v-35a0,0,0,0,1,.05,0v35S45,122.69,45,122.69Zm87.91,17.47H27.09A2.09,2.09,0,0,1,25,138.07V70.16H135v67.91A2.09,2.09,0,0,1,132.91,140.16Z"/><path class="cls-2" d="M85.11,18.39A5.11,5.11,0,1,0,80,23.51a5.11,5.11,0,0,0,5.11-5.12"/></svg>