<svg id="Layer_1" data-name="Layer 1" xmlns="http://www.w3.org/2000/svg" width="160" height="160" viewBox="0 0 160 160"><defs><style>.cls-1{fill:none;stroke:#0070c7;stroke-linecap:round;stroke-linejoin:round;stroke-width:6px;}</style></defs><path class="cls-1" d="M27,61.08l2.82-2.69M29.7,74.46,55.9,48.6m75,20.21L106.17,44.1m6.15,43.27,30-30M117.61,32.65,96.29,54.57S82.14,44.79,74.15,51a103.06,103.06,0,0,1-10.7,7.25A6.75,6.75,0,0,0,69.7,70.15c.12-.06.24-.11.36-.18l14-7.31M48.91,111.31l-5.16-5.16a2.28,2.28,0,0,1,0-3.22L59.13,87.55a2.28,2.28,0,0,1,3.22,0l5.16,5.16a2.28,2.28,0,0,1,0,3.22L52.13,111.31A2.28,2.28,0,0,1,48.91,111.31Zm-6.84-9.92-5.16-5.16a2.28,2.28,0,0,1,0-3.22l12.3-12.3a2.28,2.28,0,0,1,3.22,0l5.16,5.16a2.28,2.28,0,0,1,0,3.22l-12.3,12.3A2.28,2.28,0,0,1,42.07,101.39Zm16.76,16.77L53.67,113a2.28,2.28,0,0,1,0-3.22L66,97.48a2.28,2.28,0,0,1,3.22,0l5.16,5.16a2.28,2.28,0,0,1,0,3.22l-12.3,12.3A2.28,2.28,0,0,1,58.83,118.16Zm9.72,8.43-5.16-5.16a2.28,2.28,0,0,1,0-3.22l10-10.06a2.29,2.29,0,0,1,3.23,0l5.16,5.16a2.28,2.28,0,0,1,0,3.22L71.77,126.59A2.28,2.28,0,0,1,68.55,126.59Zm-26-39.25L17.67,62.43M43.88,36.57l12,12s12.39-3.2,24.71.41m3.5,13.68,30,28.28m-29.8,20.44,5.59,5.59a6.21,6.21,0,0,1-8.78,8.77l-4.3-4.14M95,105.31l10,10a5.93,5.93,0,1,1-8.39,8.38l-10-9.94m19.08-14.4,9.37,9.37a5.93,5.93,0,0,1-8.37,8.39l0,0-9.36-9.36M114.08,90.9l5.83,5.83a5.91,5.91,0,0,1,0,8.37l0,0a5.92,5.92,0,0,1-8.37,0L107.47,101"/></svg>