<svg id="Layer_1" data-name="Layer 1" xmlns="http://www.w3.org/2000/svg" width="320" height="160" viewBox="0 0 320 160"><defs><style>.cls-1{fill:none;stroke:#0071c7;stroke-linecap:round;stroke-linejoin:round;stroke-width:6px;}</style></defs><line class="cls-1" x1="289.68" y1="103.38" x2="303.82" y2="103.38"/><path class="cls-1" d="M255.1,47H231.44V73.92H266ZM263,120H231.44V103.38H266M294.63,120h16.75v-13.3l-7.56-3.31V81.77L266,73.92v31.56"/><path class="cls-1" d="M295,115.41a16.2,16.2,0,1,1-16.2-16.2A16.2,16.2,0,0,1,295,115.41Z"/><path class="cls-1" d="M56.66,110.84a16,16,0,0,1,0,9.15m-31.07-9.15a16.19,16.19,0,0,1,31.07,0m0,9.15a16.19,16.19,0,0,1-31.07,0m0-9.15a16.19,16.19,0,0,0,0,9.15m143.61-9.15a16.19,16.19,0,0,1,0,9.15m0,0a16.19,16.19,0,0,1-31.07,0m0-9.15a16,16,0,0,0,0,9.15m0-9.15a16.19,16.19,0,0,1,31.07,0m-69.94,0a16.19,16.19,0,0,1,0,9.15m-31.07-9.15a16,16,0,0,0,0,9.15m31.07,0a16.19,16.19,0,0,1-31.07,0m0-9.15a16.19,16.19,0,0,1,31.07,0m85.24,0H169.2m-101,0H56.66m81.47,0H99.26m-73.67,0h-17m175.88,0V28.4H8.62v82.44m0,0V120h17m31.07,0H68.19m116.31-9.15V120H169.2m-69.94,0h38.87m78.27,0H201.1a4.58,4.58,0,0,1,0-9.15h15.3a4.58,4.58,0,0,1,0,9.15ZM199.12,69.1H184.5V35.8h14.62Zm16.59-40.71h9.49L243.92,47H215.71Zm15.73,45.53h0V47H215.49A6.05,6.05,0,0,0,209.44,53v50.35H266V73.92Zm9.12,10.67h6.14"/></svg>