<?xml version="1.0" encoding="utf-8"?>
<!-- Generator: Adobe Illustrator 26.3.1, SVG Export Plug-In . SVG Version: 6.00 Build 0)  -->
<svg version="1.1" id="Layer_1" xmlns="http://www.w3.org/2000/svg" xmlns:xlink="http://www.w3.org/1999/xlink" x="0px" y="0px"
	 viewBox="0 0 125 125" style="enable-background:new 0 0 125 125;" xml:space="preserve">
<style type="text/css">
	.st0{fill:#0073CE;}
</style>
<path id="XMLID_606_" class="st0" d="M100.07,28.93c-7.81-1.2-22.59-4.45-33.8-12.75c-1.32-0.98-2.71-1.31-4.13-0.97
	c-1.07,0.25-1.86,0.82-2.49,1.27c-0.11,0.08-0.22,0.15-0.31,0.22c-9.58,6.56-20.38,10.49-32.09,11.66
	c-1.32,0.13-3.22,0.49-4.61,2.02c-1.38,1.53-1.54,3.47-1.54,4.79c-0.01,10.11,0.79,18.49,2.52,26.37
	c1.13,5.15,2.67,10.04,4.58,14.53c1.95,4.6,4.35,8.92,7.12,12.84c2.82,3.99,6.11,7.69,9.78,10.98c3.71,3.33,7.92,6.35,12.5,8.96
	c1.17,0.67,2.98,1.55,5.17,1.55c1.75,0,3.48-0.57,5.13-1.7c6.58-4.5,12.33-9.69,17.1-15.44c4.47-5.39,8.27-11.54,11.28-18.29
	c7.6-17,8.16-31.5,8.46-39.29c0.01-0.36,0.03-0.71,0.04-1.05C104.9,31.83,102.87,29.36,100.07,28.93z M99.06,34.36
	c-1.26,32.35-12.19,54.5-34.37,69.67l0,0c-1.43,0.98-2.43,0.95-4.27-0.1c-16.68-9.51-26.9-23.77-31.25-43.59
	c-1.64-7.47-2.4-15.47-2.39-25.16c0-0.57,0.06-0.85,0.1-0.97c0.11-0.05,0.39-0.13,0.94-0.19c6.3-0.63,12.41-2.01,18.16-4.09
	c5.79-2.1,11.37-4.97,16.57-8.54c0.14-0.1,0.27-0.19,0.4-0.28c0.05-0.03,0.13-0.09,0.21-0.15c5.19,3.86,10.97,6.95,17.2,9.19
	C86.06,32.2,92.35,33.62,99.06,34.36z"/>
<path class="st0" d="M60.59,90.25c-0.24,0-0.43-0.19-0.43-0.43v-5.26c0-0.55-0.46-1.04-1.02-1.1c-2.25-0.23-4.41-0.7-6.41-1.4
	c-2.39-0.83-4.51-2.01-6.31-3.51c-0.14-0.12-0.19-0.33-0.12-0.5l1.99-4.8c0.05-0.12,0.26-0.26,0.4-0.26c0.1,0,0.19,0.03,0.26,0.09
	c1.88,1.47,3.91,2.6,6.03,3.34c2.16,0.75,4.65,1.13,7.39,1.13c3.11,0,5.44-0.59,6.93-1.75c1.47-1.14,2.21-2.62,2.21-4.41
	c0-1.51-0.51-2.72-1.53-3.6c-1.04-0.91-2.85-1.65-5.38-2.2l-6.25-1.34c-3.69-0.82-6.51-2.19-8.37-4.07
	c-1.88-1.9-2.83-4.46-2.83-7.62c0-2.36,0.56-4.48,1.66-6.31c1.1-1.82,2.66-3.33,4.64-4.49c1.67-0.97,3.62-1.65,5.8-2.01
	c0.51-0.08,0.9-0.55,0.9-1.09v-5.45c0-0.24,0.19-0.43,0.43-0.43h4.79c0.24,0,0.43,0.19,0.43,0.43v5.45c0,0.52,0.43,1,0.97,1.09
	c1.69,0.27,3.37,0.74,4.99,1.41c2.02,0.84,3.78,2,5.25,3.46c0.1,0.1,0.15,0.35,0.09,0.47l-1.93,4.62c-0.05,0.13-0.26,0.26-0.39,0.26
	c-0.11,0-0.22-0.04-0.3-0.12c-1.51-1.45-3.24-2.55-5.14-3.27c-1.94-0.73-4.1-1.1-6.44-1.1c-2.67,0-4.83,0.63-6.43,1.88
	c-1.85,1.44-2.78,3.85-2.36,6.15c0.19,1.03,0.65,1.89,1.37,2.56c1.02,0.94,2.62,1.65,4.89,2.17l6.25,1.34c3.93,0.82,6.9,2.17,8.85,4
	c1.96,1.86,2.96,4.34,2.96,7.38c0,3.44-1.22,6.29-3.63,8.48c-2.12,1.92-4.83,3.19-8.07,3.76c-0.54,0.09-0.93,0.55-0.93,1.07v5.54
	c0,0.24-0.19,0.43-0.43,0.43H60.59z"/>
</svg>
