<svg class="imgsvg" xmlns="http://www.w3.org/2000/svg" width="16" height="16" viewBox="0 0 16 16">
            <path fill-rule="evenodd" clip-rule="evenodd" d="M4.00002 1.33333H9.33335L13.3334 5.33333V13.3333C13.3334 14.0667 12.7334 14.6667 12 14.6667H3.99335C3.26002 14.6667 2.66669 14.0667 2.66669 13.3333L2.67335 2.66666C2.67335 1.93333 3.26669 1.33333 4.00002 1.33333ZM4.00002 2.66666V13.3333H12V5.99999H8.66669V2.66666H4.00002Z" />
            <path fill-rule="evenodd" clip-rule="evenodd" d="M6 7.33333C6 6.96514 6.29848 6.66667 6.66667 6.66667H10V8H7.33333V8.66667H9.33333C9.70152 8.66667 10 8.96514 10 9.33333V11.3333C10 11.7015 9.70152 12 9.33333 12H6V10.6667H8.66667V10H6.66667C6.29848 10 6 9.70152 6 9.33333V7.33333Z" />
            <path d="M7.33333 6H8.66667V7.33333H7.33333V6Z" />
            <path d="M7.33333 11.3333H8.66667V12.6667H7.33333V11.3333Z" />
          </svg>