<svg class="util-icon" xmlns="http://www.w3.org/2000/svg" width="16" height="16" viewBox="0 0 16 16" fill="none">
            <mask id="mask0_1065_4929" style="mask-type:alpha" maskUnits="userSpaceOnUse" x="0" y="2" width="16" height="12">
              <path fill-rule="evenodd" clip-rule="evenodd" d="M13.3333 5.33334H11.3333V2.66667H1.99996C1.26663 2.66667 0.666626 3.26667 0.666626 4.00001V11.3333H1.99996C1.99996 12.44 2.89329 13.3333 3.99996 13.3333C5.10663 13.3333 5.99996 12.44 5.99996 11.3333H9.99996C9.99996 12.44 10.8933 13.3333 12 13.3333C13.1066 13.3333 14 12.44 14 11.3333H15.3333V8L13.3333 5.33334ZM13 6.33334L14.3066 8.00001H11.3333V6.33334H13ZM3.33329 11.3333C3.33329 11.7 3.63329 12 3.99996 12C4.36663 12 4.66663 11.7 4.66663 11.3333C4.66663 10.9667 4.36663 10.6667 3.99996 10.6667C3.63329 10.6667 3.33329 10.9667 3.33329 11.3333ZM5.47996 10C5.11329 9.59334 4.59329 9.33334 3.99996 9.33334C3.40663 9.33334 2.88663 9.59334 2.51996 10H1.99996V4.00001H9.99996V10H5.47996ZM11.3333 11.3333C11.3333 11.7 11.6333 12 12 12C12.3666 12 12.6666 11.7 12.6666 11.3333C12.6666 10.9667 12.3666 10.6667 12 10.6667C11.6333 10.6667 11.3333 10.9667 11.3333 11.3333Z" fill="white" />
            </mask>
            <g mask="url(#mask0_1065_4929)">
              <rect width="16" height="16" fill="#36383A" />
            </g>
          </svg>