<svg id="Layer_1" data-name="Layer 1" xmlns="http://www.w3.org/2000/svg" viewBox="0 0 600.09 600"><defs><style>.cls-1{fill:#00a3e0;}</style></defs><path class="cls-1" d="M2036.11,586.19c-20.55-26-60.22,5.33-39.67,31.33l125.11,158.21c-2.13,2.34,24.27,21.68,41.16-1.88L2348,539.65c107.8,163.73-8.78,385.92-208.15,385.92-221.22,0-332.55-268.68-176.1-425.15a249.55,249.55,0,0,1,266-56.3c31.06,12,49.33-35.18,18.25-47.2-195-75.45-408,68-408,279.61,0,266.17,323.36,400.46,511.82,212,111.67-111.67,117.38-277.46,17.18-405.19-10.27-13.08-29.69-14.41-40.45-.82L2141.38,719.3,2036.11,586.19Z" transform="translate(-1839.98 -376.56)"/></svg>