<svg id="Layer_1" data-name="Layer 1" xmlns="http://www.w3.org/2000/svg" viewBox="0 0 674.74 600"><defs><style>.cls-1{fill:#00a3e0;}</style></defs><path class="cls-1" d="M550,376.56c-59.91,0-114.22,11.78-154.86,32.1s-70.05,50.64-70.05,88.09V856.61c0,37.09,29.08,67.26,69.82,87.62S490.06,976.56,550,976.56c50.41,0,96.79-8.61,134.48-23.43a216,216,0,0,0,97.93,23.43c119.9,0,217.42-97.52,217.42-217.41S902.35,541.73,782.45,541.73c-2.58,0-5.18.14-7.73.23V496.75c0-37.45-29.17-67.77-69.82-88.09S610,376.56,550,376.56Zm0,30.22c56,0,106.65,11.62,142,29.29s53.18,40.16,53.18,60.68c-7,31.84-30.3,49.36-53.18,60.44-35.33,17.67-85.95,29.29-142,29.29s-106.64-11.62-142-29.29c-26.18-13.55-50-34.22-53.19-60.44,0-20.52,17.86-43,53.19-60.68S494,406.78,550,406.78ZM355.12,557.66c11.1,10.24,24.82,19.32,40.06,27C435.82,604.93,490.13,616.7,550,616.7a419.2,419.2,0,0,0,74-6.56A218.41,218.41,0,0,0,581.9,675c-10.37.91-21,1.64-31.86,1.64-55.94,0-106.48-11.66-141.74-29.29s-53.18-39.8-53.18-60.68Zm427.33,14.06A187.43,187.43,0,1,1,595,759.15,187.21,187.21,0,0,1,782.45,571.72ZM355.12,647.63c11,10.15,24.66,19.13,39.83,26.71,40.71,20.35,95.1,32.33,155.09,32.33,7.33,0,14.43-.34,21.56-.71A217.48,217.48,0,0,0,565,759.14c0,2.42.15,4.87.23,7.27-5,.19-10.07.23-15.23.23-55.94,0-106.48-11.66-141.74-29.29s-53.18-39.79-53.18-60.67Zm0,90c11,10.16,24.66,19.13,39.83,26.71,40.71,20.36,95.1,32.33,155.09,32.33,6.15,0,12.27-.18,18.28-.46a215.62,215.62,0,0,0,19,58.57c-12.09,1.2-24.46,1.87-37.25,1.87-55.94,0-106.48-11.65-141.74-29.28s-53.18-39.81-53.18-60.69Zm0,90c11,10.15,24.66,19.13,39.83,26.71,40.71,20.35,95.1,32.33,155.09,32.33a426.8,426.8,0,0,0,54.12-3.28,218.16,218.16,0,0,0,47.56,49.2c-29.57,8.69-64.38,14.05-101.68,14.05-55.92,0-106.46-11.65-141.74-29.28s-53.18-39.81-53.18-60.68Z" transform="translate(-325.13 -376.56)"/></svg>