<svg id="Layer_1" data-name="Layer 1" xmlns="http://www.w3.org/2000/svg" viewBox="0 0 73.66 68.51"><defs><style>.cls-1{fill:#c8c8c8;}</style></defs><path class="cls-1" d="M13.83,45.47V18.16a2.33,2.33,0,0,0,.2-.34,3,3,0,0,1,3-2q12.71,0,25.41,0a3.32,3.32,0,0,1,1.25.25,3,3,0,0,1,1.89,3.14q0,12.68,0,25.35a71.05,71.05,0,0,1-1.21,13.57,38.37,38.37,0,0,1-6.41,15.62,26,26,0,0,1-7.09,6.69A25.59,25.59,0,0,1,17,84.28a3,3,0,0,1-2.92-2l-.21-.48V68.41a13.28,13.28,0,0,1,1-1.62,3.2,3.2,0,0,1,2.48-.85,6.55,6.55,0,0,0,3.88-1.47,11.65,11.65,0,0,0,3.57-5.82,40.9,40.9,0,0,0,1.57-10.13c0-.58-.14-.73-.7-.73-2.82,0-5.65,0-8.47,0a3,3,0,0,1-2.48-1A11.22,11.22,0,0,1,13.83,45.47Z" transform="translate(-13.83 -15.8)"/><path class="cls-1" d="M87.5,18.16V47.58c0,.2-.07.39-.08.58a72.06,72.06,0,0,1-1.19,10.15,38.47,38.47,0,0,1-6.34,15.41,25.55,25.55,0,0,1-9.22,7.93,27.27,27.27,0,0,1-11.41,2.66,3.22,3.22,0,0,1-3.48-3.39c.08-2.1,0-4.2,0-6.3s0-4,0-6a2.67,2.67,0,0,1,1-1.93,3.72,3.72,0,0,1,2.47-.76,6.77,6.77,0,0,0,3.89-1.47,11.09,11.09,0,0,0,3.38-5.13,39.32,39.32,0,0,0,1.85-10.86c0-.57-.16-.69-.69-.68q-4.35,0-8.7,0a3,3,0,0,1-3.24-3.22q0-12.76,0-25.53a3.39,3.39,0,0,1,.26-1.42,3.07,3.07,0,0,1,3-1.82c8.18,0,16.36,0,24.53,0,1.83,0,3.17.53,3.82,2.34Z" transform="translate(-13.83 -15.8)"/></svg>