<?xml version="1.0" encoding="utf-8"?>
<!-- Generator: Adobe Illustrator 25.4.1, SVG Export Plug-In . SVG Version: 6.00 Build 0)  -->
<svg version="1.1" id="Layer_1" xmlns="http://www.w3.org/2000/svg" xmlns:xlink="http://www.w3.org/1999/xlink" x="0px" y="0px"
	 viewBox="0 0 160 160" style="enable-background:new 0 0 160 160;" xml:space="preserve">
<style type="text/css">
	.st0{fill:none;stroke:#0071C7;stroke-width:6;stroke-linecap:round;stroke-linejoin:round;}
	.st1{fill:#0071C7;}
</style>
<g>
	<path class="st0" d="M107.4,107.3c-2.8,2.8-6.9,6.2-9.6,7.8l29,29c4.6,4.6,12.4,4.2,17-0.4c4.6-4.6,5-12.4,0.4-17l-29-29
		C113.6,100.4,110.2,104.5,107.4,107.3z M95.8,40.4c15.3,15.3,15.3,40.1,0,55.4s-40.1,15.3-55.4,0s-15.3-40.1,0-55.4
		S80.5,25.1,95.8,40.4z M107.3,28.9c21.7,21.7,21.7,56.8,0,78.4c-21.7,21.7-56.8,21.7-78.4,0c-21.7-21.7-21.7-56.8,0-78.4
		C50.5,7.3,85.7,7.3,107.3,28.9z"/>
	<path class="st1" d="M77.1,71.5c-0.5-1-1.3-1.8-2.2-2.4c-0.8-0.6-1.8-1.1-2.8-1.6c-1-0.4-1.9-0.7-2.9-1l-2.8-0.9
		c-0.8-0.3-1.6-0.6-2.2-0.9c-0.5-0.3-1-0.7-1.3-1.1c-0.2-0.3-0.4-0.8-0.4-1.3c0-0.4,0.1-0.6,0.3-0.9c0.2-0.3,0.5-0.6,0.9-0.8
		c0.5-0.2,1-0.4,1.6-0.6c1-0.2,2-0.2,3.1-0.1c0.5,0,1,0.1,1.5,0.2c0.5,0.1,1,0.2,1.5,0.3c0.5,0.1,1,0.2,1.4,0.3
		c1,0.3,2.2,0.1,2.9-0.7c0.4-0.5,0.7-1.1,0.7-1.8c0-0.6-0.2-1.1-0.5-1.6c-0.4-0.5-0.9-0.9-1.5-1.1c-1-0.4-2.3-0.7-3.5-0.9
		c-0.6-0.1-2.1-0.2-2.1-0.2v-0.9c0-0.8-0.1-1.5-0.7-1.9c-1-0.8-2.9-0.7-3.9,0c-0.6,0.5-1.5,1.1-1.5,1.9v1c0,0.1-0.7,0.3-1.4,0.6
		c-1.1,0.4-1.8,1-2.7,1.6c-0.9,0.7-1.5,1.6-2,2.6c-0.6,1-0.7,2.2-0.7,3.5c0,1.3,0.3,2.4,0.7,3.4c0.4,0.9,1.1,1.7,1.8,2.4
		c0.7,0.6,1.5,1.2,2.5,1.6c0.8,0.4,1.7,0.7,2.7,1c0.9,0.3,1.8,0.6,2.7,0.9c0.9,0.3,1.7,0.6,2.5,0.9c0.4,0.2,0.9,0.4,1.2,0.6
		c0.3,0.2,0.6,0.4,0.8,0.6c0.2,0.2,0.3,0.4,0.4,0.7c0.1,0.2,0.1,0.5,0.1,0.8c0,0.5-0.1,0.8-0.3,1.1c-0.2,0.4-0.6,0.7-1,1
		c-0.5,0.3-1,0.5-1.6,0.7c-1.4,0.3-3,0.3-4.1,0.2c-0.6-0.1-1.1-0.1-1.6-0.2c-0.5-0.1-0.9-0.2-1.3-0.3l-1.4-0.4
		c-1-0.3-2.2-0.1-2.9,0.7c-0.4,0.5-0.7,1.1-0.7,1.8c0,0.6,0.2,1.1,0.5,1.6c0.4,0.5,0.9,0.9,1.6,1.1c0.4,0.1,0.9,0.3,1.4,0.4
		c0.5,0.2,1.1,0.3,1.7,0.4c0.6,0.1,0.5,0.2,1.2,0.3c0.2,0-0.1,0.1-0.1,0.1V85c0,1,1.2,1.6,1.5,1.9c0.5,0.4,1.4,0.6,2,0.6
		s1.1-0.2,1.6-0.6c0.6-0.5,0.9-1.1,0.9-1.9v-1.2c0-0.1,1.8-0.3,2.5-0.6c1.2-0.4,2.4-1,3.3-1.7c1-0.7,1.8-1.7,2.3-2.7
		c0.6-1.1,0.9-2.3,0.9-3.7C77.9,73.7,77.6,72.5,77.1,71.5"/>
</g>
</svg>
