<?xml version="1.0" encoding="utf-8"?>
<!-- Generator: Adobe Illustrator 25.4.1, SVG Export Plug-In . SVG Version: 6.00 Build 0)  -->
<svg version="1.1" id="Layer_1" xmlns="http://www.w3.org/2000/svg" xmlns:xlink="http://www.w3.org/1999/xlink" x="0px" y="0px"
	 viewBox="0 0 160 160" style="enable-background:new 0 0 160 160;" xml:space="preserve">
<style type="text/css">
	.st0{fill:none;stroke:#0071C7;stroke-width:6;stroke-linecap:round;stroke-linejoin:round;}
</style>
<g>
	<path class="st0" d="M94.2,79.5c0,8-6.5,14.4-14.4,14.4c-8,0-14.4-6.5-14.4-14.4c0-8,6.5-14.4,14.4-14.4
		C87.7,65.1,94.2,71.6,94.2,79.5z M109,79.7c0-1.9-0.2-3.8-0.6-5.6l7.4-3.7l-6.7-13.6l-6.9,3.7c-3.7-4.2-9.5-7.4-13.7-8.9v-6.5H73.8
		v6.5c-6.3,1.5-11.2,4.6-15,8.9L51,56.8l-6.9,13.6l7.3,3.7c-0.4,1.8-0.6,3.7-0.6,5.6s0.2,3.8,0.5,5.6L44,89l6.7,13.6l8.1-3.7
		c3.7,4.2,8.6,7.4,14.9,8.9v7.1h14.8v-7.1c4.2-1.5,10-4.6,13.7-8.9l7.2,3.7L116,89l-7.5-3.7C108.9,83.5,109,81.6,109,79.7z
		 M153.5,70.5l-11.6,11.7l-14.3-11.5 M141.9,81.4c0-35.2-28.5-63.7-63.7-63.7c-25.9,0-48.1,15.4-58.1,37.6 M6.5,89.5l11.6-11.7
		l14.3,11.5 M18.1,78.6c0,35.2,28.5,63.7,63.7,63.7c25.9,0,48.1-15.4,58.1-37.6"/>
</g>
</svg>
