<?xml version="1.0" encoding="utf-8"?>
<!-- Generator: Adobe Illustrator 25.4.1, SVG Export Plug-In . SVG Version: 6.00 Build 0)  -->
<svg version="1.1" id="Layer_1" xmlns="http://www.w3.org/2000/svg" xmlns:xlink="http://www.w3.org/1999/xlink" x="0px" y="0px"
	 viewBox="0 0 160 160" style="enable-background:new 0 0 160 160;" xml:space="preserve">
<style type="text/css">
	.st0{fill:none;stroke:#0071C7;stroke-width:5;stroke-linecap:round;stroke-linejoin:round;}
</style>
<g>
	<path class="st0" d="M25,125h110 M25,115h110 M25,105h110 M120.5,42.5H39.6c0,5-2.1,6.9-7.1,7.6v14.5v14.5c5,0.7,7,1,7.1,6h80.9
		c0.3-2.5,3.2-5.2,7-5.9V64.6V50.1C123.6,49.3,120.7,47.5,120.5,42.5z M92.4,64.4c0,6.8-5.5,12.2-12.4,12.2s-12.4-5.5-12.4-12.2
		S73.2,52.2,80,52.2S92.4,57.7,92.4,64.4z M132.9,92.2H27.1c-1.4,0-2.5-1.1-2.5-2.5V37.5c0-1.4,1.1-2.5,2.5-2.5h105.8
		c1.4,0,2.5,1.1,2.5,2.5v52.2C135.4,91.1,134.3,92.2,132.9,92.2z"/>
</g>
</svg>
