<svg width="348" height="112" viewBox="0 0 348 112" fill="none" xmlns="http://www.w3.org/2000/svg">
<path d="M79.3024 14.509L62.7165 75.0575H53.0234L41.284 31.0418L29.4369 75.0575H19.7439L3.15796 14.509H12.7433L24.5904 58.4174L36.5452 14.509H46.0229L57.9776 58.4174L69.8247 14.509H79.3024V14.509Z" fill="black"/>
<path d="M83.7174 14.7238L93.3028 13.9723V28.7873L93.0874 34.3698H93.4105C97.9339 32.6521 101.488 31.9007 105.796 31.9007C113.551 31.9007 118.72 35.336 118.72 48.6481V75.0576H109.135V49.3996C109.135 41.4553 105.258 40.3817 100.734 40.3817C97.9339 40.3817 95.5645 41.0259 93.1951 41.67V75.0576H83.6097V14.7238H83.7174Z" fill="black"/>
<path d="M131.968 15.2607C136.922 15.2607 137.676 18.1593 137.676 21.38C137.676 24.6007 136.599 27.4993 131.968 27.4993C127.229 27.4993 126.367 24.6007 126.367 21.38C126.26 18.1593 127.121 15.2607 131.968 15.2607ZM127.121 32.4376H136.707V74.9504H127.121V32.4376Z" fill="black"/>
<path d="M144.784 32.4373H151.354L152.646 35.8727H153.292C155.769 33.7256 159.862 31.7932 165.032 31.7932C165.678 31.7932 166.324 31.7932 167.078 31.9006V41.2405C165.355 41.0258 163.524 40.7037 161.693 40.7037C159.108 40.7037 156.954 41.3478 154.477 42.4214V74.9501H144.892V32.4373H144.784Z" fill="black"/>
<path d="M171.063 75.0576V14.7238L180.649 13.9723V75.0576H171.063Z" fill="black"/>
<path d="M248.608 31.9005C262.178 31.9005 267.348 39.8448 267.348 54.0157C267.348 67.3278 262.501 75.9163 248.392 75.9163C234.284 75.9163 229.329 67.2205 229.329 54.0157C229.437 39.8448 235.037 31.9005 248.608 31.9005ZM257.655 54.0157C257.655 45.9641 256.362 39.4154 248.715 39.4154C240.961 39.4154 239.022 45.7494 239.022 54.0157C239.022 61.7453 240.638 68.4014 248.285 68.4014C255.931 68.4014 257.655 62.0674 257.655 54.0157Z" fill="black"/>
<path d="M291.472 31.9005C305.042 31.9005 310.211 39.8448 310.211 54.0157C310.211 67.3278 305.365 75.9163 291.256 75.9163C277.147 75.9163 272.193 67.2205 272.193 54.0157C272.301 39.8448 277.901 31.9005 291.472 31.9005ZM300.518 54.0157C300.518 45.9641 299.226 39.4154 291.579 39.4154C283.825 39.4154 281.886 45.7494 281.886 54.0157C281.886 61.7453 283.502 68.4014 291.148 68.4014C298.795 68.4014 300.518 62.0674 300.518 54.0157Z" fill="black"/>
<path d="M316.459 75.0576V14.7238L326.044 13.9723V75.0576H316.459Z" fill="black"/>
<path d="M188.402 32.4373H195.618L196.372 35.5507C199.28 33.9403 204.557 31.7932 209.296 31.7932C218.02 31.7932 224.374 38.1272 224.374 53.2643C224.374 68.1867 217.696 75.5942 206.496 75.5942C202.403 75.5942 197.88 74.7354 197.88 74.7354V94.2741L188.294 95.3476V32.4373H188.402ZM197.987 67.1132C200.68 67.2205 202.188 67.3279 204.988 67.3279C210.911 67.3279 214.789 64.2146 214.789 51.7613C214.789 43.2802 211.342 41.0258 205.096 41.0258C202.618 41.0258 200.357 41.4552 198.095 42.2067V67.1132H197.987Z" fill="black"/>
<path d="M235.792 6.3501C228.683 -1.91627 205.958 5.3839 180.649 22.7755V27.1771C202.943 11.3958 222.652 4.09564 228.252 10.537C235.253 18.696 217.805 45.2128 189.157 69.7972C160.509 94.3816 131.645 107.801 124.644 99.642C120.983 95.4551 123.998 86.2226 131.645 74.9502H127.121C117.536 89.1212 113.982 101.038 118.936 106.727C127.875 117.034 161.263 102.97 193.573 75.165C225.775 47.4673 244.731 16.6562 235.792 6.3501Z" fill="#EEB111"/>
<path d="M339.621 21.1651C336.174 21.1651 333.805 18.5885 333.805 15.2605C333.805 11.7178 336.498 9.35596 339.621 9.35596C342.744 9.35596 345.437 11.7178 345.437 15.2605C345.437 18.8032 342.744 21.1651 339.621 21.1651ZM339.621 10.4295C337.036 10.4295 335.097 12.4693 335.097 15.3679C335.097 18.0517 336.821 20.3062 339.621 20.3062C342.206 20.3062 344.144 18.2665 344.144 15.3679C344.144 12.4693 342.206 10.4295 339.621 10.4295ZM338.436 18.6959H337.359V12.1472H339.836C341.452 12.1472 342.206 12.684 342.206 14.0796C342.206 15.2605 341.452 15.7973 340.482 15.9046L342.313 18.8032H341.129L339.405 16.012H338.436V18.6959ZM339.621 14.9384C340.483 14.9384 341.129 14.8311 341.129 13.8649C341.129 13.1134 340.375 13.006 339.729 13.006H338.436V14.9384H339.621Z" fill="black"/>
</svg>
