<?xml version="1.0" encoding="UTF-8"?>
<svg id="major_deliverabels" data-name="major deliverabels" xmlns="http://www.w3.org/2000/svg" viewBox="0 0 400 400">
  <defs>
    <style>
      .cls-1 {
        fill: none;
        stroke: #0071c7;
        stroke-linecap: round;
        stroke-linejoin: round;
        stroke-width: 6px;
      }
    </style>
  </defs>
  <polyline class="cls-1" points="275.02 113.77 306.29 145.05 305.3 90.64"/>
  <polyline class="cls-1" points="305.3 90.64 329.44 114.78 328.68 72.77"/>
  <polyline class="cls-1" points="328.68 72.77 347.29 91.39 346.81 58.92"/>
  <polyline class="cls-1" points="306.3 145.06 275.02 113.78 276.02 168.19"/>
  <polyline class="cls-1" points="276.02 168.19 251.87 144.04 252.64 186.06"/>
  <polyline class="cls-1" points="252.64 186.06 234.02 167.44 234.51 199.91"/>
  <path class="cls-1" d="M230,302.4H75.07c-13.11,0-23.74,10.63-23.74,23.74s10.63,23.74,23.74,23.74H230c13.11,0,23.74-10.63,23.74-23.74s-10.63-23.74-23.74-23.74Z"/>
  <rect class="cls-1" x="108.1" y="288.78" width="88.87" height="13.62"/>
  <rect class="cls-1" x="97.29" y="319.33" width="110.48" height="13.62"/>
  <path class="cls-1" d="M228.5,195c-.91-3-2.44-5.42-5.42-5.42h-45.16c-2.98,0-5.42,2.44-5.42,5.42v42.86H86.63v-16.26H32.08v67.18H227.67l18.44-21.29v-8.3l-17.61-64.19Z"/>
  <path class="cls-1" d="M223.08,189.58c2.98,0,4.51,2.42,5.42,5.42l2.16,7.86,75.65-57.8-31.27-31.27-57.92,75.8h5.97Z"/>
  <line class="cls-1" x1="46.58" y1="174.58" x2="132.89" y2="237.85"/>
  <circle class="cls-1" cx="38.89" cy="168.94" r="9.54" transform="translate(-134.47 167.98) rotate(-76.72)"/>
  <path class="cls-1" d="M38.89,178.48c-2.67,0-5.08-1.1-6.81-2.87v45.98h13.62v-45.98c-1.73,1.77-4.14,2.87-6.81,2.87Z"/>
  <circle class="cls-1" cx="361.11" cy="58.92" r="9.54"/>
  <path class="cls-1" d="M361.11,68.45c-5.27,0-9.54-4.27-9.54-9.54,0-1.63,.41-3.17,1.13-4.51l-77.69,59.36,31.27,31.27,59.44-77.79c-1.37,.76-2.94,1.2-4.62,1.2Z"/>
  <line class="cls-1" x1="35.74" y1="159.94" x2="357.73" y2="50"/>
  <line class="cls-1" x1="370.65" y1="58.92" x2="370.65" y2="183.06"/>
  <path class="cls-1" d="M85.01,326.14c0,5.49-4.45,9.94-9.94,9.94s-9.94-4.45-9.94-9.94,4.45-9.94,9.94-9.94,9.94,4.45,9.94,9.94Z"/>
  <circle class="cls-1" cx="230" cy="326.14" r="9.94" transform="translate(-128.76 500.93) rotate(-80.78)"/>
  <rect class="cls-1" x="32.08" y="221.59" width="54.55" height="67.18"/>
  <g>
    <line class="cls-1" x1="47.66" y1="241.56" x2="71.04" y2="241.56"/>
    <line class="cls-1" x1="47.66" y1="255.19" x2="71.04" y2="255.19"/>
    <line class="cls-1" x1="47.66" y1="268.81" x2="71.04" y2="268.81"/>
  </g>
  <polyline class="cls-1" points="172.49 237.85 172.49 263.83 203.44 263.83 213.98 288.78"/>
  <polyline class="cls-1" points="172.55 237.85 212.3 237.85 218.71 253.01 244.38 252.89"/>
</svg>