<?xml version="1.0" encoding="UTF-8"?>
<svg id="global_relocatge" data-name="global relocatge" xmlns="http://www.w3.org/2000/svg" viewBox="0 0 400 400">
  <defs>
    <style>
      .cls-1 {
        fill: #0071c7;
      }

      .cls-2 {
        fill: none;
        stroke: #0071c7;
        stroke-linecap: round;
        stroke-linejoin: round;
        stroke-width: 7px;
      }
    </style>
  </defs>
  <g>
    <path class="cls-1" d="M195.16,316.19c-66.36,0-120.34-54.21-120.34-120.85s53.98-120.85,120.34-120.85,120.34,54.21,120.34,120.85-53.98,120.85-120.34,120.85Zm0-231.25c-60.62,0-109.94,49.53-109.94,110.4s49.32,110.4,109.94,110.4,109.94-49.53,109.94-110.4-49.32-110.4-109.94-110.4Z"/>
    <path class="cls-1" d="M195.16,316.19c-38.07,0-67.9-53.08-67.9-120.85s29.82-120.85,67.9-120.85,67.9,53.08,67.9,120.85-29.82,120.85-67.9,120.85Zm0-231.25c-31.16,0-57.5,50.56-57.5,110.4s26.33,110.4,57.5,110.4,57.5-50.56,57.5-110.4-26.33-110.4-57.5-110.4Z"/>
    <path class="cls-1" d="M303.63,164.37H90.43c-2.87,0-5.2-2.34-5.2-5.22s2.33-5.22,5.2-5.22h213.2c2.87,0,5.2,2.34,5.2,5.22s-2.33,5.22-5.2,5.22Z"/>
    <path class="cls-1" d="M298.43,242.7H90.43c-2.87,0-5.2-2.34-5.2-5.22s2.33-5.22,5.2-5.22h208c2.87,0,5.2,2.34,5.2,5.22s-2.33,5.22-5.2,5.22Z"/>
    <path class="cls-1" d="M194.43,315.81c-2.87,0-5.2-2.34-5.2-5.22V80.81c0-2.89,2.33-5.22,5.2-5.22s5.2,2.34,5.2,5.22v229.77c0,2.89-2.33,5.22-5.2,5.22Z"/>
  </g>
  <g>
    <path class="cls-2" d="M41.12,177.67C52.52-3.57,305.44-13.35,342.92,148.31"/>
    <polygon class="cls-1" points="347.14 177.67 323.87 138.99 342.26 146.18 357.62 133.76 347.14 177.67"/>
  </g>
  <g>
    <path class="cls-2" d="M347.14,214.03c-11.4,181.24-264.32,191.03-301.8,29.36"/>
    <polygon class="cls-1" points="41.12 214.03 64.39 252.71 46 245.52 30.65 257.94 41.12 214.03"/>
  </g>
</svg>