<svg width="256" height="256" viewBox="0 0 256 256" fill="none" xmlns="http://www.w3.org/2000/svg">
<path fill-rule="evenodd" clip-rule="evenodd" d="M43.264 62.7141C41.48 62.7141 40.0004 64.1937 40.0004 65.9777V144.904H215.997V65.9777C215.997 64.1937 214.517 62.7141 212.733 62.7141H43.264ZM225.597 65.9777C225.597 58.8918 219.819 53.1141 212.733 53.1141H43.264C36.178 53.1141 30.4004 58.8918 30.4004 65.9777V164.084C30.4004 171.17 36.178 176.948 43.264 176.948H107.139V193.286H87.748C85.097 193.286 82.9479 195.435 82.9479 198.086C82.9479 200.737 85.097 202.886 87.748 202.886H168.384C171.035 202.886 173.184 200.737 173.184 198.086C173.184 195.435 171.035 193.286 168.384 193.286H148.993V176.948H212.868C219.898 176.948 225.769 171.21 225.597 164.02V65.9777ZM215.997 154.504H40.0004V164.084C40.0004 165.868 41.48 167.348 43.264 167.348H212.868C214.681 167.348 216.049 165.872 215.999 164.23C215.998 164.181 215.997 164.133 215.997 164.084V154.504ZM139.393 176.948H116.739V193.286H139.393V176.948ZM164.104 81.6753C165.081 82.5073 165.684 83.6958 165.779 84.9757L166.854 99.4901C167.05 102.134 165.065 104.436 162.422 104.632C159.778 104.827 157.476 102.843 157.28 100.199L157.061 97.2399L129.034 125.152C127.285 126.893 124.501 127.025 122.596 125.457L106.258 112.008L92.539 126.166C90.6942 128.07 87.6554 128.118 85.7516 126.273C83.8478 124.428 83.8 121.389 85.6447 119.486L102.444 102.149C104.184 100.353 107.011 100.194 108.941 101.783L125.34 115.282L149.586 91.1352L147.429 91.3219C144.788 91.5505 142.462 89.5947 142.233 86.9536C142.004 84.3125 143.96 81.9862 146.601 81.7577L160.578 80.5481C161.857 80.4375 163.126 80.8434 164.104 81.6753Z" fill="#0071C7"/>
</svg>
