<svg width="256" height="256" viewBox="0 0 256 256" fill="none" xmlns="http://www.w3.org/2000/svg">
<path fill-rule="evenodd" clip-rule="evenodd" d="M44.2451 39.148C44.2451 34.496 48.0015 30.3999 52.9932 30.3999H138.008C139.281 30.3999 140.502 30.9056 141.402 31.8058L184.831 75.2345C186.023 76.4267 186.49 78.1406 186.105 79.7457V145.219C186.105 147.87 183.956 150.019 181.305 150.019C178.654 150.019 176.505 147.87 176.505 145.219V83.4286H142.088C137.2 83.4286 133.208 79.4371 133.208 74.549V39.9999H53.8451V204.904H136.555C139.206 204.904 141.355 207.053 141.355 209.704C141.355 212.355 139.206 214.504 136.555 214.504H52.9932C48.1355 214.504 44.2451 210.411 44.2451 205.625V39.148ZM142.808 46.813V73.8286H169.742L142.808 46.813ZM85.58 105.739C85.58 103.088 87.7291 100.939 90.38 100.939H159.854C162.505 100.939 164.654 103.088 164.654 105.739C164.654 108.39 162.505 110.539 159.854 110.539H90.38C87.7291 110.539 85.58 108.39 85.58 105.739ZM85.58 125.479C85.58 122.828 87.7291 120.679 90.38 120.679H159.854C162.505 120.679 164.654 122.828 164.654 125.479C164.654 128.13 162.505 130.279 159.854 130.279H90.38C87.7291 130.279 85.58 128.13 85.58 125.479ZM85.58 145.219C85.58 142.568 87.7291 140.419 90.38 140.419H159.854C162.505 140.419 164.654 142.568 164.654 145.219C164.654 147.87 162.505 150.019 159.854 150.019H90.38C87.7291 150.019 85.58 147.87 85.58 145.219ZM85.58 164.96C85.58 162.309 87.7291 160.16 90.38 160.16H124.322C126.973 160.16 129.122 162.309 129.122 164.96C129.122 167.611 126.973 169.76 124.322 169.76H90.38C87.7291 169.76 85.58 167.611 85.58 164.96Z" fill="#0071C7"/>
<path d="M78.1097 105.691C78.1097 108.369 75.9391 110.54 73.2614 110.54C70.5838 110.54 68.4131 108.369 68.4131 105.691C68.4131 103.014 70.5838 100.843 73.2614 100.843C75.9391 100.843 78.1097 103.014 78.1097 105.691Z" fill="#0071C7"/>
<path d="M78.1097 125.37C78.1097 128.048 75.9391 130.218 73.2614 130.218C70.5838 130.218 68.4131 128.048 68.4131 125.37C68.4131 122.692 70.5838 120.522 73.2614 120.522C75.9391 120.522 78.1097 122.692 78.1097 125.37Z" fill="#0071C7"/>
<path d="M78.1097 145.049C78.1097 147.726 75.9391 149.897 73.2614 149.897C70.5838 149.897 68.4131 147.726 68.4131 145.049C68.4131 142.371 70.5838 140.2 73.2614 140.2C75.9391 140.2 78.1097 142.371 78.1097 145.049Z" fill="#0071C7"/>
<path d="M78.1097 164.727C78.1097 167.405 75.9391 169.576 73.2614 169.576C70.5838 169.576 68.4131 167.405 68.4131 164.727C68.4131 162.05 70.5838 159.879 73.2614 159.879C75.9391 159.879 78.1097 162.05 78.1097 164.727Z" fill="#0071C7"/>
<path fill-rule="evenodd" clip-rule="evenodd" d="M176.581 164.852C169.798 164.852 163.294 167.547 158.498 172.343C153.702 177.139 151.007 183.644 151.007 190.426C151.007 195.484 152.507 200.429 155.317 204.634C158.127 208.84 162.121 212.118 166.794 214.053C171.467 215.989 176.609 216.495 181.57 215.509C186.531 214.522 191.088 212.086 194.664 208.51C198.241 204.933 200.677 200.376 201.663 195.415C202.65 190.455 202.144 185.313 200.208 180.64C198.272 175.967 194.995 171.972 190.789 169.162C186.583 166.352 181.639 164.852 176.581 164.852ZM151.709 165.555C158.306 158.958 167.252 155.252 176.581 155.252C183.538 155.252 190.338 157.315 196.123 161.18C201.907 165.045 206.415 170.539 209.077 176.966C211.74 183.393 212.436 190.465 211.079 197.288C209.722 204.111 206.372 210.379 201.453 215.298C196.533 220.217 190.266 223.567 183.443 224.924C176.62 226.281 169.548 225.585 163.121 222.923C156.693 220.26 151.2 215.752 147.335 209.968C143.47 204.183 141.407 197.383 141.407 190.426C141.407 181.098 145.113 172.151 151.709 165.555ZM193.934 180.659C195.832 182.509 195.871 185.548 194.021 187.446L178.321 203.555C176.498 205.424 173.516 205.494 171.607 203.713L160.474 193.316C158.536 191.507 158.432 188.469 160.242 186.532C162.051 184.594 165.088 184.49 167.026 186.299L174.725 193.489L187.146 180.746C188.996 178.847 192.035 178.808 193.934 180.659Z" fill="#0071C7"/>
</svg>
