<?xml version="1.0" encoding="utf-8"?>
<!-- Generator: Adobe Illustrator 26.0.3, SVG Export Plug-In . SVG Version: 6.00 Build 0)  -->
<svg version="1.1" id="Layer_1" xmlns="http://www.w3.org/2000/svg" xmlns:xlink="http://www.w3.org/1999/xlink" x="0px" y="0px"
	 viewBox="0 0 160 160" style="enable-background:new 0 0 160 160;" xml:space="preserve">
<style type="text/css">
	.st0{fill:none;stroke:#0071C7;stroke-width:6;stroke-linecap:round;stroke-linejoin:round;}
</style>
<g>
	<path class="st0" d="M79.8,55.5c13.5,0,24.4,10.9,24.4,24.4s-10.9,24.4-24.4,24.4S55.4,93.4,55.4,79.9S66.3,55.5,79.8,55.5z
		 M129.4,80.2c0-2.5-0.2-5.1-0.6-7.6c-0.2-1.2,0.4-2.3,1.5-2.9l8.4-4.1c1.3-0.7,1.9-2.3,1.2-3.6l-8.9-18.1c-0.7-1.3-2.3-1.9-3.6-1.2
		c0,0,0,0-0.1,0l-7.6,4c-1.1,0.6-2.4,0.3-3.2-0.6c-5.7-5.8-12.6-10.2-20.2-12.9c-1.1-0.4-1.8-1.4-1.8-2.5V22c0-1.5-1.2-2.7-2.7-2.7
		h0H67.4c-1.5,0-2.7,1.2-2.7,2.7v0v9c0,1-0.6,2-1.5,2.4c-5.3,2.6-14.1,7-19.9,12.9c-0.8,0.9-2.1,1.1-3.2,0.5l-7.7-4
		c-1.3-0.7-3-0.2-3.7,1.2c0,0,0,0,0,0.1L20,62c-0.7,1.3-0.1,2.9,1.2,3.6l8.5,4.2c1.1,0.5,1.7,1.7,1.5,2.9c-0.4,2.5-0.5,5-0.5,7.6
		c0,2.5,0.2,5.1,0.6,7.6c0.2,1.2-0.4,2.4-1.5,2.9l-8.3,4.1c-1.3,0.7-1.9,2.3-1.2,3.6l8.9,18c0.7,1.3,2.3,1.9,3.6,1.3
		c0,0,0.1,0,0.1-0.1l7-3.9c1.1-0.6,2.4-0.4,3.2,0.5c5.9,5.8,14.6,10.3,19.9,12.8c0.9,0.4,1.5,1.4,1.5,2.4v8.6c0,1.5,1.2,2.7,2.7,2.7
		h0h24.3c1.5,0,2.7-1.1,2.7-2.6c0,0,0,0,0,0v-8.4c0-1.1,0.7-2.2,1.8-2.5c7.6-2.8,14.5-7.2,20.2-12.9c0.8-0.8,2.1-1.1,3.1-0.6l8,4.1
		c1.3,0.7,2.9,0.1,3.6-1.2l8.8-18.1c0.7-1.3,0.1-2.9-1.2-3.6l-8.4-4.1c-1.1-0.5-1.6-1.7-1.5-2.9C129.3,85.3,129.4,82.7,129.4,80.2z"
		/>
</g>
</svg>
