<?xml version="1.0" encoding="utf-8"?>
<!-- Generator: Adobe Illustrator 26.0.3, SVG Export Plug-In . SVG Version: 6.00 Build 0)  -->
<svg version="1.1" id="Layer_1" xmlns="http://www.w3.org/2000/svg" xmlns:xlink="http://www.w3.org/1999/xlink" x="0px" y="0px"
	 viewBox="0 0 160 160" style="enable-background:new 0 0 160 160;" xml:space="preserve">
<style type="text/css">
	.st0{fill:none;stroke:#0071C7;stroke-width:6;stroke-linecap:round;stroke-linejoin:round;}
</style>
<g>
	<path class="st0" d="M122.8,76.3l15.3,26.4l15.3-26.4H122.8z M37.2,84.8L21.9,58.4L6.7,84.8H37.2z M22.9,85.7
		c1.3,13.4,7,26.4,17.3,36.6c23.4,23.4,61.4,23.4,84.8,0 M138.3,75.2c-1.1-13.7-6.9-27.1-17.4-37.6c-23.4-23.4-61.4-23.4-84.8,0"/>
	<path class="st0" d="M79.8,117.6v-13.5 M79.8,54.1V40.6 M94.5,63.6c0,0-4.8-9.7-15.2-9.7c-12.2,0-17.8,15.9-6.3,21.6
		c5.8,2.9,21.3,4.4,20.9,16.9c-0.4,14.2-23.2,16.3-28.8,1.6"/>
</g>
</svg>
