<?xml version="1.0" encoding="utf-8"?>
<!-- Generator: Adobe Illustrator 26.0.3, SVG Export Plug-In . SVG Version: 6.00 Build 0)  -->
<svg version="1.1" id="Layer_1" xmlns="http://www.w3.org/2000/svg" xmlns:xlink="http://www.w3.org/1999/xlink" x="0px" y="0px"
	 viewBox="0 0 160 160" style="enable-background:new 0 0 160 160;" xml:space="preserve">
<style type="text/css">
	.st0{fill:none;stroke:#0071C7;stroke-width:6;stroke-linecap:round;stroke-linejoin:round;}
</style>
<g>
	<path class="st0" d="M129.5,75h-9 M123.5,90h-6 M120.5,108h-6 M135.5,60h-39l-6-0.5l14.9-22.9c4.3-6.3,2-15-4.9-18.4L60,66H45.5v48
		h19l5.5,4c4.3,3.4,9.8,5,15.5,5H97h23.1h2.2c4.6,0,8.3-2.9,8.3-7.5s-3.7-7.5-8.3-7.5h1.5c5.2,0,9.3-4.6,9.3-9.8
		c0-4.3-3.5-8.2-7.8-8.2h4c4.3,0,7.8-3.2,7.8-7.5c0-4.3-3.5-7.5-7.8-7.5h6.1c4.9,0,9-4.1,9-9v0C144.5,61.1,140.3,60,135.5,60z
		 M39.5,125h-18c-3.3,0-6-2.7-6-6V60.2c0-3.3,2.7-6,6-6h18c3.3,0,6,2.7,6,6V119C45.5,122.3,42.8,125,39.5,125z"/>
</g>
</svg>
