<svg width="73" height="83" viewBox="0 0 73 83" fill="none" xmlns="http://www.w3.org/2000/svg">
<path d="M4.64363 12.2677L5.15486 11.8388L6.17731 11.6672L6.98674 10.8522L7.54058 10.509L8.43521 9.47959L8.2222 7.84962L8.77604 6.13386L9.41507 5.31886L11.3322 4.16073L12.3546 2.10181H12.951L13.6753 2.65944L14.6551 2.57364L16.2314 2.87391L17.3391 2.1447L18.4467 1.93023L19.1709 1.37262L20.1508 0.986571L23.6442 0.643411L24.2832 0.814984L25.263 0.300264H26.3281L26.8393 0.600514L27.6062 0.514734L28.7138 0L29.2677 0.12869L29.225 0.686308L29.4807 0.857881L30.1197 0.514734L29.6511 1.15814V1.75866L29.9919 2.1447L29.8641 3.13127L29.1824 3.90336L29.3955 4.58967L29.9919 4.71835L30.2049 5.23308L30.7161 5.53333L31.9516 5.96227L32.4628 5.87649L33.3149 6.09096L34.6355 6.64858L35.232 7.80672L37.6603 8.57881L38.7679 9.17933L39.4496 8.83618L40.0034 8.23566L39.7904 7.16331L40.0886 6.64858L40.8128 6.09096L41.4945 5.91939L42.8151 6.17674L43.2837 6.77727L44.9878 7.12042L45.3712 7.54936H46.7771L49.3332 8.45013L50.3131 8.06409L50.7391 7.72093L51.5912 7.63515L52.2302 7.76383L52.4858 8.32144H52.784L52.9544 8.02119L53.7213 8.27856L54.5733 8.36434L54.9993 8.14987L55.5958 9.99432L55.3401 10.4661L54.8289 11.9674L54.7437 12.0532L54.0195 11.2382L53.2526 9.52249L52.997 9.47959L52.8266 9.77985L53.2526 11.0667L54.7437 14.1979L55.5105 15.5277L56.3626 16.7287L56.1922 16.9432L56.2774 17.8439L57.6833 19.0879L57.9815 20.0744L57.7685 20.3747L57.9389 21.5757L58.3223 22.9483L59.3447 23.7204L59.9412 24.9643L60.282 26.0367L62.3269 27.6238L63.818 29.2538L64.5422 29.8543V30.1545L64.031 30.369L63.9884 30.6693L64.7552 31.1411L64.9682 31.6129L65.4368 32.0848L66.0759 32.1276L68.2912 31.6987L70.1231 31.0982L71.0603 31.0553L72.0828 30.7979L72.594 30.4119H72.807L72.7218 31.6987L72.2106 33.2429L71.0603 35.8165L70.1657 37.4036L68.0356 40.063L64.3718 42.8083L63.1789 44.138L62.7103 44.953L61.9861 45.3819L61.6878 45.8109L61.2192 46.0253L61.0914 46.7545L60.7506 47.2264L60.5376 47.8698L60.1116 48.2558L59.6004 49.5855L59.643 50.2718L60.3246 50.7437L60.069 51.5158V52.5023L60.8784 54.2181L61.3044 54.5183L61.4322 54.9044L61.56 58.6791L61.7305 59.2367L61.0488 60.6951L60.4098 61.3385L58.1945 62.3251L57.0016 63.5261L56.5756 63.7406L55.8514 64.5127L55.4253 64.77L55.2549 65.8424L55.7662 66.7003L55.9792 67.6439L56.1496 67.7726L56.107 68.6734L55.9366 69.1881L56.1496 69.4884L56.0218 69.8315L55.6384 70.2176L53.5083 71.247L52.997 71.7189L53.0396 72.3623L53.2952 72.5339L52.8266 74.893L52.571 75.3649L51.6338 76.1798L50.2705 78.3245L48.3534 80.3835L47.5866 80.9411L46.5215 81.4129L46.0103 81.4558L45.7973 81.799L45.286 81.6703L44.6896 81.8848L43.582 81.6703L42.9003 81.8419L42.3891 81.799L41.324 82.3137L40.4294 82.5282L39.7478 83H39.407L39.0235 82.5711L38.6401 82.4853L38.2141 81.9705H38.0863L38.0437 81.0698L37.7455 80.3406L38.0437 80.0403L38.0011 78.968L35.9988 75.1504L35.1893 74.2067L34.8059 73.3488L33.9539 69.5313L33.9113 68.1587L33.7835 67.4724L32.8036 66.014L31.9942 63.9121L31.1421 62.8398L30.9717 61.3385L31.0995 60.3948L31.8664 57.907L33.1018 56.1912L33.1444 54.7328L32.8036 54.261L32.2924 53.0171L32.6758 52.3307L32.122 50.5721L31.6108 49.9287L31.6534 49.6713L31.2273 48.5561L30.3327 47.355L28.5434 45.3819L27.947 44.3096L28.6712 42.122L28.5008 41.8646L29.012 39.8915L28.586 39.0765L28.0748 38.862L27.9044 38.4331L27.6488 38.2615V38.047L27.4358 37.8755L26.3707 38.2615L25.9021 38.2186L25.5187 38.4331H24.7944L24.2832 37.8326L23.8998 37.0176L23.0477 36.2455L20.3638 36.3742L17.8077 37.232L17.2112 37.6181L16.3166 37.9183L15.422 37.6181L13.4623 37.4036L12.1842 37.5752L10.3949 38.2615H9.96889L8.90384 37.7897L7.02935 36.3742L6.30511 35.6879L5.24005 35.1731L4.72884 34.6155L4.38801 33.4145L3.49338 32.3421L2.98215 31.999L2.68393 31.2698L1.78929 30.5835L1.32067 30.4977L1.10766 30.0258L0.852042 29.8114L0.639032 28.8248L0.766833 28.2672L0.340812 27.4093L0 27.1519L0.255615 26.9804L1.02245 25.6078L0.937252 24.9643L1.23546 24.4067L1.36327 23.3344L1.10766 21.6186L1.19285 20.9752L0.894647 20.3747L0.383416 19.9457L0.468626 19.0879L0.852042 18.7447L1.19285 18.1442L1.15026 17.6724L1.49107 16.9003L2.0449 16.214L2.47092 15.9566L2.76914 15.2703L2.81174 14.6269L3.15255 13.9835L3.87679 13.5116L4.64363 12.2677ZM55.8514 57.7354L55.681 56.4915L55.9366 55.462L55.5958 54.9473L55.468 53.7463L54.9141 53.1457L54.6159 53.2315L54.5307 53.5747L54.9141 54.3897L54.9567 55.6336L54.6585 56.3628L54.9567 57.1349L54.9993 57.6925L55.2123 57.9499L55.2549 58.4217L55.4253 58.6362L55.7662 58.5504L55.9792 58.8078L56.2774 58.722V58.5075L56.0644 57.907L55.8514 57.7354ZM52.358 44.1809L52.145 45.5106L52.4858 46.0682L52.6988 46.1111L53.1248 45.8966L53.6361 45.8537L53.8917 45.9395L54.4881 45.6822L54.5307 45.3819L54.2325 45.1246L55.0419 44.2238L55.0845 43.323L54.7011 42.7654L54.0195 42.5509L52.8266 43.0227L52.358 43.6662V44.1809ZM50.9095 51.9447L50.8669 52.1592L50.9947 52.3736L51.5059 52.631H51.8468L51.932 52.4165L51.3355 51.1726L51.2503 50.5292L50.4409 49.7571L50.6113 49.3282L50.4409 48.9421L50.4835 48.5132L50.2705 48.2558L50.3131 47.7411L49.9297 46.7116L49.7593 46.5829L49.5889 46.7545L49.3758 48.4703L49.6315 49.1137L49.4611 49.6284L49.8445 50.4005L50.4835 51.001L50.6113 51.5587L50.9095 51.9447ZM71.742 57.7783L71.9124 59.108L72.168 59.6227L72.0828 60.0517L71.8271 59.7085H71.529L71.3159 60.0517L71.4863 60.9525L71.4011 61.3385L71.1029 61.6817L71.0177 62.6253L68.5468 70.6036L66.8853 71.3328L65.5647 70.6894L65.309 70.1318L65.2238 69.0594L64.8404 68.1587L64.7552 67.3866L64.9256 66.6574L65.4368 66.3142V65.9711L65.9481 65.0703L66.0333 64.3411L65.5647 63.0543L65.4794 62.0677L65.8203 61.4672L65.9481 60.8238L67.9078 60.309L69.3562 59.0222L69.697 58.4217L69.6544 58.1214H69.9953L70.5917 57.3494L70.6343 56.6631L70.8473 56.4057L71.3585 57.1349L71.742 57.7783Z" fill="#A7A8AA"/>
</svg>
