<svg width="101" height="78" viewBox="0 0 101 78" fill="none" xmlns="http://www.w3.org/2000/svg">
<path d="M46.7136 45.5489L46.7934 45.4176L47.2772 45.5062V45.1818L47.3411 44.7452H47.5966L47.8029 44.3078L47.8338 43.9016L47.8927 43.6747H48.056L48.0897 43.2076V42.7605L48.0261 42.6078L48.1937 42.6332L48.4955 42.6854H48.8164L49.0336 42.3452L49.436 41.3738L49.3453 41.0036L49.6084 40.7869L49.8655 40.3819V39.7079L50.1194 39.6662L50.4834 39.4121L50.7948 39.1479L51.0917 39.0435L51.8997 39.2017L51.6538 38.697L51.7863 38.542L52.0226 38.4281L52.1152 38.0167L51.9779 37.7114L51.6538 37.6592L51.4542 37.6244L51.0758 37.5896L51.2929 37.482L51.1812 37.0169L50.9241 36.9378L51.1428 36.672L50.5473 36.4742L49.9262 36.8887L49.511 36.8144L49.1054 36.6419L48.3678 37.2368L47.7163 37.2858L47.2469 37.8569L46.9674 38.2572L46.3751 38.3521H46.1579L46.0573 38.0563L45.6549 37.9629L45.4282 38.1132L45.1137 38.0088L44.9109 37.8902L44.5325 37.5927L43.9401 37.7414L43.6351 37.8759L43.311 38.1686L43.2567 38.5135H42.9102L42.7745 38.2176H42.4695L42.3514 38.5135V38.8584V39.0451L42.2571 39.4532L42.0911 39.5877L41.9186 39.7159L41.47 39.7865H40.6269H40.1894L39.9818 39.757L39.7455 39.7169L39.506 39.4896L39.3032 39.4503L39.0861 39.4039L38.722 39.1352L38.4745 38.852L38.2989 38.8299H37.2642L36.9209 38.7698V38.447H36.4467L36.2184 38.2714L36.0044 38.1022L35.5653 38.0484L35.2588 37.8395L34.9682 37.7699L34.8229 37.5437L34.5291 37.4946L34.2576 37.3633L33.9391 37.1355L33.8213 36.7854L33.8856 36.4283L33.9962 36.2019L34.0819 36.0216L34.3032 35.8518L34.5818 35.6215L34.6025 35.4601L34.4844 35.2814L34.4125 35.1168L34.0373 34.6802L33.5136 34.6311L33.2804 34.2245L32.91 34.2483L32.8805 33.8623L32.7775 33.5189L32.6306 33.2832V33.1677H32.7538L32.9898 33.3829L33.3491 33.2722L33.4258 33.0429L33.4527 32.5108L33.3138 32.2625L33.0947 32.0822L32.9843 31.8486L32.9574 31.4496L33.1245 31.0328L32.9574 30.7608L32.6024 30.6189L32.4115 30.3381L32.1996 29.9538L32.0535 29.5725L31.776 29.2858L31.4717 28.9577L30.8631 28.6526H30.3537L29.9577 28.5023L29.8347 28.2365L29.6623 27.8963L29.4563 27.5087L29.0364 27.1559L28.9273 27.052L28.5783 26.6719L28.2155 26.4014L27.8112 26.2645L27.5382 26.3261L27.158 26.4014L26.5153 26.6719L26.1628 26.9013L26.0419 26.9766L25.9486 27.0177L25.8449 27.0759L25.7101 27.1266L25.5926 27.1958L25.4648 27.2689L25.3749 27.319L25.1469 26.9424L25.0432 26.4014L24.9188 26.1515L24.8048 25.8707L24.6907 25.5557L24.3521 25.5352H24.2484L24.1171 25.5763L24.0756 25.679L24.0065 25.8403L23.9892 25.9324L24.0065 26.1515L23.578 26.4014C23.578 26.4014 23.1098 26.5158 23.111 26.5136L22.9449 26.8063H22.616L22.0745 26.8462L21.8521 27.1512H21.1311L20.7894 26.8079L19.7755 26.8047L19.5024 26.501L19.1767 26.5706L18.7232 27.0151L18.2474 27.1512L18.1165 27.6464L18.0239 27.8868L17.96 28.0704L17.7285 28.208L17.3469 28.4548L17.0179 28.6083L16.5884 28.8139L16.483 28.9674L16.1653 29.4009L15.7757 29.4214L15.3542 29.4531L15.0652 29.1477L14.736 29.0666L14.8203 28.4815L14.9167 28.1715V28.0701V27.706L14.6433 27.4136L14.0494 27.0914L13.5943 26.8302L13.1264 26.4028L13.007 26.3239L12.8179 26.2187L12.2373 25.9229L11.7263 25.6862L11.1756 25.4396H10.2001L10.0873 25.4889L9.81195 25.5908L9.57307 25.6862L9.27778 25.821L8.89905 26.0231L8.50389 26.3964L7.92954 26.5239L7.81466 26.7428H7.63968L7.3004 26.4193V25.8573L7.35764 25.3465L7.48844 24.6365L7.40668 24.4785L6.71997 24.0978L6.94479 23.3202L6.80582 23.1137L6.30303 23.057L6.45836 22.2875L7.36991 22.5466L8.26916 22.1173L8.31821 21.8622L7.63968 21.0967L7.35764 20.3475L7.14101 20.2543L6.32349 20.6026L6.19269 21.0076L6.07413 20.5378L6.30713 19.8858L6.11093 19.4038L4.88466 18.8692L4.44728 17.6785L3.88729 17.2735V17.0912L4.7048 17.2006L4.88875 17.0467L4.92552 16.1192L5.64085 15.9289L6.49516 16.1354L6.69545 15.9977L6.8794 14.5802L6.69545 13.6163L6.52378 13.4867L5.53866 13.5555L4.56175 13.2153L3.38859 13.8593L2.50978 14.1428L2.15825 13.9808L2.21955 13.2275L1.56555 12.2271L0.748035 12.1907L0 11.3037L0.543655 10.2345L0.294319 9.82948L0.972847 8.39577L1.85984 9.16932L2.12964 9.06402L2.24817 7.9705L4.26743 6.28973L5.76756 6.24923L9.19296 8.00291L10.4192 7.34275L11.9071 7.32655L13.1743 8.13656L13.4032 8.08391L13.6484 7.6789L14.9892 7.7437L15.1527 7.63436L15.4102 6.86889L15.3489 6.68259L13.8692 5.68223L14.6867 5.01397L14.6049 4.51581L15.4224 4.14321L15.4919 3.9083L14.8134 2.84313L15.1731 2.39763L18.9419 1.80632L19.4937 1.36082L22.0157 0.720909L22.9395 0L24.595 0.344251L24.8975 2.05337L25.1182 2.17488L26.1237 1.76987L27.2683 2.28423L27.1947 3.09424L27.3745 3.26839L28.4291 3.14689L30.4034 1.89542V2.04122L31.6951 3.34939L33.9801 7.53715H34.2621L34.7158 6.82839L35.987 7.66675L37.5322 7.2901L37.9941 7.52905L38.4764 8.42007L39.2244 8.78052L39.6332 9.40828L39.7967 9.48118L41.0229 9.29083L41.5094 10.1494L41.7015 10.2223L43.2262 9.81733L45.1678 8.46867L46.6352 7.75991L47.5263 8.22971L48.5237 8.24996L49.2717 8.99111L50.2772 9.04782L51.7406 9.45283L51.9041 9.40423L52.8974 8.30261L52.9259 8.12846L52.5458 7.26175L53.4778 5.77942L54.5365 6.39504L56.5557 6.96609L56.8296 8.1811L58.2848 8.84937L60.6106 8.36741L61.5712 8.56181L62.5277 9.28677L63.2675 10.1332H64.1995L65.5648 10.3722L66.4886 9.99148L67.8865 9.70798L69.3212 8.64687L69.8158 8.78457L70.4535 9.33133L71.6266 9.20578L72.9796 9.76468L74.4225 8.77242L74.4839 7.96241L75.375 6.30998L75.9227 5.80372L75.9636 4.76691L75.4894 4.3619L76.1679 3.68959L77.3942 3.39799L78.7063 3.35344L80.186 3.8435L81.0035 4.42265L82.3565 7.73155L83.1086 9.16932L84.7437 9.65128L85.97 10.8339L86.4114 12.1421H87.7562L88.6514 11.5508L90.2333 11.0688L90.6175 11.4455L90.1311 12.7415L89.6815 13.3652L89.3381 14.9528L88.6391 16.3987L88.4593 16.4878L87.278 16.2448L86.5545 16.6498L86.7997 17.804L86.7139 18.6626L86.6894 19.0353L86.6526 19.4403L86.1416 19.8453L85.5489 20.0437L84.7805 20.9914V21.9553L84.339 22.2024L83.7626 22.8302L83.0678 23.0651L82.565 23.5389L82.4996 24.4056L82.8838 24.6081L83.4397 25.1468L84.3022 26.6291L84.5434 27.4148V28.7959L84.2123 29.3831L83.3048 29.6221L82.52 30.1122L81.7884 30.1972L81.7066 29.7072L81.8865 28.7189L81.4777 27.5728L82.0704 27.4067L82.1644 27.1637L81.3959 26.0135L80.8973 25.7705L80.5335 26.0459L80.0307 25.6409L80.5008 24.9119L80.4313 24.7296L80.6684 24.0816L80.603 23.7617L79.3235 23.1542L77.8929 23.5389L77.104 24.1626L76.6053 24.3246L76.777 23.9966L76.6012 23.5916L77.3411 22.7816V22.575L76.8015 21.8744L76.593 21.8298L75.7183 22.3118L74.5615 23.2352L73.9484 24.0452L73.0205 24.1019L72.4033 24.7863V24.9767L72.9428 25.8515L73.7604 26.1066L73.883 26.702L74.7005 27.0746L74.8722 27.0544L75.935 26.2079L76.7525 26.6534L77.3656 26.702L77.4637 27.107L76.078 27.4877L75.6202 28.1398L74.5983 28.804L74.0383 29.6626L74.0914 29.8854L75.142 30.5334L75.5507 31.7079L76.8465 33.7086V34.4376L76.2906 34.7171L76.2129 34.9196L76.4581 35.5473L77.0345 35.9321L76.8955 36.7623L76.6666 37.5724L76.0821 37.7344L74.5084 40.456L73.5396 41.752L70.7682 43.6758L69.6523 43.7973L69.0596 44.2306L68.8103 43.9795H68.5814L68.0255 44.502L66.6398 45.0326L65.5729 45.1986L65.1233 46.3569L64.7922 46.3934L64.5878 45.798L64.7922 45.4416L64.69 45.2027L63.2185 44.8584L62.6994 45.0528L61.3341 45.9843L60.4471 47.0373L60.2141 47.9769L61.9554 50.492L62.9037 51.1724L63.4924 51.9825L63.9461 53.8657L63.8153 55.5992L63.0264 56.2269L61.8655 56.883L61.003 57.7619L59.8871 58.6002L59.6459 58.1709L59.9034 57.5472L59.8544 57.3569L59.0941 56.7372L58.2276 56.5671L57.2792 54.9471L56.3595 54.4692H55.6033L55.7178 53.8455L55.5543 53.6551H54.6509L54.4874 53.805L54.4097 54.9268L53.5309 57.3285L53.5922 58.1385L53.7476 58.2843L54.3116 58.3127L54.6795 59.1429L54.8594 60.0137L55.4725 60.6779L56.1306 60.8318L57.4509 62.0225L57.8597 62.6584L57.8106 63.7965L57.9782 64.7239L58.3665 65.0884L58.7262 66.0766L58.2071 66.1252L56.1224 64.6348L55.9835 64.1124L55.4235 63.4684L55.2886 62.6584L54.9289 62.0914L55.0311 61.411L54.7899 60.8804L54.3811 60.4754L54.1849 59.9489L53.1426 58.8797L52.8442 59.0458L53.253 57.45L53.1671 56.6603L53.4574 55.7692L53.1385 55.1982L53.2162 54.1128L52.8074 53.4891L52.3006 50.9578L51.8428 50.0303L51.5934 49.9777L49.8235 51.217L48.8466 50.9497L49.1041 49.8521L48.8915 48.7789L48.1067 47.5638L48.2089 47.2479L48.0904 47.0414L47.5467 46.9158L46.8682 46.1058L46.6147 45.7276L46.7136 45.5489ZM60.2305 70.1956L59.4129 70.0376L59.0573 69.4706L58.8938 68.8307L58.5709 68.7902L57.9823 68.4378L57.921 68.2272L58.2643 67.5347L57.6144 67.1297L56.9849 66.2508L56.1674 65.6068L55.0638 65.538L54.1032 64.4607L52.7829 63.3712L51.9081 62.4073L49.942 62.1926L49.987 62.4599L51.013 63.5332L51.8305 64.1407L52.3496 64.9791L53.2979 65.6635L53.9683 67.3079L54.8675 68.1665L56.1388 70.3251L57.3365 71.7508L58.624 72.5608L59.4661 73.3708H60.3735L60.4103 71.9492L60.6556 70.7342L60.2305 70.1956ZM65.5034 46.9523H65.0334L63.9788 47.2358L63.57 47.6408L63.5945 48.386L64.2608 48.6493L65.0252 48.2037L65.2418 47.6367L65.6506 47.1953L65.5034 46.9523ZM69.3376 75.655L67.8293 75.4728L67.3674 74.7883L65.6629 74.3469L65.344 74.7519L63.382 74.6506L63.2389 74.5453L63.1326 74.2658L61.9595 73.8082L60.8395 73.7555L60.3572 74.4279L61.0071 74.4805L61.2932 74.9422L63.0345 75.3472L63.4883 75.2257L64.2404 75.327L66.3823 75.9021L68.3443 75.9507L69.4766 76.3557L70.2123 76.1086L69.3376 75.655ZM73.8012 76.1775L73.278 76.2463L72.9183 76.0398L72.6158 76.3354H72.1458L71.9822 76.6068L73.883 76.3111L73.8012 76.1775ZM74.4675 56.4416L74.1405 57.0653V57.0855L74.5493 56.7494L74.4675 56.4416ZM73.0328 58.2236L73.3884 57.9684L73.4906 57.8267L73.0328 58.2236ZM74.9049 77.2831L74.4471 77.3925L75.3709 77.8825H75.6325L74.9049 77.2831ZM76.4091 54.2464L76.1638 53.9872L75.6733 53.967L76.2538 54.777L76.4132 54.2545L76.4091 54.2464ZM76.5849 41.262L75.8777 41.991L75.3136 43.0156L75.4199 43.7487L75.7878 44.3805L76.0821 43.777L76.8424 41.4604L76.5849 41.262ZM77.1122 76.3476L76.4295 76.4245L75.751 76.1289L75.1215 76.2949V76.3962L76.311 76.5055L77.7253 76.2382L77.7662 76.0843L77.1122 76.3476ZM77.5781 55.9272L77.2389 55.7733V56.6927L78.0564 56.1216V55.9272H77.5781ZM78.5837 57.2111L78.3834 57.2597L78.2935 57.0774L78.4038 56.6076L78.1913 56.6319L78.0605 57.2313L77.6803 57.6809L78.1095 58.1669L78.596 57.3771L78.9557 57.0329L78.9884 56.6846L78.5837 57.2111ZM78.8167 54.0156L78.8944 53.5701L77.7825 53.0679L77.3084 53.1772L76.6421 52.9464L76.4132 52.112L76.5726 51.1927L77.198 50.7634L77.431 50.002L77.1081 49.2973L77.2389 48.8153L76.9446 48.9409L76.3478 48.6533H75.8818L75.5916 49.4876L75.4853 51.1076L75.2155 51.221L75.0847 51.1117L75.2441 52.1364L75.5425 52.4928L75.8369 52.3146L76.1434 52.5576V52.8087L75.8736 53.0355L75.845 53.2866L76.2006 53.4486L77.0795 53.3028L77.7335 53.8374L77.8888 53.6146H78.1586L78.5183 54.1371L79.0905 54.5016L79.1233 54.3517L78.8167 54.0156ZM79.2254 66.83L78.0237 66.8705L76.732 66.7287L75.984 66.4533L75.2114 67.1216L75.146 67.2512L76.123 67.0446L77.8275 66.992L78.8126 67.1864L79.4911 67.0122L80.1983 66.1495L79.2254 66.83ZM78.1586 68.45L78.2567 68.4824V68.4297L78.1586 68.45ZM77.9706 72.2125L77.5618 72.9374L77.7785 73.1318L78.1259 72.9374V72.419L77.9706 72.2125ZM77.243 71.285L77.3656 70.8517L76.4581 69.6366L76.5236 69.3936L77.386 69.017L77.7539 68.5269L76.6298 68.7294L76.0821 69.1425H75.8614L74.9457 68.2394L75.0193 67.4618L74.4879 69.0129L74.3449 69.8229L73.9361 70.471L74.1732 70.9934H74.5002L74.6596 71.1311L74.819 72.1112L74.5574 73.0063L74.8395 73.1966L75.2891 73.0954L75.1665 70.5925L75.2605 70.4345L75.9431 70.1267L76.172 70.2847L76.1025 71.1919L76.7729 71.7346L76.7238 72.2165L76.8383 72.3421L77.7621 71.9978L77.243 71.285ZM80.0838 56.559L80.1124 57.0207L80.2432 56.96L80.0838 56.559ZM80.5253 55.2427L80.3087 54.9471H79.7527L80.1615 55.4695L80.2105 55.9272L80.7297 56.0892L80.5253 55.2427ZM80.0348 56.4173V56.1135L79.6873 56.0649L79.7609 56.3565L80.0879 56.5266L80.0348 56.4173ZM81.4123 59.066L81.2651 58.256L80.7705 57.9644L80.8073 58.4504L80.652 58.6245L80.0389 58.6488L79.81 59.1024L79.0333 59.3819L78.8494 59.3292L78.5837 58.989L77.5373 59.5642L77.198 60.2972L77.8438 59.8922H78.3466L78.6123 59.5399L78.8412 59.5075L79.4748 59.9773L79.5157 60.1919L79.2459 60.5969L79.483 61.2004L80.4967 61.6985L80.6684 61.4191L80.4027 60.5686L80.8809 60.0502L81.1548 60.1069L81.3796 60.7265L81.5595 60.2446L81.4123 59.066ZM80.3659 76.5541L80.1942 76.8093L79.2254 77.2143L78.7717 78L79.4952 77.8137L80.1983 77.0361L82.2012 76.2261L80.3659 76.5541ZM82.1195 70.9124L81.4123 70.9448L81.4818 71.0947L82.0295 71.2405L82.2298 71.0582L82.1195 70.9124ZM83.7013 66.1536L83.2067 66.0807L83.0392 65.7324L82.7776 66.5424L83.0514 67.7088L83.1904 67.1661L83.3784 67.0446L83.7218 67.1094L83.7626 66.429L83.7013 66.1536ZM85.6389 70.8517L84.6129 70.5803L83.4765 70.6167L83.3662 70.8679L85.2792 70.9084L85.7778 71.1392L85.6389 70.8517ZM89.89 73.387L89.6488 73.8406L89.6896 74.1646L89.9431 73.8325L89.89 73.387ZM89.89 30.8088L89.3259 30.6103L88.9784 31.0356L88.3326 30.9748L87.8666 31.5783V31.9833L88.2754 32.1979L88.5574 31.5742L89.0806 31.2907L89.5711 31.6269L89.9799 31.0963L89.89 30.8088ZM96.3688 70.3454L95.3632 70.1631L93.7691 69.4625H92.9515L91.8438 70.0416L91.0263 71.0906L90.8178 71.1311L89.6774 70.4102L89.3953 68.7902L89.2727 68.5026L87.7767 68.1219L87.2535 68.4378L86.1539 68.6322L86.3664 68.8793L87.2248 69.0534L87.6867 69.6528H89.097L89.2523 69.7663L89.3381 70.0335L89.1787 70.2441L88.4756 70.2239L87.7235 70.475L88.2181 70.7909L88.4429 71.5564L88.6555 71.5078L88.9212 71.0744L89.146 71.0218L90.6502 71.9411L91.5045 72.0343L93.5483 72.9658L94.0552 73.8649L94.3209 74.9746L94.2269 75.1609L93.6342 75.4201L93.3521 75.9588L94.3004 75.9345L94.6602 75.6429L95.6984 75.8494L96.4137 76.4772L96.3688 70.3454ZM100.832 17.5448L100.166 17.9822L99.4263 17.6704L98.6087 17.156L97.6073 15.9127L97.0759 18.6667L96.9247 18.8044L95.9273 18.8733L95.4818 19.8129L95.6044 20.9793H96.4791L96.9982 19.5861L97.2353 19.501L98.7109 20.3596L99.5284 19.1244L101 18.7194L100.832 17.5448ZM72.6158 61.6337L74.022 62.1805L73.9974 62.3222L73.4374 62.3627L73.2944 62.5814L73.4252 62.9379L72.7385 63.2821L72.158 64.2015V64.3878L72.8529 65.2788L72.7589 65.8417L73.605 66.5343L72.6526 66.7044L72.2929 67.4739L72.3338 68.3042L71.3528 69.0737L71.3282 70.066L71.0421 71.1959L70.8868 71.1311L69.8485 71.5361L69.3907 70.9529L68.6999 70.9003L68.2258 70.5965L66.9995 70.9084L66.5499 70.4426L65.1969 70.3981L65.0538 69.183L64.502 68.778L64.0483 67.968L63.9134 67.1337L64.0237 66.267L64.5183 65.7202L65.2664 66.028L66.0553 65.8377L66.3618 64.9345L67.9968 64.5295L69.2231 63.0837L71.2669 61.4636L71.7615 60.7063H72.019L72.4564 61.1356L72.6158 61.6337ZM97.3089 23.2757L97.2803 24.2679L96.3483 25.5518V26.941L95.9763 27.917L96.1317 28.5812L95.6616 29.3548L94.4353 29.9015L92.5591 30.0231L91.198 31.3272L90.687 30.9789L90.6502 30.1446L90.4622 29.9907L88.6841 30.262L87.4578 30.8371L86.297 30.8614L86.1457 30.9667L86.1907 31.1449L87.1472 31.9549L86.5136 33.8463L86.0027 34.2513L85.6756 33.9476L85.9046 32.9634L85.8228 32.7852L85.2219 32.4612L84.9072 31.8375L85.7819 31.4689L86.301 30.7278L87.3025 30.1081L88.0505 29.2738L90.0003 28.9174L91.0631 29.1644L91.247 29.0753L92.2239 27.0301L92.7431 27.4918H92.9597L95.0444 25.7138L95.7311 24.0614L95.5717 22.5426L95.9477 21.8055L96.8102 21.607L97.3089 23.2757Z" fill="#A7A8AA"/>
</svg>
