<svg width="78" height="59" viewBox="0 0 78 59" fill="none" xmlns="http://www.w3.org/2000/svg">
<path d="M52.1241 58.1969L52.062 58.444L52.5585 58.5676L52.1241 58.1969ZM54.9165 58.6911L53.241 58.6293L53.6754 58.6911L53.8616 59L55.1026 58.8765L54.9165 58.6911ZM38.9069 53.1927L36.5489 53.5016L34.8735 53.3162L34.7494 53.934L37.5418 55.0461L38.4726 55.6021L38.6587 54.9843L38.4726 54.3047L38.9069 53.1927ZM34.253 11.9854L32.3914 12.7267L32.5776 13.5916L33.8807 14.8272L34.6253 13.0356L34.253 11.9854ZM29.4129 47.2618L28.8544 47.6943H28.2339L28.4821 48.5592L28.5442 50.9068L28.8544 51.2157L29.3508 50.7215H30.0334L30.2196 48.4356L29.4129 47.2618ZM29.5991 43.6168L28.9785 44.111L28.7303 44.7288L29.0406 45.9644L29.4129 46.1497L29.7852 44.9141L29.5991 43.6168ZM17.3747 22.1173L17.5608 20.8199L15.6993 20.2639L14.3341 16.31L13.2172 15.8157L11.79 12.4796L10.3007 12.2943L10.1145 11.9236L11.4797 9.45237L11.852 7.4754H10.4869L8.93556 7.84608L8.68735 7.4754L10.1145 4.75708L8.68735 4.94241L7.57041 4.75708L6.45346 6.91938L5.89499 9.76127L6.63963 11.244L6.70166 13.0974L7.13604 12.4796H7.57041L8.06683 13.221L7.57041 14.5801L7.81862 15.0744L9.74225 15.6304L10.8592 17.4838L10.611 19.0283L10.3628 19.2136L8.31503 19.0283L8.06683 20.3874L8.8735 21.6848L8.74941 22.0555L7.32219 22.7351L7.63245 23.4147L9.9284 23.7853L10.1145 23.9707L9.9284 24.2178L8.62529 24.712L6.57757 26.9979L7.01192 27.245L8.19094 26.3801L9.49402 26.6272L10.4248 25.577L10.7351 25.5152L11.3556 25.9476L13.8998 25.3298H15.9475L17.1265 24.2178L16.568 23.1058L16.6301 22.7969L17.3747 22.1173ZM5.33652 17.6073L6.08114 15.9393L4.59188 14.4566L3.47494 14.5801L0.372319 17.7309L1.11694 20.2021L0 22.7351L1.79952 23.044L4.40573 21.623L5.52267 19.4607L5.33652 17.6073ZM77.7518 28.6042L77.5656 28.3571L75.2697 27.5539H74.401L73.5322 26.5037L73.284 26.4419L72.1671 26.8126L70.4296 26.0712V25.6387L69.8711 24.5885L68.6301 24.3414L68.568 23.8471L68.8783 23.1058L67.8854 21.6848H65.6515L65.0931 22.2408L64.8449 22.1791L64.1623 20.0167L65.5895 19.955L66.21 19.3989L66.2721 19.09L65.7136 18.2869L64.8449 17.9162L64.7828 17.422L64.1623 16.9895L63.2936 15.3833L63.6038 14.6419L63.4177 13.3445L61.7422 12.4796L60.9976 12.7267L60.6873 12.1707L59.2601 11.4911L58.8258 9.9466L58.7017 8.58745L58.0191 7.90786L58.5776 6.98116L58.1432 4.32461L59.1981 2.65656L59.074 2.03875L60.7494 0.494252V0.123568L60.6253 0V0.308901L58.7017 2.10054L57.0262 2.1623L55.4129 1.66807L53.5513 2.10054L51.7518 2.84189L51.8759 4.32461L52.6826 5.12776L53.0549 4.88064L53.4272 5.12776L52.9308 9.08168L52.6826 9.26702L51.1933 9.20525L50.0764 7.29006L48.8974 8.0932L48.1527 9.76127L48.0907 11.8L48.401 14.0859L48.2768 14.333L46.2291 15.1979L45.9189 16.2482L45.6706 16.4335H44.1814L43.9332 16.2482L43.8711 15.7539L42.568 15.3833L38.2864 17.4838L37.2315 18.2251L36.9212 18.1634L36.2387 17.3602L34.6873 16.4335L33.8186 17.0513L32.2673 17.5456L31.957 17.2984V16.5571L30.5298 16.0011L30.3437 15.7539V14.7655L29.9093 13.4681L31.0263 11.3058L31.5847 11.3676L31.7709 10.8115L30.9642 10.3173L30.778 9.51415L31.2124 8.46388V7.53718L30.4057 8.0932L29.7231 8.95811L28.4821 9.14347L27.8616 10.5644L27.9236 13.2827L28.5442 14.7655L28.6062 16.31L28.9785 17.2984L27.8616 18.8429L27.4272 18.7812L27.241 18.3487L26.2482 18.4723L25.7518 19.0283L24.5107 18.9665L22.5251 19.955L21.0979 23.6618L20.2291 24.4031L17.747 25.3298L17.1886 27.3686L13.5895 29.222L12.3484 28.5424L12.7208 30.6429L12.4105 30.9518L9.86634 30.334L8.12888 30.7665L8.25297 32.1257L10.5489 32.9906L11.7279 34.1644L13.3413 36.512L13.0931 41.022L12.2864 42.4429L8.31503 42.6283L6.63963 42.2576H4.59188L2.73031 41.8869L0.806675 43.2461L1.36516 44.111L1.30311 45.5937L1.73746 47.8796L1.30311 49.9801L0.682581 50.7833L0.558469 51.9571L0.868731 52.5749L1.61337 52.9456L1.73746 54.1812L1.55131 55.4168L2.10978 55.2932L2.79236 55.5403L3.537 55.0461L4.9642 55.355L5.58473 56.5906L6.08114 57.1466L6.63963 57.2702L7.19809 56.5906L8.31503 55.8492H11.6659L12.7208 54.4283L13.8998 53.9958L14.21 52.822L15.0167 51.9571L14.4582 50.7833L15.0787 49.177L16.0095 48.0032L16.1337 47.3853L16.3198 47.2L18.2434 46.7675L19.5465 45.5319V44.2346L19.9189 42.7518L22.2768 42.0723L25.2554 42.6283L26.5585 41.5162L27.241 41.3309L28.1098 40.4042L28.9165 40.0335L31.1504 40.9602L31.7709 43.1843L34.1909 45.6555L35.3079 46.5204L36.5489 46.7675L37.1694 47.5707L38.2243 48.0649L38.6587 48.8681L39.3413 49.2388L40.3962 51.4011L39.7757 53.0691V53.3162L40.0239 53.2545L40.8305 51.6482L41.5131 51.4011L41.6372 50.7215L40.6444 50.0419L40.5823 49.733L41.2029 48.4356L41.5131 48.3121L42.8783 48.621L43.6229 49.3623L43.747 49.1152L42.3819 47.8796L39.8998 46.5204L39.8377 46.1497L40.0859 45.9026L39.8998 45.7173L38.5967 45.6555L36.8592 43.9874L36.0525 42.1958L34.5633 41.0838L34.0668 39.9717L34.253 39.2304L34.1909 38.1801L34.315 37.933L35.7422 37.1298L36.9833 37.4387L37.1694 37.6241L36.7351 38.0566V38.6126L36.9212 38.9215L37.2315 38.3655L37.5418 38.2419L38.5346 38.6126L38.7208 39.4775L39.4033 40.3424L39.2792 40.7131L40.3341 42.0105L41.6993 42.6283L42.6301 43.4314L44.7399 44.6052L45.8568 45.8408L45.5465 48.0032L45.6706 48.8681L46.4773 49.4859L46.9738 50.7215L48.3389 52.7602L49.2076 55.6021L50.3246 56.3435H50.9451L50.4487 54.9843L50.6348 54.6754L51.3174 54.5518L51.0072 53.8105L51.3174 53.5016L52.4344 53.8723V53.2545L50.8831 51.8335V51.4628L51.2554 51.1539L50.5728 50.3508L50.2625 48.9299L50.5728 48.4974H50.9451L51.6897 49.4241L52.8067 49.2388L52 48.3738L52.1241 47.9414L53.9857 47.3853L55.7231 47.6325L55.9714 47.5089L56.3437 46.4586L55.7231 46.0262L55.7852 45.5937L57.3986 44.9141L58.3914 45.0995L58.0811 44.1728L58.6396 42.6901L59.4463 41.7634L59.8807 39.2304L60.253 39.045L60.6253 39.2304L61.1217 38.9215V38.3655L63.0453 35.4L64.4725 35.0911L64.7828 35.2764L64.8449 35.956L67.2029 36.5738L67.6372 37.0681L67.5752 37.4387L66.0859 38.2419L67.5131 38.7979L67.6372 39.1068L67.389 39.91L67.9475 40.2189L69.9332 39.045L71.5465 38.6744L71.6706 38.3655L70.4916 38.489L69.5609 37.933L69.3747 36.3885L69.4988 36.1414L70.864 35.2764L72.3532 35.1529L73.4702 34.4115L75.1456 34.0408V33.7937L75.8282 33.2377L77.2554 33.0524L77.4415 32.867L77.6897 31.9403L77.3795 30.7665L78 29.5927L77.7518 28.6042Z" fill="#A7A8AA"/>
</svg>
