<svg width="44" height="76" viewBox="0 0 44 76" fill="none" xmlns="http://www.w3.org/2000/svg">
<path d="M17.4175 1.83041L17.3414 2.0592L17.6837 2.51681L18.5203 2.66934L19.1668 3.08881L19.3189 3.81335L19.471 3.92775H19.9274L20.8781 4.46162L21.4105 5.03362L21.4486 5.45309L21.6007 5.60562H21.9049L22.7416 6.36829L23.9585 6.5971L24.1867 6.40643L24.8712 6.33016L25.6698 6.52082L25.2515 7.28349L25.3276 7.93177L25.6698 8.50377L25.2135 9.64777L25.2895 9.87656L25.7079 10.0672L26.1262 9.83844L26.4304 10.1435L26.9628 10.0291L27.3431 9.60964L28.1417 8.12243H28.2939L29.0164 10.2198L29.5108 10.4486V10.9443L28.8263 11.6688V11.8976L29.1305 12.2027L30.7658 12.3934L30.8038 13.2323L31.07 13.3467L31.7165 12.7747L34.3786 13.6518L34.7589 14.1094L34.6067 14.567L34.7969 14.7577L35.8617 14.4907L37.6871 14.9865L39.1322 14.9483L40.5013 15.711L41.7563 16.8169L42.4788 17.0838L43.2774 17.1219L43.5436 17.3507L44 19.0667L43.6197 20.5921L41.8323 22.5369L41.2238 23.6809L40.5774 24.4817L40.2731 24.5961L40.0069 25.3588L40.083 27.1892L39.7407 29.3246L39.4365 29.7441L39.2844 31.0406L38.3336 32.4134L38.1815 33.4049L37.4589 33.8244L37.1927 34.4345H36.242L34.7589 34.8159L34.0743 35.2735L32.9715 35.6167L31.8306 36.4937L30.9939 37.5996L30.8418 38.4004L30.9939 39.0105L30.8038 40.0401L30.6137 40.5359L29.9291 41.146L28.8643 43.0527L27.3431 44.5018L26.9248 45.5695L26.3163 46.2178L25.898 46.9423L24.9092 47.5143L24.2628 47.3236L23.7303 47.438L22.8937 46.9804H22.2472L21.7148 46.3703L21.4486 46.4466V47.1711L22.5895 48.1244L22.4754 48.849L23.0458 49.4591L23.0078 49.9167L22.1331 51.4039L20.8021 52.014L18.9386 52.281L17.9118 52.1666L17.7597 52.3573L17.9499 53.0436L17.7597 53.9207L17.9118 54.5309L17.4555 54.8741L16.5808 55.0266L15.7061 54.569L15.1737 54.9122L15.3258 56.4375L15.9723 56.8189L16.5047 56.5138L16.6569 56.857L15.8583 57.2383L15.0977 58.0391L14.9075 59.4501L14.7174 60.0602L13.8427 60.0983L13.0821 60.7847L12.7779 61.8906L13.7666 63.0346L14.6033 63.3016L14.3371 64.3693L13.2723 65.132L12.6258 66.8861L11.7891 67.4581L11.3708 68.2208L11.675 69.8986L12.1314 70.5469H11.1426L9.84961 71.5003L9.62143 72.9874L9.39326 73.0256L8.36646 72.5298L7.30165 71.424L6.12273 70.5469L5.85653 69.6698L6.0847 68.7165L5.62835 67.725L5.51426 65.2845L5.89455 63.9498L6.88332 62.8821L6.80726 62.6151L5.59032 62.272L6.38894 61.1661L6.69317 59.145L7.56785 59.5263L7.79602 59.4119L8.29041 56.7045L8.21435 56.5519L7.56785 56.2087L7.33967 56.3231L7.07347 57.7722L6.76923 57.6578L7.3777 53.6157L7.79602 52.7004L7.52982 51.5183L7.45376 50.298L7.83405 50.1836L9.08903 46.4084L9.50735 44.6924L9.27917 42.9764L9.54538 42.0231L9.43129 40.6884L10.0017 39.3537L10.7623 32.7948L10.6863 31.0788L10.4961 29.6297L9.50735 28.9814L9.35523 28.5238L7.49179 27.5324L5.78047 26.4646L5.05791 25.8926L4.71565 25.1681L4.82974 24.7868L4.03112 23.4902L2.20571 19.7913L1.82541 19.3337L1.48315 18.571L0.190147 17.6177L0.418326 17.1601L0 16.3211L0.26621 15.7491L0.988766 15.1771L1.52118 14.4145L1.33103 13.8425L1.06482 13.8043L0.798619 14.1475L0.456357 13.9187L0.608472 13.6518L0.456357 12.8891L0.760588 12.6985L0.912709 12.1264L1.25497 11.5163L1.21694 11.135L2.28176 10.6011V10.296L2.586 10.1054L2.54797 9.6859L2.70009 9.45711L3.19447 9.3427L3.95506 8.23683L3.91703 8.00803L3.65082 7.8555L3.80294 7.32163L3.61279 6.52082L3.80294 6.21576L3.65082 5.41496L3.27053 4.88109L3.34659 4.61415L3.68885 4.57602L3.879 4.27095L3.68885 3.66081L4.22126 3.62268L4.90579 2.97442L5.24806 2.89815L5.36215 2.74561L5.51426 1.67787L5.97062 1.29654H6.50303L6.65514 1.10587L7.3777 1.144L8.48055 0.41947L8.89888 0L9.24114 0.190667L9.08903 0.610138L8.63267 0.686409L8.51858 0.915201L8.78479 1.29654V1.71601L8.36646 2.40242L8.70873 3.16508L8.86085 3.24134L9.39326 3.08881L9.62143 2.40242L9.3172 1.94481L9.27917 1.37281L10.344 1.02961L10.4581 0.838941L10.344 0.457606L10.4581 0.343199L10.7243 0.838941L11.4849 0.953337L12.0173 1.41094L12.0553 1.67787L12.2074 1.83041L14.0328 1.75414L14.6033 2.17361L15.3258 2.28801L15.9723 1.98294L16.0484 1.75414L17.4175 1.83041ZM21.4866 69.136L22.057 69.6317L21.8669 70.013L20.726 70.4325L20.3457 69.9749H20.1175L19.433 70.5469L19.1288 70.0893L20.0795 69.3266L20.8021 69.6698L20.9922 69.6317L21.4866 69.136ZM13.5765 74.856L13.3103 74.8941L13.0061 75.5424L12.2835 76L11.3708 75.8093L10.6482 75.3136L9.69749 75.0848L8.51858 74.1696L7.56785 73.2925L6.57908 71.9578L8.17632 73.14L9.43129 73.712L9.62143 73.6738L10.1158 72.9112L10.4201 71.8434L11.1806 71.2714L11.7131 71.424L12.5497 73.3307L13.8047 74.3221L15.0216 74.7035L14.7174 75.3136L13.9948 75.3898L13.5765 74.856Z" fill="#A7A8AA"/>
</svg>
