<svg width="72" height="70" viewBox="0 0 72 70" fill="none" xmlns="http://www.w3.org/2000/svg">
<path d="M67.0305 23.5015L67.2388 22.8552L67.5911 21.7401L67.6738 21.1519L67.7504 20.5821L67.7994 20.1643L68.0211 19.1842V18.3789L67.5273 17.8091L66.9955 17.5187L66.2737 17.1031L65.5706 16.7379L64.61 15.8406L63.3714 15.1427L61.9306 14.4629L60.8437 14.0079H58.9731L57.3553 14.6398L56.4706 15.1427L55.7375 15.8406L54.6343 16.0837L54.2109 16.8679L51.1447 17.5187L48.2432 17.1031L46.7689 15.8406L44.7693 15.1427L44.1498 13.3076L44.0792 11.9745L44.8634 11.1903L45.4985 8.45354L45.7652 8.19475L46.8003 8.06145L45.624 7.63013L43.8204 4.7208L42.9499 5.50499L42.6362 6.11665L42.2912 6.28133L41.4208 6.10098L39.97 4.49338L38.2056 3.77977L37.5312 2.67406L35.9629 2.18004L34.8728 2.56428L34.2141 2.01534L31.6576 0.784188L27.4387 0L27.8543 0.478343L28.9757 0.823387L30.1128 1.81147L30.8186 3.76409L30.3794 5.23837L28.0269 6.60285L26.184 6.41465L23.7844 6.79104L20.9221 5.76376L17.5658 3.95229L14.429 4.00719L12.2176 4.76785L9.68472 6.49307L6.17155 6.17155L5.43441 7.92812L5.15212 8.12417L2.26629 8.22612L0.376395 10.3513L1.4037 11.355L1.46643 11.7157L0.611665 13.4645L1.94477 14.7819L3.01913 17.0482H5.14427L6.93222 18.2716L7.9987 18.0441L8.68096 16.9933L10.7983 17.0718L12.4764 18.3735L15.2132 18.1226L16.7659 16.7346L18.3343 17.2757L19.4557 17.0796L19.7772 17.2286L19.1498 18.3265L19.7458 19.2361L19.3224 20.4595L19.4714 22.365L18.4598 24.1294L16.5777 29.3443V29.6893L16.1072 30.3167L15.6043 30.5945L16.6985 33.9553L16.6846 34.2766L16.7911 34.0678L17.4246 34.4337L16.8836 37.0842L17.7226 37.2175L19.9184 40.5111L20.7025 42.1187L21.3064 42.6676L22.3337 45.4123L23.3766 45.8671L24.3725 46.8003L25.5018 49.1529L25.6586 51.8975L26.8662 53.756L27.7602 54.1403L29.0855 55.5283L29.6972 57.3084L30.6931 58.9552L31.7831 59.8492L31.9164 60.5785L32.5203 61.2607L32.7712 62.1312L32.8261 64.3661L32.6222 64.7033L33.673 67.3147V68.5066L34.0808 69.4398L36.6529 69.2908L38.0017 68.1145L41.3267 67.5264L42.4324 66.7422H43.9459L45.6946 65.2914L50.5801 63.5741L51.1918 61.8881L53.5443 61.2137L54.8068 60.5471L55.9753 60.6883L56.6732 60.2726L56.8065 59.3551L57.7554 58.7827H58.8454L59.4414 57.3868L60.6648 56.6027L61.5744 56.5634L61.3783 55.1441L61.7547 53.9756L62.4448 53.364L63.1193 53.4502L63.7545 52.2112L64.617 51.4741L65.5816 49.741L64.9464 49.2705L63.5898 47.412L61.1195 46.7846L59.81 45.8593L58.8925 44.2909L58.6258 42.5735L58.9395 41.7893L54.4932 46.2671L51.7328 46.1494L50.235 46.4788L49.8586 46.2122L49.0744 44.9967L49.4744 43.5459V42.4402L49.1058 42.0168L48.4471 43.0754L48.5726 44.5732L48.353 44.9026L47.9844 44.7536L46.5964 42.1187L46.6748 40.5503L45.4515 39.7034L45.0516 38.9192L44.04 38.2997L42.6362 34.6768L42.7696 34.0651L42.401 33.179L42.7225 32.7477L43.7184 32.8418L44.3458 32.0576L44.7457 31.987L45.8671 32.6614L46.7846 32.3399L47.1689 32.4967L49.8508 37.492L51.7407 38.1507L53.6698 39.8053L55.8812 40.4798L57.8181 39.4525L59.5277 39.0761L60.6491 39.6642L61.4332 42.1579L69.2751 43.5616L68.849 43.2607V42.4936L69.1047 41.7426L70.1953 41.0497L70.8721 40.461L71.8349 40.2024L72 39.7842V39.2725L71.3343 38.7554L70.9821 38.3207L70.6819 37.4913L70.3274 36.6481L68.9478 35.5057L68.5248 34.856L68.2027 33.9462L67.5616 33.3831L67.7262 32.5254L68.3153 32.0662L68.8178 31.3991C68.8178 31.3991 68.9573 30.8012 68.9573 30.648C68.9573 30.5805 68.9573 30.5732 68.9539 30.568C68.9511 30.5636 68.9458 30.5607 68.9358 30.5224C68.8807 30.1702 68.8178 29.8455 68.8178 29.8455L68.2772 29.5085L67.3552 28.6906L67.0274 27.4592V26.1175L67.2572 25.2292L67.346 24.8555L67.1653 24.0713L67.0305 23.5015Z" fill="#A7A8AA"/>
<path d="M13.441 20.6947H14.8603L14.9388 21.2044L13.2841 21.9886L12.5705 21.7612L12.3666 21.3299L12.994 21.2672L13.441 20.6947Z" fill="#A7A8AA"/>
<path d="M3.25437 3.98366L3.60727 5.01095L5.02665 5.71671L4.91685 5.92061L2.75248 6.0539L1.73305 6.94004L0.39992 8.06927L0 7.28509L1.07433 5.0031L0.462668 4.27381L1.85852 3.69352L3.25437 3.98366Z" fill="#A7A8AA"/>
</svg>
