<svg width="91" height="78" viewBox="0 0 91 78" fill="none" xmlns="http://www.w3.org/2000/svg">
<path d="M88.2807 36.2278L87.7432 37.2989L87.7748 37.4564H87.9329L88.3756 37.1099L88.6918 37.2674L88.5021 37.5824L88.5653 37.7714L89.2609 38.1179L89.7036 37.8659L90.336 38.1494L90.1147 38.937L90.2728 39.0945L90.6838 38.937L91 40.1341L90.7154 41.0477L90.4625 41.0792L90.0514 40.9216L90.2095 40.0711L89.9249 39.7876L89.7668 39.8191L88.8815 40.7956H88.755L89.1028 40.4491L89.0712 40.2286L88.3124 39.9451L85.9725 39.9766L85.9093 39.7876L86.352 39.441V39.252L86.099 39L86.6998 38.3385L87.5219 36.3853L87.9962 35.6923L88.6286 35.2827L88.7867 35.3142L88.2807 36.2278ZM41.9903 60.1381L42.2116 60.1066L42.4962 59.7601L42.5278 59.193L41.927 58.563L41.4844 58.311L40.5358 56.4208L40.0615 55.0662L39.5556 54.5307L39.2078 54.4047L39.0181 54.1212L38.607 54.0897L38.2908 53.8376L37.5952 53.7431L37.4687 53.6486L37.3422 53.1131L36.5834 52.1365L35.951 50.8134L35.9194 50.4984L35.0024 49.3643L34.9076 48.5767L34.4965 48.0097L34.6546 47.1906L34.623 46.2771L34.37 45.458L34.6862 44.4499L34.8759 42.4023L34.7179 40.8586L34.2436 39.3465L34.2752 39.2835L35.2554 39.6301L35.6664 40.6696L35.8878 40.7011L36.1091 40.3231L35.9826 39.3465L35.7297 38.37L33.4847 36.5743L32.0618 36.0388L31.6508 34.9992L31.7457 34.2431L31.6824 34.1171L30.7338 33.5816L30.5757 32.5105L29.6588 31.5654L29.6272 30.8409L29.1529 30.3053L28.4889 29.8958L28.2675 28.7302L27.2241 27.5331L26.8131 26.1785L26.7182 26.084L24.7262 25.958L23.8409 25.5485L22.165 23.9418L20.0149 23.0913L18.9083 23.2173L17.3905 22.4927L16.3471 21.7997L15.4618 22.1462L15.3669 22.2722L15.525 23.2488L14.2602 23.6583L13.533 24.1939L12.8058 24.4459L12.7109 23.7213L13.0587 22.2407L13.8492 21.7682L13.9124 21.6107L13.6911 21.2011L13.5014 21.1696L12.4896 22.0832L11.9204 23.1543L10.7821 24.2569V24.4144L11.3197 25.0759L10.624 26.0525L9.01147 27.0921L8.75851 27.7536L7.55698 28.4782L7.27241 29.1712L6.41869 29.7068L5.84955 29.6123L3.66782 30.9354L2.43468 31.2819L3.19354 30.6834L3.98402 30.2423L4.80611 29.4863L5.84955 29.2658L6.22898 28.6987L7.30403 27.8481L8.12613 26.9661L8.25261 25.8635L8.66365 24.9814L8.63204 24.8554L8.47394 24.8239L7.65184 25.2334L7.46213 25.0444H7.27241L6.95622 25.454L6.54517 24.8239L6.32384 24.8554L6.22898 25.1074L6.03926 24.6664L5.84955 24.6034L5.09069 25.2019H4.7745L4.71126 24.4144L4.83773 23.8788L4.30021 23.2173L4.17373 23.1858L3.22516 23.4693L2.59277 22.8078L2.08687 22.4297L2.05525 21.4847L1.4861 20.8231L1.77067 19.941L2.40306 18.996L2.68763 18.1454L3.22516 18.0509L3.73106 18.3029H3.85754L4.4583 17.5154L5.05907 17.6099L5.65983 17.0428L5.56498 16.0977L5.18555 15.7827L5.69145 15.1842L5.59659 14.9952L5.05907 15.0267L4.20535 15.4362L3.98402 15.7827L3.38325 15.4362L2.3082 15.6252L1.23315 15.2157L0.916956 14.4911L0 13.483L0.980195 12.7585L2.71925 11.8134H3.19354L3.09868 12.664L3.22516 12.79L4.90097 12.727L4.99583 12.538L4.36345 11.3094L3.38325 10.5218L2.81411 9.48223L2.05525 8.60017L1.01181 7.97012L1.39124 6.99354L2.78249 6.89903L3.7943 5.89096L4.01564 4.75687L4.7745 3.71729L5.53336 3.43377L6.98784 2.39419L7.77832 2.5202L8.91661 1.29161L9.99166 1.76414L10.5608 2.80372L10.7821 2.83522L11.0983 2.42569L12.2366 2.5517L12.205 2.99273L12.2999 3.11875L13.5014 3.52828L14.3551 3.30776L15.9677 4.03231L17.517 4.25283L18.1178 4.53635L19.2245 4.18982L20.3944 4.85138L22.7026 5.70194L23.9357 6.77302L24.8211 6.99354L24.9475 6.96204L25.6432 6.04847L26.5285 5.38692L27.7616 5.63894L28.9315 4.66236L30.1015 4.12682L30.5757 4.97738L30.7655 5.00889L31.3978 4.41034L31.5559 3.46527L31.9354 3.62278L33.2634 5.63894H33.4847L34.3384 4.41034L34.4333 5.76494L34.5914 5.89096L35.5716 5.51292L35.9194 4.88288L36.7415 5.00889L37.943 5.95396L39.8085 6.77302L40.9152 7.15105L41.6741 7.02504L42.591 7.97012L41.5792 8.94669L41.6425 9.16721L43.0653 9.60824L45.247 9.35623L45.8794 9.0412L46.6699 10.1753H46.8596L47.7133 9.13571V8.97819L46.9861 8.15913L47.3971 7.56058L48.3141 7.46608L48.9149 7.27706L49.484 7.7496L50.2745 8.88369L50.401 8.94669L51.2231 8.78918L52.6775 9.73425L53.8791 9.41923L55.0174 9.48223L55.1438 9.35623L55.049 8.12762L55.6181 7.81261L56.7248 8.47416V10.3643L56.8197 10.4903L56.9461 10.3958L57.4204 8.85219L57.958 8.88369L58.0844 8.78918L58.4322 6.61551L57.5785 5.1349L56.6616 4.22133L56.7248 1.66963L57.6101 0L58.5271 0.34653L59.286 1.41761L60.3294 4.03231L59.6654 5.1034L59.7286 5.29241L61.1199 5.73345V7.90711L61.2147 8.03312L61.3412 7.97012L62.2898 6.4265L63.1119 7.62359L62.8905 9.23021L63.6494 10.6163H63.8707L64.6928 9.13571L65.2936 7.27706L65.3252 4.94589L66.3054 5.1034L67.4437 5.41842L68.4555 6.4895L68.4871 7.49758L67.918 8.60017L68.4555 9.79726L68.3607 10.7108L66.8746 12.0654L65.8627 12.349L65.1039 11.7819L64.9142 11.8449L64.6928 12.8215L63.934 14.4281L63.7126 15.2472L62.8273 16.4128L61.7523 16.5388L61.0566 17.3263L60.9934 18.4604L60.0764 18.7124L59.0962 20.0985L58.2425 21.9572L57.9263 23.2803L57.8947 25.0759L57.9896 25.2019L59.0646 25.454L59.7919 27.9111L59.95 28.0057L61.025 27.7221L62.4479 28.3207L63.2067 28.8562L63.8075 29.5493L64.7877 29.9273L65.6098 30.4943L67.6967 30.7149L67.5702 31.8174L67.8231 33.1721L68.3923 34.6212L69.5938 35.8813H69.7519L70.4159 35.4087L70.8586 34.0226L70.4475 31.9435L69.9732 31.2819L71.1432 30.6834L72.0285 29.7068L72.5028 28.6357L72.4395 27.6276L71.902 26.3675L70.9851 25.2649L71.902 23.6268L71.5542 22.1777L71.3012 19.689L71.7439 19.374L73.0403 19.815L73.8624 19.9725L74.5264 19.563L76.139 21.0121L76.4868 21.7052L77.7832 21.8312L77.7516 23.0913L78.0045 25.0759L78.7634 25.391L79.3009 26.2415L79.4906 26.273L80.6289 25.4225L81.4194 23.6898L81.7988 23.1543L84.2019 28.0057L83.8857 28.8562L83.9173 28.9822L84.9607 29.7698L85.6564 30.5574L86.9527 30.9354L87.427 31.3449L87.7432 32.4475L88.4072 32.6995L88.6918 33.1405L88.755 34.4952L87.68 35.3772L86.352 35.8498L85.3718 36.8263L84.107 37.0154L82.3996 36.7633H81.1981L80.2811 36.8893L79.6487 37.7399L78.6053 38.3069L76.55 40.9532V41.1107L76.6765 41.1737L77.4037 40.9532L78.6685 39.441L80.2811 38.4645L81.3878 38.3385L81.9569 38.811L81.2613 39.6301L81.5142 40.8901L81.8304 41.8352L82.9371 42.4338L84.2335 42.2763L84.8975 41.2682L84.9607 41.8037L85.3402 42.1187L84.5181 42.7488L82.779 43.4103L81.9885 43.8829L81.1348 44.6389L80.6921 44.5759L80.6605 43.8199L81.9885 42.9378L82.0518 42.7803L81.9253 42.6858L80.6605 42.7173L79.7752 42.8433L79.6803 43.0008L79.7752 43.2843L79.0163 43.7569L77.3721 44.4499L76.8978 45.143L76.7397 45.458V46.088L76.9927 46.6551L77.2457 46.7496L75.222 47.0961L74.5264 47.4111L74.4632 47.5687L74.5896 47.6632L75.6963 47.4742L74.8426 47.7262L74.2734 47.6317L74.0205 47.9152L74.0837 48.1042L74.1786 48.1357L74.0521 48.7342L73.6411 49.2698L73.1668 48.8918L73.0087 48.8603L72.9454 49.0178L73.1035 49.5533L73.2933 49.7423V50.0259L73.0087 50.4984L72.6292 50.0889L72.5344 49.3013L72.4079 49.1753L72.2814 49.2698L72.1233 49.7108L72.2182 50.2149L71.902 50.1204L71.7439 50.1834L71.8072 50.3409L72.2814 50.6244L72.3131 51.5065L72.566 51.664L72.7241 52.8611L72.2814 53.4911L71.491 53.7746L70.9534 54.3417L70.5424 54.4362L70.1313 54.7827L70.0049 55.0977L69.1511 55.6963L68.6768 56.1688L68.2974 56.7674L68.1709 57.4289L68.2974 58.122L68.582 58.9095L68.9298 59.5396V59.9491L69.3092 60.9572L69.246 61.8393L69.0563 62.3118L68.8982 62.3748L68.6136 62.3118L68.5188 61.9968L68.2026 61.7447L67.3172 60.0436L67.4753 59.4136L67.2224 58.878L66.6216 58.122L66.1473 57.9645L65.3885 58.3425L64.9142 57.9015L64.345 57.6494L63.4597 57.7754L62.7324 57.6809L62.1001 57.7439L61.7839 57.9015L61.7206 58.0905L61.8471 58.311L61.9103 58.7835L61.6258 58.7205L61.3728 58.878L60.8669 58.8465L60.2029 58.374L59.5389 58.4685L58.9381 58.2795L57.7682 58.563L57.0094 59.2561L56.2189 59.6656L55.7762 60.1066L55.5549 60.5477L55.5233 61.2092L55.6497 61.8078L55.3968 61.9653L55.6497 62.0598L55.2703 63.2884L55.1438 64.9265L55.713 66.5016L56.2189 67.1002L56.4086 67.5727L56.7248 67.9822L57.6101 68.2343L58.0528 68.5808L60.4242 67.9822L61.025 67.5727L61.3728 66.1866L62.6692 65.8086L63.8075 65.7771L63.9024 65.8716L63.8707 66.1866L63.4597 66.6591L63.2384 67.1947L63.3648 67.4152L63.1435 68.1397L62.8273 68.0452L62.7008 68.1712L62.8589 68.4233L62.7324 68.8328L62.7641 69.3998L62.7008 69.7464L62.4163 69.9984L62.2582 70.2819L62.2898 70.4394L62.5427 70.5969L62.7324 70.5339L62.9538 70.6284L63.2384 70.5024L63.9972 70.5969L64.4083 70.5654L64.7561 70.4079L65.1671 70.5024L65.5149 70.4079L65.9576 70.5339L66.6848 70.975L66.8113 71.101L66.7481 71.3215L66.8113 71.6365L66.5584 72.2351L66.59 73.1171L66.4635 73.2431L66.4319 73.8102L66.2738 74.0622L66.6532 74.9128L67.5702 75.8263L67.665 76.0784H68.0761L68.329 76.2359L68.7717 76.1729L69.5622 75.8263L69.8468 75.6058L70.9218 75.8893L71.3645 76.2674L71.491 76.8344L71.4277 76.9289L71.2696 76.8974L71.1115 76.9919L71.0483 77.1809L70.827 76.7714L70.9534 76.6139L70.8902 76.3934L70.1629 75.8578L69.7203 75.8893L69.4673 76.2044L68.9614 76.4564L68.8982 76.7714L69.1828 77.0864L68.993 77.2439L68.7717 77.2755L68.6768 76.8974H68.2658L68.0445 76.5824L67.5069 76.4249L67.0959 76.4879L66.6848 76.3304L66.59 75.8578L65.7995 75.4168L65.7047 75.1648L65.3568 75.0073L65.3252 75.3223L64.9774 75.1018L64.9458 74.1882L63.5862 72.8966L63.681 72.6761L63.4597 72.3611L63.2067 72.2981L63.017 72.4871H62.6692L62.0684 72.2351L61.6574 72.2036L61.025 71.8885L60.5191 71.857L59.7919 71.3845L58.8749 70.5024L58.4322 70.2189L57.7999 69.9984L57.2939 70.0614L56.2821 70.4394L52.9305 69.2108L52.0135 68.5808L50.812 68.2973L50.4642 67.9192L49.6421 67.4467L49.2627 66.9426L49.1362 66.6591L49.3575 66.4701L49.2943 66.3126L49.4524 66.0606V65.7771L48.82 64.5485L48.1244 63.6979L47.3339 63.0048L46.9545 62.4693L46.2589 62.0913L46.164 61.9338L46.2589 61.4297L46.1956 61.3037L45.8162 61.1147L45.5949 60.5162L45.4051 59.9176L44.9308 59.7601L44.172 58.9095L44.1404 58.626L43.7293 57.9645L43.4764 57.3029L43.4447 56.8619L42.8756 56.4838H42.5594L42.1484 56.2633L41.9586 56.3263L41.8322 56.7044L42.0535 57.9645L43.1602 59.2561L43.255 59.5081L43.4131 59.6026L43.5396 60.0751L43.9507 60.6422L44.4566 61.1147L44.7095 61.9023L45.1522 62.6898L45.1838 63.1309L45.3103 63.2569L45.6265 63.2884L46.164 64.0444L45.911 64.2964L45.6897 63.8239L45.1522 63.3199L44.2352 62.7213L44.2668 62.1228L44.1087 61.5872L43.1918 60.9257L43.0021 60.9572L42.4013 60.6107L42.1167 60.2956L41.9903 60.1381ZM70.321 45.017L70.6689 44.8909L71.9969 45.017L72.5976 44.6704V44.0719L72.4395 43.8514L72.155 43.7884L71.7123 44.1349L71.3645 43.9774L70.0997 44.2924L69.8151 44.4499L69.5622 44.828L69.6254 45.017L69.9416 45.1115L70.321 45.017ZM67.0643 46.025L66.6532 46.4976L66.7165 46.6866L67.1908 46.9071L67.6334 46.9701L68.2658 46.8126L69.7835 46.025L70.4791 45.395L70.5108 45.1745L70.3527 45.08L69.6571 45.206L69.0563 45.4895L68.6768 45.395L68.3923 45.4265L67.4753 46.0565L67.0643 46.025ZM61.8155 39.441L61.025 39.8191L59.9183 40.7641L59.8867 41.0162L60.0448 41.1422L60.7721 40.9216L61.3412 41.2997L62.9854 40.4176L62.8589 40.7011L62.9222 40.8586L63.3648 41.0162L63.9024 41.4572L65.3885 41.1422L65.6098 41.4572L65.8627 41.4887L65.9892 41.4257L66.2422 41.7722L65.7995 41.8352L65.1039 41.7092L63.9656 42.0242L63.1119 43.1898L63.2384 43.4733H63.4281L63.6178 43.2213L63.1751 44.9225L63.27 46.025L63.5862 46.6866L63.934 46.7181L64.2185 46.5921L64.7561 45.8675L64.7877 45.08L64.5347 44.3869L64.5664 43.9774L64.9458 43.1268L65.0723 43.0008L65.2304 43.2528L65.3568 43.1583L65.4833 42.6543L65.673 42.4968L65.7363 42.2132L66.2738 42.4023L66.8113 42.8118V43.6939L66.4003 44.1034V44.4814L66.6848 44.6074L67.2224 44.1349L67.3805 44.1979L67.5386 45.1745L67.7283 45.269L68.2974 44.828L68.329 44.0089L68.7085 43.2843L68.8666 43.4733L69.499 43.6309L69.8784 43.2213V43.0953L69.0247 41.8352L68.2974 41.6147L66.5267 41.3627L66.4003 41.1422L66.1157 41.2052L66.2106 41.0162L66.1473 40.8586L65.926 40.7641L66.0208 40.4176L65.7363 40.0081L65.8311 39.7561L65.7363 39.5986L64.9142 39.441L64.6612 38.8425L64.4399 38.622L62.9854 38.3385L62.6376 38.7795L62.1633 39L61.8155 39.441ZM83.7908 38.1179H83.5695L82.5893 37.7714L82.0518 37.3304L83.0636 37.6139L83.7908 38.1179ZM82.3363 41.2997L83.0003 41.5202H83.4746L83.2849 41.7407L83.0636 41.8037L82.1466 41.3627L82.0201 41.0792L82.1466 40.9216L82.3363 41.2997ZM80.7554 68.1712L80.6605 68.2658L79.7752 68.2973L79.7436 68.1082L80.3443 68.0767L80.7554 68.1712ZM75.1904 68.1082L74.6845 68.0452L74.3051 68.1712L74.0205 67.9822L74.0521 67.9192L75.1904 68.1082ZM75.3801 68.1082L75.6331 67.9507L75.6647 67.7617L75.3485 67.4467V67.1947L75.2536 67.0687L74.9691 66.9426L76.0441 67.1002L76.2338 66.9426H76.7714L77.4037 67.1317L77.4986 67.3522L77.9097 67.4152L78.0045 67.6672L78.3207 67.6987L78.5737 67.8877L78.4156 68.0452L78.0677 67.8877H77.467L77.0559 68.0767L76.803 67.8877L76.4868 68.0452L76.2338 68.4863L76.0757 68.1712L75.3801 68.1082ZM69.6887 64.4855L70.0997 64.8005L70.7953 64.706L72.1866 65.7771L72.8506 65.9346L72.819 66.0606L72.9454 66.2181L73.5146 66.2496L73.9573 66.5646L72.9771 66.6906H71.649L71.902 66.4701V66.2811L71.5226 66.0291L71.0483 65.9661L70.827 65.7771L70.6372 65.336L70.5108 65.2415L70.0997 65.273L69.4041 65.0525L69.1195 64.8635L68.1077 64.7375L68.0128 64.6745L68.2026 64.4225L68.0761 64.3279H67.2224L66.6848 64.7375H66.4003L66.2106 64.958L65.8944 65.021L66.2422 64.58L66.5584 64.4225L67.7283 64.1074L68.993 64.1704L69.6887 64.4855ZM71.9652 68.3603L71.7123 68.4863L70.9851 68.1397L71.238 68.0452L71.902 68.1397L72.2814 68.3288L71.9652 68.3603ZM71.3329 63.3829L71.1748 63.0048L70.8902 62.7528L71.0167 62.3748L71.3012 63.0048L71.3329 63.3829ZM71.0799 60.9572L70.4475 61.0517V60.9572L70.6689 60.9257L71.0799 60.9572ZM69.9416 19.7835L69.6887 20.4766L69.499 20.4136L69.3409 20.004L69.6254 19.5315L69.8151 19.563L69.9416 19.7835ZM65.3252 13.5775L65.4517 14.3336L65.6414 14.4281L65.9576 14.2076L66.3686 14.6486L68.1077 15.8457L68.1709 16.6333L68.329 16.7593L68.8349 16.6333L69.246 17.0743L68.7085 17.5154L67.6018 17.1373L67.1908 16.3813L66.9694 16.3498L66.1789 17.2948L65.1987 18.0824L64.9774 17.2318L64.8509 17.1373L64.0921 17.2633L64.598 16.5703L64.6928 15.1212L64.9458 13.546L65.3252 13.5775ZM67.8864 18.7754L67.0327 19.626L66.6216 19.5945L66.4951 19.2795L67.001 18.5864H67.8864V18.7754ZM56.9778 6.39499L56.5983 6.99354L55.6497 6.39499L54.9541 6.58401L54.0372 5.73345L54.6696 5.1034L55.1438 4.22133L56.3138 5.1664L56.9778 6.39499ZM34.8759 38.874L34.6546 38.9685L33.4531 38.4645L33.2001 38.0234L32.5361 37.6139L32.3148 37.2359L31.5559 37.0468L31.303 36.3538L32.4729 36.7633L33.2001 36.8893L33.8325 37.8344L34.623 38.3385L34.8759 38.874ZM27.5087 31.975L27.7933 32.101L28.394 32.0065L28.1727 33.3611L28.7418 34.3061L28.2992 33.7706L27.983 33.1405L27.6035 32.7625L27.5087 31.975ZM11.6359 27.5646L10.9402 28.0372L10.6557 27.7536L10.5608 27.1866L11.5726 26.525L12.0153 26.6195L12.2682 26.9661L11.6359 27.5646ZM1.61258 23.3748L1.26477 23.5638L0.505907 23.0283L1.04343 22.8393L1.54934 22.9653L1.61258 23.3748Z" fill="#A7A8AA"/>
</svg>
