<svg width="92" height="78" viewBox="0 0 92 78" fill="none" xmlns="http://www.w3.org/2000/svg">
<path d="M85.3045 48.7016L86.5469 51.0279L86.8921 51.1648L87.0992 50.8911V49.9332L87.3752 50.1385L87.7894 51.849L89.17 52.5332L90.4124 52.7385L91.5168 51.9174L92 52.0543L91.1717 54.7911L89.7912 54.8595L89.308 55.749L89.446 56.6385L87.7894 59.7174L86.754 60.4016L86.4779 59.9227L85.9947 59.7174L86.8921 58.1437L86.3399 56.6385L84.5452 55.6806V55.2016L85.7877 54.3121L86.0638 52.6016L85.9257 51.0279L85.2355 49.6595V49.1122L83.0956 46.4437L82.5434 45.2806L83.6479 46.3753L84.8903 46.8543L85.3045 48.7016ZM82.5434 59.1701L82.9576 60.1279L83.3717 60.2648L84.3381 59.5122L84.6832 60.1279V60.949L82.9576 63.6174L82.0602 64.5753L81.9912 64.9174L82.4054 65.6701L81.37 65.7385L79.7824 66.7648L78.4018 70.7332L76.3311 72.4437L74.9505 72.3753L73.7771 71.5542L72.0514 71.4174L71.8444 70.8016L72.7417 69.0911L74.8125 66.7648L75.9169 66.2858L78.678 64.0963L79.7824 62.7964L80.5417 61.1542L81.2319 60.47L81.439 59.3069L82.2673 58.5543L82.5434 59.1701ZM0.276079 42.4895H0.483149L0.62121 42.1474L0.276079 41.1211L0.897331 41.9421L1.24246 42.0105L1.44953 41.7368L1.38052 40.6421L0 38.0421L0.759271 35.7158L0.62121 34.6211L0.82828 34.2105L1.1044 34.9632L1.38052 34.8263L2.07078 33.5947L3.38226 32.979L4.27959 32.1579L5.52209 31.5421L6.21235 31.4053L6.83356 31.6105L8.14507 30.9263L9.18047 30.721L9.87073 30.1737H10.8371L12.7698 29.5579L13.7362 28.7368L14.2194 27.7105L15.1857 26.8211L15.3928 25.0421L16.2901 23.9474L16.8424 25.1105L17.1875 25.2474L17.9468 24.9053L18.0848 24.4947L17.6017 23.8105L17.9468 23.3316L18.499 23.6053L18.9131 23.4L19.1202 22.1684L20.4317 20.6632L21.191 20.3895L21.3981 19.979L21.8122 20.1158L22.1574 19.8421V19.5684L23.4689 19.1579L24.6423 19.9105L25.5397 20.9368L27.8865 21.2105L28.1627 20.8684L27.8175 20.0474L28.5078 18.8158L29.198 18.4053L29.2671 18.0632L29.06 17.7895L29.6812 16.9684L30.5786 16.4211L31.4759 16.6263L32.9254 16.2842L33.1325 16.0105V15.1211L32.5113 14.5737L33.5467 14.9842L34.5131 15.7368L35.9626 16.1474L36.5148 16.0105L37.4812 16.4895L38.6546 16.0105L39.2068 16.1474L39.621 15.9421L40.1042 16.4895L39.2068 17.8579L38.7236 17.9263L38.5166 18.2684L38.6546 18.8842L37.6192 20.5263L37.6882 21.279L39.2068 22.4421L40.5874 23.0579L42.6581 24.7L44.0387 25.1789L44.3838 25.7947L46.2475 26.4105L47.49 25.6579L48.9395 21.5526L48.6634 19.0895L48.8705 17.8579L49.2156 17.2421L49.0086 16.7632L49.7678 14.5053L50.113 14.1632L50.3891 14.6421L50.5271 15.6684L51.0103 16.0105L51.1483 16.6947L51.7005 17.5158L51.7696 19.1579L52.3908 20.5263L52.805 20.6632L53.7023 20.1158L54.8758 21.279L54.7377 22.0316L55.0828 23.5368L55.3589 24.4263L55.8421 24.7684L56.2563 26.1369L56.1182 27.1632L56.6704 28.3947L58.6722 29.4895L60.812 30.9947L60.743 31.5421L61.7093 32.6369L62.3996 34.5526L62.8138 34.6895L63.2969 34.4158L63.8492 35.0316H64.2633L64.6084 36.7421L67.9217 40.0947L68.4049 41.5316L68.3359 43.8579L69.1641 45.4316L69.0951 47.0737L68.3359 49.7421V50.9053L67.9907 52.2737L67.3005 54.0526L65.989 55.1474L64.8155 57.7474L63.1589 62.2632L63.0208 64.3842L62.1925 65L60.1908 65.1369L58.6032 66.0263L56.8775 67.7368L55.635 66.9158L54.7377 66.5737L54.9448 65.6842L54.5997 65.3421L53.5643 65.8211L52.1837 67.2579L47.2829 65.6158L46.2475 64.3842L45.4882 61.5789L44.4528 60.6211L43.2103 60.4158L43.6245 59.5263L43.2103 57.9526L42.7271 57.8842L41.9679 59.2526L41.3466 59.3895L41.7608 58.8421L42.0369 57.6105L42.7271 56.4474L42.5891 54.9421L42.382 54.6684L42.1059 54.7368L40.7254 56.4474L39.69 57.1316L39.0688 58.5684L38.1714 57.9526V56.8579L37.067 55.3526L36.3077 54.6684L36.5148 54.3947L36.4458 53.9842L34.2369 52.7526L32.9945 52.6842L31.2688 51.7263L28.0936 51.9316L23.952 53.3L22.2264 53.2316L20.4317 54.2579L18.9822 54.7368L17.9468 56.6526L15.5309 56.8579L13.9432 56.5158L11.5273 56.8579L10.4229 57.9526H9.87073L8.21408 59.1842L6.00524 59.1158L3.45131 57.4737V56.6526L4.27959 56.3105L4.62472 55.6947L4.76278 53.5053L4.55571 52.2737L3.65838 50.221L3.38226 49.1263L3.45131 47.8947L2.76105 46.6632L2.62298 45.979L1.93272 45.2947L1.72565 43.8579L0.276079 42.4895ZM57.8439 7.86842L59.4315 9.09999L60.5359 10.8789L61.4333 10.9474L61.3642 11.4263L61.5713 11.7L62.3306 11.8368L62.3996 12.3158L63.9872 13.0684L63.1589 13.1369L62.6757 12.7263L59.5005 12.3158L57.2917 10.3316L56.2563 8.68948L53.9784 7.93685L52.3218 8.41578L51.2174 9.03159L51.0793 9.30527L51.2864 10.4L50.251 10.8789L49.2846 10.6053L47.7661 10.5368L47.697 0L53.4952 1.98421L55.566 3.62631L55.9802 4.72105L58.7412 5.74736L58.9483 6.22632L57.7058 6.36315L57.4988 6.70525L57.8439 7.86842ZM54.8758 71.979L56.7394 72.7316L58.9483 71.979L59.7076 72.1158L59.8456 74.5105L59.2934 75.4L59.1554 76.7L58.9483 76.4947H58.5341L57.4297 78L56.2563 77.8631L55.2899 76.0158L55.0138 74.4421L54.0475 72.5263V71.8421L54.8758 71.979Z" fill="#A7A8AA"/>
</svg>
