<svg width="71" height="68" viewBox="0 0 71 68" fill="none" xmlns="http://www.w3.org/2000/svg">
<path d="M70.8163 24.4406L71 23.6724L70.7398 23.0885L69.8061 22.9272L69.0408 22.8503L69.4541 22.6506L69.2474 21.7671L68.75 21.6212L69.1786 21.0988L68.0535 20.7454L66.8903 21.5136L66.125 21.3907L65.3596 21.0603L63.9744 22.182L62.7576 22.2819L61.8851 23.3651L61.357 24.1333L60.2397 24.31H59.8417L59.658 23.7492L58.8927 23.5571L58.4641 23.8414L57.8825 23.6493L57.4845 23.4035L56.7895 22.8574L55.6796 23.1554L55.1117 23.4035L54.518 23.9587L54.4233 24.6096H53.7518L53.4983 24.0511H52.9389L52.711 24.6096V25.6041L52.5303 26.3944L51.9108 26.8868L51.0719 27.0293H49.7425H48.6583L47.8323 26.8868L47.3806 26.4592L46.6062 26.2908L45.9262 25.7953L45.4459 25.2484L45.1233 25.2102H44.729H44.2559H43.8258H43.1802L42.5373 25.0949V24.488H41.6496L40.8154 23.8273L40.0128 23.7262L39.4316 23.3343L38.8868 23.2037L38.6143 22.773L38.0755 22.6727L37.5526 22.422L36.944 21.9677L36.7411 21.3097L36.8581 20.6282L37.2327 19.8684L37.7321 19.4532L38.1613 19.1164L38.2081 18.8109L37.9997 18.4867L37.8543 18.1641L37.1502 17.3344L36.1706 17.2422L35.7343 16.4739L35.0379 16.5123L34.992 15.7979L34.7854 15.1295L34.5099 14.6762V14.4611H34.7318L35.1833 14.8683L35.8644 14.6609L35.9946 14.1999L36.0481 13.2166L35.7803 12.7326L35.3823 12.4176L35.1833 11.9643L35.1374 11.1961L35.4435 10.4279L35.1221 9.90544L34.4945 9.65962L34.1119 9.10648L33.691 8.33824L33.4307 7.63144L32.3292 6.47534L31.1829 5.89996H30.2412L29.5043 5.61239L29.1358 4.83146L28.5626 3.72181L27.7867 3.05794L26.9179 2.1451L26.2674 1.62773L25.5021 1.38433L24.2703 1.62773L23.0578 2.1451L22.2696 2.66237L21.4815 3.05794L20.9358 3.39268L20.5114 2.66237L20.2992 1.62773L19.9355 0.806132L19.6613 0.0210067L18.8871 0C18.4245 0.0210067 18.4977 0.434608 18.3716 0.530611C18.2454 0.626615 18.4124 0.997638 18.3716 1.15115L17.5664 1.62773L16.701 1.84696L16.3837 2.39714H15.7491L14.75 2.47083L14.3355 3.05794H12.9797L12.3451 2.39714H10.4412L9.94071 1.82208L9.31906 1.95811L8.48415 2.79622L7.58623 3.05794L7.33418 3.98221L7.05063 4.78869L5.88491 5.53192L4.48062 6.21433L3.69525 7.31882L2.16721 7.4137L1.61239 6.83427L0.983246 6.6671L0.93098 7.4137L0 9.90126L0.314568 11.221L0 12.4547V13.7745L0.314568 14.9795L1.22916 15.7828L1.74231 16.116L1.88653 16.9018L1.74231 17.6414L1.22916 18.3076L0.732474 18.713L0.543217 19.5413L1.15564 20.1322L1.42923 20.9758L1.88653 21.6644L2.53939 22.1596L3.19456 22.7389L3.57618 23.6174L3.84542 24.3943L4.20228 24.8464L4.84824 25.3377V25.8772L4.65943 26.2854C4.42983 26.2854 4.03675 26.5204 3.84542 26.5204C3.74708 26.5263 3.65298 26.5627 3.57618 26.6246C3.49939 26.6866 3.44369 26.771 3.41685 26.8661L3.00893 27.1451C2.57286 27.4396 2.22871 27.7332 2.04503 27.7793C1.86136 27.8254 1.84085 28.1387 1.84073 28.5397C1.65705 28.7856 1.88677 29.1218 1.84085 29.1603C1.79493 29.1987 1.56569 29.5723 2.53939 29.5723H3.84542H5.25229L6.79265 28.8119H7.79748H9.03674H10.2424L11.0799 29.2882L11.6157 29.5723L12.0175 29.9422L12.3525 30.6941V31.155L12.9217 31.7005L13.8596 32.1611L14.9408 32.8452L16.9153 34.4278L17.4204 35.1576V35.4265L16.6551 36.0488L19.0429 38.438L20.3209 38.6762L22.9919 37.4931L23.2521 37.6313L23.6041 39.4905V41.9719L24.9511 48.3791L26.7113 51.1908L27.4766 54.84L29.1603 57.6825L30.7675 62.3304L32.5047 64.105L33.1399 63.6441L33.9512 62.2382L35.3823 61.7849L35.0303 61.0166L35.7956 59.6876L36.8134 59.4571V56.292L37.6323 54.356L37.1425 50.2229L37.6859 48.6864L41.2675 47.2805L41.4053 46.2587L44.6808 43.7235L46.7931 41.365L49.5482 39.9591L50.5661 38.7837L50.4666 37.3548L50.6197 37.155L54.1631 36.7325L54.3773 36.141L54.6069 36.018L55.7166 36.3484L56.2141 36.0795L56.8417 36.4098L57.3697 35.3881L57.2243 34.6582L57.4157 34.4355L58.9999 34.5046L59.9948 35.8183L60.4769 37.8465L60.6912 38.2843L61.028 37.7005L61.931 37.8618V37.2703L62.0535 36.4252H62.5356L62.9183 35.5955L62.9795 34.8273L63.0866 34.397H63.4004L63.4616 33.5289V32.6685L63.3315 32.3689L64.2269 32.5225H64.8163L65.2219 31.8772L65.9872 30.0411L65.8112 29.3266L66.2933 28.9271L66.7908 28.1589V26.8683L67.2576 26.7991L67.977 26.2767L68.5204 25.8158L69.0637 25.6083L70.5944 25.908L70.1429 24.9553L70.3801 24.6557L70.8163 24.4406ZM37.4486 60.8476L36.6374 63.8131L36.9588 66.5173L37.816 68L39.3466 67.5928L40.1119 67.0704L40.3951 65.1268L38.6349 61.8387L37.4486 60.8476Z" fill="#A7A8AA"/>
</svg>
