<svg width="38" height="37" viewBox="0 0 38 37" fill="none" xmlns="http://www.w3.org/2000/svg">
<path d="M19 0C8.79902 0 0.5 8.29902 0.5 18.5C0.5 28.701 8.79902 37 19 37C29.201 37 37.5 28.701 37.5 18.5C37.5 8.29902 29.201 0 19 0ZM19 33.3018C10.8389 33.3018 4.19824 26.6618 4.19824 18.5C4.19824 10.3382 10.8389 3.69824 19 3.69824C27.1611 3.69824 33.8018 10.3389 33.8018 18.5C33.8018 26.6611 27.1611 33.3018 19 33.3018Z" fill="#0071C7"/>
<path d="M19.3288 27V27.25H19.5788H19.5936H20.8054H21.0554V27V25.3108C22.0888 25.1689 22.9505 24.8062 23.6275 24.2243C24.3808 23.5897 24.75 22.7628 24.75 21.7522C24.75 20.8662 24.462 20.1364 23.8371 19.5962C23.2287 19.0561 22.3378 18.6877 21.1656 18.4556L19.3935 18.0851L19.3935 18.085L19.3897 18.0843C18.6717 17.9457 18.1921 17.7301 17.9011 17.4616C17.6218 17.2038 17.4791 16.862 17.4791 16.3761C17.4791 15.7835 17.709 15.3143 18.1805 14.9478C18.6558 14.5784 19.3051 14.3873 20.1404 14.3873C20.8229 14.3873 21.4454 14.497 21.9945 14.6872C22.5316 14.8732 23.0321 15.1937 23.4813 15.6407L23.7357 15.8938L23.885 15.5675L24.3874 14.4694L24.4585 14.3141L24.3396 14.1914C23.8854 13.7229 23.3387 13.3619 22.718 13.1074L22.718 13.1074L22.716 13.1066C22.1656 12.8863 21.6235 12.7444 21.0702 12.6827V11V10.75H20.8202H19.6084H19.3584V11V12.6967C18.6583 12.7713 18.0334 12.9457 17.479 13.2474C16.8703 13.5788 16.3914 14.0069 16.0545 14.5641C15.7203 15.117 15.5456 15.7322 15.5456 16.4189C15.5456 17.325 15.8132 18.0945 16.404 18.6653C16.9687 19.2251 17.8189 19.6107 18.9089 19.8298L20.6809 20.186C20.6811 20.186 20.6814 20.1861 20.6816 20.1861C21.5006 20.3555 22.0365 20.5734 22.3249 20.8275C22.6071 21.0762 22.7574 21.4053 22.7574 21.8378C22.7574 22.3565 22.5444 22.7828 22.1172 23.1076L22.1171 23.1075L22.1136 23.1104C21.6911 23.4439 21.0055 23.627 20.0222 23.627C19.2181 23.627 18.5075 23.5163 17.9023 23.3129C17.2939 23.0941 16.7271 22.7798 16.1867 22.3544L15.94 22.1602L15.806 22.444L15.2739 23.5706L15.1937 23.7405L15.3346 23.8648C15.8791 24.3452 16.5156 24.704 17.256 24.9421C17.9135 25.1536 18.5974 25.294 19.3288 25.3412V27Z" fill="#0071C7" stroke="#0071C7" stroke-width="0.5"/>
<rect x="13.5" y="16" width="1" height="7" rx="0.5" transform="rotate(90 13.5 16)" fill="url(#paint0_linear_1305_4438)"/>
<rect x="14.5" y="14" width="1" height="7" rx="0.5" transform="rotate(90 14.5 14)" fill="url(#paint1_linear_1305_4438)"/>
<rect x="12.5" y="22" width="1" height="5" rx="0.5" transform="rotate(90 12.5 22)" fill="url(#paint2_linear_1305_4438)"/>
<rect x="13.5" y="18" width="1" height="8" rx="0.5" transform="rotate(90 13.5 18)" fill="url(#paint3_linear_1305_4438)"/>
<rect x="14.5" y="20" width="1" height="8" rx="0.5" transform="rotate(90 14.5 20)" fill="url(#paint4_linear_1305_4438)"/>
<defs>
<linearGradient id="paint0_linear_1305_4438" x1="14" y1="16" x2="14" y2="23" gradientUnits="userSpaceOnUse">
<stop stop-color="#0071C7"/>
<stop offset="1" stop-color="#00A3E0" stop-opacity="0"/>
</linearGradient>
<linearGradient id="paint1_linear_1305_4438" x1="15" y1="14" x2="15" y2="21" gradientUnits="userSpaceOnUse">
<stop stop-color="#0071C7"/>
<stop offset="1" stop-color="#00A3E0" stop-opacity="0"/>
</linearGradient>
<linearGradient id="paint2_linear_1305_4438" x1="13" y1="22" x2="13" y2="27" gradientUnits="userSpaceOnUse">
<stop stop-color="#0071C7"/>
<stop offset="1" stop-color="#00A3E0" stop-opacity="0"/>
</linearGradient>
<linearGradient id="paint3_linear_1305_4438" x1="14" y1="18" x2="14" y2="26" gradientUnits="userSpaceOnUse">
<stop stop-color="#0071C7"/>
<stop offset="1" stop-color="#00A3E0" stop-opacity="0"/>
</linearGradient>
<linearGradient id="paint4_linear_1305_4438" x1="15" y1="20" x2="15" y2="28" gradientUnits="userSpaceOnUse">
<stop stop-color="#0071C7"/>
<stop offset="1" stop-color="#00A3E0" stop-opacity="0"/>
</linearGradient>
</defs>
</svg>
