<svg width="38" height="37" viewBox="0 0 38 37" fill="none" xmlns="http://www.w3.org/2000/svg">
<path d="M19.3333 0C9.13234 0 0.833313 8.29902 0.833313 18.5C0.833313 28.701 9.13234 37 19.3333 37C29.5343 37 37.8333 28.701 37.8333 18.5C37.8333 8.29902 29.5343 0 19.3333 0ZM19.3333 33.3018C11.1722 33.3018 4.53155 26.6618 4.53155 18.5C4.53155 10.3382 11.1722 3.69824 19.3333 3.69824C27.4944 3.69824 34.1351 10.3389 34.1351 18.5C34.1351 26.6611 27.4944 33.3018 19.3333 33.3018Z" fill="#0071C7"/>
<path d="M21.2437 17.985C21.2582 17.8912 21.2727 17.7982 21.2727 17.7V9.71142C21.2727 8.70031 20.4546 7.87964 19.4466 7.87964C18.4386 7.87964 17.6204 8.70031 17.6204 9.71142V17.7008C17.6204 17.8563 17.6009 19.6299 18.1741 20.1453L23.8249 25.2271C24.1735 25.5411 24.609 25.6945 25.0431 25.6945C25.5438 25.6945 26.0431 25.4887 26.4039 25.0853C27.0771 24.3315 27.0141 23.1743 26.2634 22.499L21.2437 17.985Z" fill="#0071C7"/>
</svg>
