<?xml version="1.0" encoding="UTF-8"?><svg id="a" xmlns="http://www.w3.org/2000/svg" viewBox="0 0 200 200"><defs><style>.b{fill:none;stroke:#0071c7;stroke-linecap:round;stroke-linejoin:round;stroke-width:9px;}</style></defs><g><polygon class="b" points="127.17 26.51 127.17 56.21 156.86 56.21 127.17 26.51"/><path class="b" d="M100.44,142.33c0-16.4,13.3-29.7,29.7-29.7,11.78,0,21.93,6.88,26.73,16.82V56.21h-29.7V26.51H55.89c-6.56,0-11.88,5.32-11.88,11.88v118.79c0,6.56,5.32,11.88,11.88,11.88h61.37c-9.94-4.8-16.82-14.95-16.82-26.73Z"/><g><path class="b" d="M88.56,127.51h-20.79s-.03-.01-.03-.03,.01-.03,.03-.03h20.79s.03,.01,.03,.03-.01,.03-.03,.03Z"/><path class="b" d="M100.44,109.69h-32.67s-.03-.01-.03-.03,.01-.03,.03-.03h32.67s.03,.01,.03,.03-.01,.03-.03,.03Z"/><path class="b" d="M133.11,91.88H67.77s-.03-.01-.03-.03,.01-.03,.03-.03h65.34s.03,.01,.03,.03-.01,.03-.03,.03Z"/><path class="b" d="M133.11,74.06H67.77s-.03-.01-.03-.03,.01-.03,.03-.03h65.34s.03,.01,.03,.03-.01,.03-.03,.03Z"/></g></g><g><circle class="b" cx="130.14" cy="142.33" r="29.7"/><path class="b" d="M166.58,168.28l-10.88-10.88c-2.56,4.33-6.17,7.94-10.5,10.5l10.88,10.88c2.89,2.89,7.61,2.89,10.5,0,2.89-2.89,2.89-7.61,0-10.5Z"/></g></svg>