<?xml version="1.0" encoding="UTF-8"?><svg id="a" xmlns="http://www.w3.org/2000/svg" viewBox="0 0 200 200"><defs><style>.b{fill:none;stroke:#0071c7;stroke-linecap:round;stroke-linejoin:round;stroke-width:9px;}</style></defs><g><path class="b" d="M149.81,43.9h11.77c4.87,0,8.82,3.95,8.82,8.82v105.9c0,4.87-3.95,8.82-8.82,8.82H38.03c-4.87,0-8.82-3.95-8.82-8.82V52.73c0-4.87,3.95-8.82,8.82-8.82h11.77"/><g><path class="b" d="M142.46,60.03h0c-4.06,0-7.35-3.29-7.35-7.35v-18.96c0-4.06,3.29-7.35,7.35-7.35h0c4.06,0,7.35,3.29,7.35,7.35v18.96c0,4.06-3.29,7.35-7.35,7.35Z"/><path class="b" d="M63.03,59.92h0c-4.06,0-7.35-3.29-7.35-7.35v-18.96c0-4.06,3.29-7.35,7.35-7.35h0c4.06,0,7.35,3.29,7.35,7.35v18.96c0,4.06-3.29,7.35-7.35,7.35Z"/></g><line class="b" x1="79.21" y1="43.9" x2="132.16" y2="43.9"/><line class="b" x1="49.8" y1="96.85" x2="61.56" y2="96.85"/><line class="b" x1="49.8" y1="120.39" x2="61.56" y2="120.39"/><line class="b" x1="49.8" y1="143.92" x2="61.56" y2="143.92"/><line class="b" x1="79.21" y1="96.85" x2="90.98" y2="96.85"/><line class="b" x1="79.21" y1="120.39" x2="90.98" y2="120.39"/><line class="b" x1="79.21" y1="143.92" x2="90.98" y2="143.92"/><line class="b" x1="108.63" y1="96.85" x2="120.39" y2="96.85"/><line class="b" x1="108.63" y1="120.39" x2="120.39" y2="120.39"/><line class="b" x1="108.63" y1="143.92" x2="120.39" y2="143.92"/><line class="b" x1="138.04" y1="96.85" x2="149.81" y2="96.85"/><line class="b" x1="138.04" y1="120.39" x2="149.81" y2="120.39"/></g><line class="b" x1="29.2" y1="73.32" x2="170.4" y2="73.32"/></svg>