<?xml version="1.0" encoding="UTF-8"?><svg id="a" xmlns="http://www.w3.org/2000/svg" viewBox="0 0 200 200"><defs><style>.b{fill:#0071c7;}</style></defs><path class="b" d="M30.4,72.55c-.78,0-1.55-.2-2.23-.6-1.03-.59-1.78-1.57-2.08-2.71l-7.01-26.16c-.64-2.38,.78-4.83,3.16-5.47,2.38-.64,4.83,.78,5.47,3.16l5.85,21.85,21.85-5.85c2.38-.64,4.83,.78,5.47,3.16s-.78,4.83-3.16,5.47l-26.16,7.01c-.38,.1-.77,.15-1.16,.15Z"/><path class="b" d="M100,181.08c-44.71,0-81.08-36.37-81.08-81.08,0-2.47,2-4.47,4.47-4.47s4.47,2,4.47,4.47c0,39.78,32.36,72.14,72.14,72.14s72.14-32.36,72.14-72.14S139.78,27.86,100,27.86c-27.76,0-53.38,16.22-65.25,41.33-1.05,2.23-3.72,3.19-5.95,2.13-2.23-1.06-3.18-3.72-2.13-5.95,6.48-13.69,16.64-25.28,29.39-33.52,13.09-8.46,28.29-12.93,43.95-12.93,44.71,0,81.08,36.37,81.08,81.08s-36.37,81.08-81.08,81.08Z"/><path class="b" d="M74.46,130.01c-1.14,0-2.29-.44-3.16-1.31-1.75-1.75-1.75-4.58,0-6.32l24.23-24.23V48.92c0-2.47,2-4.47,4.47-4.47s4.47,2,4.47,4.47v51.08c0,1.19-.47,2.32-1.31,3.16l-25.54,25.54c-.87,.87-2.02,1.31-3.16,1.31Z"/></svg>