<?xml version="1.0" encoding="UTF-8"?><svg id="a" xmlns="http://www.w3.org/2000/svg" viewBox="0 0 200 200"><defs><style>.b{fill:#0071c7;}</style></defs><path class="b" d="M137.66,140.5c-2.53,0-4.59-2.06-4.59-4.59v-4.05c-9.14-1.73-15.81-8.52-15.81-16.79,0-2.53,2.06-4.59,4.59-4.59s4.59,2.06,4.59,4.59c0,4.37,5.14,8.06,11.22,8.06s11.22-3.69,11.22-8.06c0-3.63-3.73-7-8.68-7.85-.08-.01-.16-.03-.23-.05l-6.23-1.42c-8.72-1.54-15.04-8.14-15.04-15.74s6.04-13.89,14.37-15.6v-4.09c0-2.53,2.06-4.59,4.59-4.59s4.59,2.06,4.59,4.59v4.09c8.33,1.71,14.37,7.99,14.37,15.6,0,2.53-2.06,4.59-4.59,4.59s-4.59-2.06-4.59-4.59c0-3.75-4.48-6.91-9.79-6.91s-9.78,3.17-9.78,6.91c0,3.09,3.25,5.98,7.55,6.72,.08,.01,.15,.03,.23,.05l6.23,1.42c9.38,1.65,16.17,8.72,16.17,16.86s-6.78,15-15.81,16.77v4.07c0,2.53-2.06,4.59-4.59,4.59Z"/><path class="b" d="M99.1,70.93H50.55c-2.41,0-4.36-1.95-4.36-4.36s1.95-4.36,4.36-4.36h48.55c2.41,0,4.36,1.95,4.36,4.36s-1.95,4.36-4.36,4.36Z"/><path class="b" d="M91.87,89.58H30.18c-2.41,0-4.36-1.95-4.36-4.36s1.95-4.36,4.36-4.36h61.69c2.41,0,4.36,1.95,4.36,4.36s-1.95,4.36-4.36,4.36Z"/><path class="b" d="M84.44,108.23H6.19c-2.41,0-4.36-1.95-4.36-4.36s1.95-4.36,4.36-4.36H84.44c2.41,0,4.36,1.95,4.36,4.36s-1.95,4.36-4.36,4.36Z"/><path class="b" d="M91.87,126.88H30.18c-2.41,0-4.36-1.95-4.36-4.36s1.95-4.36,4.36-4.36h61.69c2.41,0,4.36,1.95,4.36,4.36s-1.95,4.36-4.36,4.36Z"/><path class="b" d="M99.1,145.53H50.55c-2.41,0-4.36-1.95-4.36-4.36s1.95-4.36,4.36-4.36h48.55c2.41,0,4.36,1.95,4.36,4.36s-1.95,4.36-4.36,4.36Z"/><path class="b" d="M137.66,44.46c-13.97,0-26.81,4.89-36.93,13.03h16.59c6.23-2.77,13.11-4.32,20.35-4.32,27.73,0,50.29,22.56,50.29,50.29s-22.56,50.29-50.29,50.29c-7.24,0-14.12-1.55-20.35-4.32h-16.59c10.12,8.14,22.96,13.03,36.93,13.03,32.54,0,59.01-26.47,59.01-59.01s-26.47-59.01-59.01-59.01Z"/></svg>